<svg width="192" height="187" viewBox="0 0 192 187" fill="none" xmlns="http://www.w3.org/2000/svg">
<path d="M61.0963 152.058L61.0889 161.648C61.0851 164.555 64.4451 167.465 71.1987 169.722C84.7059 174.227 106.75 174.418 120.873 170.204C121.105 170.133 121.333 170.065 121.561 169.994C128.715 167.742 132.31 164.749 132.314 161.749L132.321 152.159C132.318 155.159 128.722 158.152 121.569 160.404C121.341 160.475 121.113 160.546 120.881 160.614C106.761 164.828 84.7171 164.637 71.2062 160.132C64.4526 157.879 61.0889 154.965 61.0963 152.058Z" fill="#019AED"/>
<path d="M72.5405 143.6C72.3087 143.671 72.077 143.739 71.849 143.813C57.7663 148.244 57.4785 155.548 71.2062 160.132C84.7134 164.637 106.757 164.828 120.881 160.614C121.113 160.543 121.341 160.475 121.569 160.404C135.651 155.974 135.939 148.67 122.208 144.086C108.7 139.581 86.6606 139.39 72.5367 143.604L72.5405 143.6Z" fill="#71D4FF"/>
<path d="M66.4895 141.52L66.482 151.11C66.4783 154.016 69.8383 156.926 76.5919 159.183C90.0991 163.688 112.143 163.879 126.267 159.665C126.498 159.594 126.726 159.526 126.954 159.455C134.108 157.203 137.703 154.21 137.707 151.21L137.714 141.62C137.711 144.62 134.115 147.613 126.962 149.866C126.734 149.936 126.506 150.007 126.274 150.075C112.154 154.289 90.1103 154.098 76.5993 149.593C69.8457 147.34 66.482 144.426 66.4895 141.52Z" fill="#019AED"/>
<path d="M77.9336 133.062C77.7019 133.133 77.4702 133.2 77.2422 133.275C63.1594 137.705 62.8716 145.009 76.5993 149.593C90.1066 154.098 112.15 154.289 126.274 150.075C126.506 150.004 126.734 149.936 126.962 149.866C141.045 145.435 141.332 138.131 127.601 133.547C114.094 129.042 92.0538 128.851 77.9299 133.065L77.9336 133.062Z" fill="#71D4FF"/>
<path d="M63.5593 127.581L63.5518 137.171C63.5481 140.078 66.9081 142.988 73.6617 145.244C87.1689 149.75 109.213 149.94 123.336 145.726C123.568 145.655 123.796 145.588 124.024 145.517C131.178 143.264 134.773 140.272 134.777 137.272L134.784 127.682C134.781 130.682 131.185 133.674 124.032 135.927C123.804 135.998 123.576 136.069 123.344 136.136C109.224 140.35 87.1801 140.16 73.6692 135.654C66.9156 133.402 63.5519 130.488 63.5593 127.581Z" fill="#019AED"/>
<path d="M75.0072 119.127C74.7755 119.198 74.5437 119.265 74.3158 119.34C60.233 123.77 59.9452 131.074 73.6729 135.658C87.1801 140.163 109.224 140.354 123.348 136.14C123.579 136.069 123.807 136.002 124.035 135.931C138.118 131.5 138.406 124.196 124.674 119.612C111.167 115.107 89.1274 114.916 75.0035 119.131L75.0072 119.127Z" fill="#71D4FF"/>
<path d="M65.0543 115.779L65.0468 125.369C65.0431 128.276 68.4031 131.186 75.1567 133.443C88.6639 137.948 110.708 138.139 124.831 133.925C125.063 133.854 125.291 133.786 125.519 133.715C132.673 131.463 136.268 128.47 136.272 125.47L136.279 115.88C136.276 118.88 132.68 121.873 125.527 124.125C125.299 124.196 125.071 124.267 124.839 124.335C110.719 128.549 88.6751 128.358 75.1642 123.853C68.4106 121.6 65.0468 118.686 65.0543 115.779Z" fill="#019AED"/>
<path d="M76.4984 107.321C76.2667 107.392 76.035 107.46 75.807 107.534C61.7242 111.965 61.4364 119.269 75.1642 123.853C88.6714 128.358 110.715 128.549 124.839 124.335C125.071 124.264 125.299 124.196 125.527 124.125C139.609 119.695 139.897 112.391 126.166 107.807C112.658 103.302 90.6186 103.111 76.4947 107.325L76.4984 107.321Z" fill="#71D4FF"/>
<path d="M67.8686 102.457L67.8612 112.047C67.8574 114.954 71.2174 117.864 77.971 120.121C91.4782 124.626 113.522 124.817 127.646 120.602C127.877 120.531 128.105 120.464 128.333 120.393C135.487 118.141 139.082 115.148 139.086 112.148L139.094 102.558C139.09 105.558 135.494 108.551 128.341 110.803C128.113 110.874 127.885 110.945 127.653 111.012C113.533 115.227 91.4894 115.036 77.9785 110.531C71.2249 108.278 67.8612 105.364 67.8686 102.457Z" fill="#019AED"/>
<path d="M79.3165 94.0031C79.0848 94.0741 78.8531 94.1413 78.6251 94.216C64.5423 98.6468 64.2545 105.95 77.9822 110.534C91.4894 115.04 113.533 115.23 127.657 111.016C127.889 110.945 128.117 110.878 128.345 110.807C142.427 106.376 142.715 99.0727 128.984 94.4888C115.477 89.9833 93.4367 89.7928 79.3128 94.0068L79.3165 94.0031Z" fill="#71D4FF"/>
<path d="M64.8824 89.7031L64.8749 99.2931C64.8712 102.2 68.2312 105.11 74.9848 107.366C88.492 111.872 110.536 112.062 124.659 107.848C124.891 107.777 125.119 107.71 125.347 107.639C132.501 105.386 136.096 102.394 136.1 99.394L136.107 89.804C136.104 92.8039 132.508 95.7963 125.355 98.049C125.127 98.12 124.899 98.191 124.667 98.2582C110.547 102.472 88.5032 102.282 74.9922 97.7763C68.2386 95.5236 64.8749 92.6096 64.8824 89.7031Z" fill="#019AED"/>
<path d="M76.3303 81.2488C76.0985 81.3198 75.8668 81.3871 75.6388 81.4618C61.556 85.8925 61.2683 93.1961 74.996 97.7801C88.5032 102.286 110.547 102.476 124.671 98.262C124.902 98.191 125.13 98.1238 125.358 98.0528C139.441 93.622 139.729 86.3184 125.997 81.7345C112.49 77.229 90.4504 77.0385 76.3265 81.2526L76.3303 81.2488Z" fill="#71D4FF"/>
<path d="M69.5879 79.9525L69.5804 89.5425C69.5767 92.449 72.9366 95.3592 79.6902 97.6157C93.1975 102.121 115.241 102.312 129.365 98.0976C129.597 98.0266 129.825 97.9594 130.053 97.8884C137.206 95.6357 140.802 92.6432 140.805 89.6433L140.813 80.0534C140.809 83.0533 137.214 86.0457 130.06 88.2984C129.832 88.3694 129.604 88.4404 129.372 88.5076C115.252 92.7217 93.2087 92.5312 79.6977 88.0257C72.9441 85.773 69.5804 82.859 69.5879 79.9525Z" fill="#019AED"/>
<path d="M81.032 71.4945C80.8003 71.5655 80.5686 71.6327 80.3406 71.7074C66.2578 76.1382 65.97 83.4418 79.6977 88.0257C93.2049 92.5312 115.249 92.7217 129.372 88.5076C129.604 88.4367 129.832 88.3694 130.06 88.2984C144.143 83.8677 144.431 76.5641 130.699 71.9802C117.192 67.4747 95.1522 67.2842 81.0283 71.4982L81.032 71.4945Z" fill="#71D4FF"/>
<path d="M65.0394 66.5856L65.0319 76.1755C65.0282 79.082 68.3881 81.9923 75.1417 84.2487C88.649 88.7542 110.693 88.9447 124.816 84.7307C125.048 84.6597 125.276 84.5924 125.504 84.5215C132.658 82.2687 136.253 79.2763 136.257 76.2764L136.264 66.6864C136.261 69.6863 132.665 72.6788 125.512 74.9315C125.284 75.0025 125.056 75.0735 124.824 75.1407C110.704 79.3548 88.6602 79.1642 75.1492 74.6588C68.3956 72.4061 65.0319 69.4921 65.0394 66.5856Z" fill="#019AED"/>
<path d="M76.4835 58.1276C76.2518 58.1986 76.02 58.2658 75.7921 58.3405C61.7093 62.7713 61.4215 70.0749 75.1492 74.6588C88.6564 79.1642 110.7 79.3548 124.824 75.1407C125.056 75.0697 125.284 75.0025 125.512 74.9315C139.594 70.5008 139.882 63.1971 126.151 58.6132C112.644 54.1078 90.6037 53.9173 76.4798 58.1313L76.4835 58.1276Z" fill="#71D4FF"/>
<path d="M69.1917 52.4528L69.1842 62.0428C69.1805 64.9493 72.5405 67.8595 79.2941 70.116C92.8013 74.6214 114.845 74.812 128.969 70.5979C129.201 70.5269 129.428 70.4597 129.656 70.3887C136.81 68.136 140.405 65.1435 140.409 62.1436L140.417 52.5537C140.413 55.5536 136.817 58.546 129.664 60.7987C129.436 60.8697 129.208 60.9407 128.976 61.0079C114.856 65.222 92.8125 65.0315 79.3015 60.526C72.5479 58.2733 69.1842 55.3593 69.1917 52.4528Z" fill="#019AED"/>
<path d="M80.6358 43.9985C80.4041 44.0695 80.1724 44.1367 79.9444 44.2115C65.8616 48.6422 65.5738 55.9458 79.3015 60.5297C92.8088 65.0352 114.852 65.2257 128.976 61.0117C129.208 60.9407 129.436 60.8734 129.664 60.8024C143.747 56.3717 144.035 49.0681 130.303 44.4842C116.796 39.9787 94.756 39.7882 80.6321 44.0023L80.6358 43.9985Z" fill="#71D4FF"/>
<path d="M66.5381 39.0485L66.5306 48.6385C66.5269 51.545 69.8869 54.4552 76.6405 56.7117C90.1477 61.2171 112.191 61.4077 126.315 57.1936C126.547 57.1226 126.775 57.0554 127.003 56.9844C134.156 54.7317 137.752 51.7392 137.756 48.7393L137.763 39.1494C137.759 42.1493 134.164 45.1417 127.01 47.3944C126.782 47.4654 126.554 47.5364 126.323 47.6036C112.202 51.8177 90.1589 51.6272 76.6479 47.1217C69.8943 44.869 66.5306 41.955 66.5381 39.0485Z" fill="#019AED"/>
<path d="M102.28 61.0677C92.891 61.0677 83.5099 59.8685 76.3789 57.4887C69.4907 55.1912 65.7009 52.0456 65.7046 48.6347L65.7121 39.0448C65.7121 38.5927 66.0821 38.2229 66.5344 38.2229C66.9866 38.2229 67.3566 38.5927 67.3566 39.0448C67.3529 41.6524 70.8324 44.3123 76.9058 46.3372C90.1253 50.7492 112.184 50.9584 126.083 46.8116C126.311 46.7444 126.536 46.6734 126.76 46.6024C133.222 44.5701 136.933 41.8504 136.937 39.1419C136.937 38.6899 137.307 38.32 137.759 38.32C138.212 38.32 138.582 38.6899 138.582 39.1419L138.574 48.7319C138.57 52.2585 134.545 55.4639 127.246 57.7577C127.014 57.8324 126.782 57.9034 126.547 57.9707C119.629 60.0366 110.95 61.0602 102.28 61.0602V61.0677ZM67.3566 42.8329V48.6385C67.3491 51.2461 70.8287 53.906 76.9021 55.9309C90.1215 60.3392 112.18 60.5522 126.08 56.4053C126.308 56.3381 126.532 56.2671 126.756 56.1961C133.222 54.1638 136.93 51.4441 136.933 48.7356V42.9338C135.121 44.9437 131.832 46.7369 127.257 48.179C127.025 48.2537 126.794 48.3247 126.558 48.3919C112.146 52.6919 90.1103 52.4789 76.3901 47.9025C72.1518 46.4903 69.087 44.7532 67.3566 42.8367V42.8329Z" fill="black"/>
<path d="M77.9822 30.5905C77.7505 30.6615 77.5188 30.7287 77.2908 30.8034C63.208 35.2342 62.9202 42.5378 76.6479 47.1217C90.1552 51.6272 112.199 51.8177 126.323 47.6036C126.554 47.5327 126.782 47.4654 127.01 47.3944C141.093 42.9637 141.381 35.6601 127.649 31.0762C114.142 26.5707 92.1024 26.3802 77.9785 30.5942L77.9822 30.5905Z" fill="#019AED"/>
<path d="M102.287 51.4815C92.8985 51.4815 83.5174 50.2822 76.3863 47.9025C69.4757 45.5975 65.6822 42.4407 65.7121 39.0149C65.742 35.5032 69.7673 32.309 77.0404 30.0189C77.2721 29.9442 77.5038 29.8732 77.743 29.8022C92.1547 25.5023 114.191 25.7189 127.907 30.2916C134.818 32.5967 138.611 35.7535 138.582 39.1793C138.552 42.691 134.53 45.8851 127.253 48.1752C127.022 48.2499 126.79 48.3209 126.554 48.3882C119.636 50.4541 110.958 51.4777 102.287 51.4777V51.4815ZM78.2177 31.3788C77.9897 31.446 77.7654 31.517 77.5375 31.588C71.0903 33.6166 67.3828 36.3288 67.3566 39.0298C67.3342 41.6449 70.8138 44.3086 76.9058 46.3446C90.1253 50.7567 112.184 50.9659 126.083 46.8191C126.311 46.7519 126.536 46.6809 126.76 46.6099C133.203 44.5813 136.915 41.8691 136.937 39.168C136.96 36.5529 133.48 33.8855 127.388 31.8532C114.172 27.4449 92.1136 27.232 78.214 31.3788H78.2177Z" fill="black"/>
<path d="M94.0795 44.6149L94.5579 42.549C96.0529 42.62 98.7439 42.8068 102.601 42.4818C106.081 42.1866 106.944 41.615 106.679 41.1331C106.585 40.9687 106.346 40.8342 105.931 40.7259C104.918 40.4532 102.874 40.3187 99.4204 40.2029C95.7277 40.102 93.1264 39.8405 91.3848 39.3735C89.9346 38.985 89.0788 38.4508 88.6863 37.7522C87.8379 36.2279 90.4915 34.6402 96.464 33.7809L95.4885 32.0325L100.743 31.5917L101.648 33.2206C105.266 32.9702 108.925 32.9852 111.171 33.1907L110.678 35.3313C108.203 35.1258 104.843 35.0324 101.36 35.3238C98.3028 35.5816 96.4229 36.1345 96.8004 36.8182C96.9237 37.0423 97.2377 37.2217 97.7684 37.3636C98.7738 37.6326 100.56 37.7708 103.319 37.8306C107.045 37.9128 110.136 38.1444 112.184 38.6936C113.477 39.041 114.352 39.5117 114.71 40.1543C115.551 41.6599 112.883 43.1243 107.348 43.9649L108.252 45.5937L103.001 46.0346L102.164 44.5253C98.542 44.7756 95.9968 44.7382 94.0758 44.6149H94.0795Z" fill="#019AED"/>
<path d="M9.71734 171.821L9.70987 181.411C9.70613 184.318 13.0661 187.228 19.8197 189.484C33.3269 193.99 55.3705 194.18 69.4944 189.966C69.7262 189.895 69.9541 189.828 70.1821 189.757C77.3356 187.504 80.9311 184.512 80.9348 181.512L80.9423 171.922C80.9386 174.922 77.3431 177.914 70.1896 180.167C69.9616 180.238 69.7336 180.309 69.5019 180.376C55.3817 184.59 33.3382 184.4 19.8272 179.894C13.0736 177.642 9.70987 174.728 9.71734 171.821Z" fill="#019AED"/>
<path d="M21.1615 163.363C20.9298 163.434 20.698 163.501 20.47 163.576C6.38726 168.007 6.09947 175.31 19.8272 179.894C33.3344 184.4 55.378 184.59 69.5019 180.376C69.7336 180.305 69.9616 180.238 70.1896 180.167C84.2724 175.736 84.5602 168.433 70.8287 163.849C57.3215 159.343 35.2816 159.153 21.1577 163.367L21.1615 163.363Z" fill="#71D4FF"/>
<path d="M7.7477 158.521L7.74022 168.111C7.73648 171.018 11.0965 173.928 17.8501 176.185C31.3573 180.69 53.4009 180.881 67.5248 176.667C67.7565 176.596 67.9845 176.528 68.2125 176.457C75.366 174.205 78.9614 171.212 78.9652 168.212L78.9727 158.622C78.9689 161.622 75.3735 164.615 68.22 166.867C67.992 166.938 67.764 167.009 67.5323 167.077C53.4121 171.291 31.3685 171.1 17.8576 166.595C11.1039 164.342 7.74022 161.428 7.7477 158.521Z" fill="#019AED"/>
<path d="M19.1918 150.064C18.9601 150.134 18.7284 150.202 18.5004 150.276C4.41761 154.707 4.12983 162.011 17.8576 166.595C31.3648 171.1 53.4084 171.291 67.5323 167.077C67.764 167.006 67.992 166.938 68.22 166.867C82.3027 162.437 82.5905 155.133 68.8591 150.549C55.3518 146.044 33.312 145.853 19.1881 150.067L19.1918 150.064Z" fill="#71D4FF"/>
<path d="M13.3913 145.121L13.3838 154.711C13.3801 157.617 16.74 160.528 23.4937 162.784C37.0009 167.29 59.0445 167.48 73.1684 163.266C73.4001 163.195 73.6281 163.128 73.8561 163.057C81.0096 160.804 84.605 157.812 84.6088 154.812L84.6162 145.222C84.6125 148.222 81.0171 151.214 73.8635 153.467C73.6356 153.538 73.4076 153.609 73.1758 153.676C59.0557 157.89 37.0121 157.7 23.5011 153.194C16.7475 150.941 13.3838 148.027 13.3913 145.121Z" fill="#019AED"/>
<path d="M24.8354 136.663C24.6037 136.734 24.372 136.801 24.144 136.876C10.0612 141.307 9.77341 148.61 23.5011 153.194C37.0083 157.7 59.0519 157.89 73.1758 153.676C73.4076 153.605 73.6356 153.538 73.8635 153.467C87.9463 149.036 88.2341 141.733 74.5026 137.149C60.9954 132.643 38.9556 132.453 24.8317 136.667L24.8354 136.663Z" fill="#71D4FF"/>
<path d="M6.39473 134.081L6.38726 143.671C6.38352 146.578 9.7435 149.488 16.4971 151.745C30.0043 156.25 52.0479 156.441 66.1718 152.227C66.4035 152.156 66.6315 152.088 66.8595 152.017C74.013 149.765 77.6085 146.772 77.6122 143.772L77.6197 134.182C77.616 137.182 74.0205 140.175 66.867 142.427C66.639 142.498 66.411 142.569 66.1793 142.637C52.0591 146.851 30.0155 146.66 16.5046 142.155C9.75098 139.902 6.38726 136.988 6.39473 134.081Z" fill="#019AED"/>
<path d="M17.8389 125.623C17.6071 125.694 17.3754 125.762 17.1474 125.836C3.06465 130.267 2.77686 137.571 16.5046 142.155C30.0118 146.66 52.0554 146.851 66.1793 142.637C66.411 142.566 66.639 142.498 66.867 142.427C80.9498 137.997 81.2376 130.693 67.5061 126.109C53.9989 121.604 31.959 121.413 17.8351 125.627L17.8389 125.623Z" fill="#71D4FF"/>
<path d="M14.6695 123.147L14.662 132.737C14.6583 135.643 18.0183 138.553 24.7719 140.81C38.2791 145.315 60.3227 145.506 74.4466 141.292C74.6783 141.221 74.9063 141.153 75.1343 141.082C82.2878 138.83 85.8832 135.837 85.887 132.837L85.8944 123.247C85.8907 126.247 82.2953 129.24 75.1417 131.493C74.9138 131.563 74.6858 131.634 74.4541 131.702C60.3339 135.916 38.2903 135.725 24.7793 131.22C18.0257 128.967 14.662 126.053 14.6695 123.147Z" fill="#019AED"/>
<path d="M26.1136 114.689C25.8819 114.76 25.6502 114.827 25.4222 114.902C11.3394 119.332 11.0516 126.636 24.7793 131.22C38.2866 135.725 60.3302 135.916 74.4541 131.702C74.6858 131.631 74.9138 131.563 75.1417 131.493C89.2245 127.062 89.5123 119.758 75.7809 115.174C62.2736 110.669 40.2338 110.478 26.1099 114.692L26.1136 114.689Z" fill="#71D4FF"/>
<path d="M8.64469 110.822L8.63721 120.412C8.63348 123.318 11.9935 126.229 18.7471 128.485C32.2543 132.991 54.2979 133.181 68.4218 128.967C68.6535 128.896 68.8815 128.829 69.1095 128.758C76.263 126.505 79.8584 123.513 79.8622 120.513L79.8697 110.923C79.8659 113.923 76.2705 116.915 69.117 119.168C68.889 119.239 68.661 119.31 68.4293 119.377C54.3091 123.591 32.2655 123.401 18.7545 118.895C12.0009 116.642 8.63721 113.728 8.64469 110.822Z" fill="#019AED"/>
<path d="M44.3898 132.841C35.0013 132.841 25.6203 131.642 18.4892 129.262C11.601 126.965 7.81123 123.819 7.81497 120.408L7.82245 110.826C7.82245 110.366 8.19245 110 8.64469 110C9.09692 110 9.46693 110.37 9.46693 110.822C9.46693 113.43 12.9428 116.09 19.0162 118.114C32.2356 122.523 54.2941 122.736 68.1938 118.589C68.4218 118.522 68.646 118.451 68.8703 118.38C75.3361 116.347 79.0437 113.628 79.0474 110.919C79.0474 110.467 79.4174 110.097 79.8696 110.097C80.3219 110.097 80.6919 110.467 80.6919 110.919L80.6844 120.509C80.6807 124.036 76.6554 127.241 69.3561 129.535C69.1244 129.61 68.8927 129.681 68.6572 129.748C61.7392 131.814 53.0608 132.837 44.3898 132.837V132.841ZM9.46319 114.606V120.412C9.45572 123.02 12.9353 125.68 19.0087 127.704C32.2281 132.113 54.2867 132.329 68.1863 128.179C68.4143 128.112 68.6385 128.041 68.8628 127.973C75.3286 125.941 79.0362 123.221 79.0399 120.513V114.711C77.2273 116.721 73.9383 118.514 69.3636 119.956C69.1319 120.027 68.9002 120.102 68.6647 120.169C54.2493 124.469 32.2132 124.256 18.4967 119.68C14.2584 118.268 11.1936 116.53 9.46319 114.614V114.606Z" fill="black"/>
<path d="M20.0888 102.364C19.8571 102.435 19.6254 102.502 19.3974 102.577C5.3146 107.008 5.02682 114.311 18.7545 118.895C32.2618 123.401 54.3054 123.591 68.4293 119.377C68.661 119.306 68.889 119.239 69.117 119.168C83.1997 114.737 83.4875 107.434 69.7561 102.85C56.2488 98.3442 34.209 98.1536 20.0851 102.368L20.0888 102.364Z" fill="#019AED"/>
<path d="M44.3973 123.251C35.0088 123.251 25.6278 122.052 18.4967 119.672C11.5861 117.367 7.79255 114.21 7.82245 110.788C7.85235 107.277 11.8776 104.082 19.1507 101.792C19.3824 101.718 19.6142 101.647 19.8534 101.576C34.265 97.2757 56.3012 97.4924 70.0177 102.065C76.9283 104.37 80.7218 107.527 80.6919 110.953C80.662 114.464 76.6405 117.659 69.3636 119.945C69.1319 120.016 68.9002 120.091 68.6647 120.158C61.7429 122.224 53.0683 123.247 44.3973 123.247V123.251ZM44.0909 100.175C35.5395 100.175 26.9919 101.161 20.3243 103.152C20.0963 103.219 19.872 103.29 19.6441 103.361C13.1969 105.39 9.48936 108.102 9.46319 110.803C9.44077 113.418 12.9204 116.082 19.0124 118.114C32.2319 122.523 54.2904 122.736 68.1901 118.589C68.418 118.522 68.6423 118.451 68.8665 118.38C75.3099 116.351 79.0212 113.639 79.0437 110.938C79.0661 108.323 75.5865 105.655 69.4944 103.623C62.6212 101.329 53.3523 100.171 44.0871 100.171L44.0909 100.175Z" fill="black"/>
<path d="M35.5171 117.49L37.2251 115.996C35.6778 115.794 34.5155 115.563 33.611 115.32C32.9868 115.152 32.486 114.98 32.0749 114.812L35.4274 113.019C35.8572 113.176 36.4403 113.411 37.3111 113.643C38.1072 113.855 39.1424 114.068 40.5178 114.218C43.1116 114.498 44.4945 114.113 45.0402 113.639C45.6793 113.078 44.6888 112.57 41.9156 111.663C37.9801 110.437 37.1317 109.298 38.8808 107.77C40.6075 106.26 44.5991 105.241 49.5812 105.397L51.5621 103.664L55.4752 104.086L53.6326 105.7C55.1052 105.891 56.4656 106.16 57.5644 106.455C58.4166 106.683 59.1117 106.925 59.5901 107.161L56.118 109.018C55.5013 108.73 54.7053 108.435 53.741 108.177C52.7767 107.919 51.6405 107.695 50.3436 107.557C48.0675 107.31 46.0829 107.516 45.3055 108.196C44.5692 108.842 45.3803 109.384 47.8507 110.127C51.4238 111.199 53.3672 112.361 51.4873 114.009C49.7755 115.503 45.9633 116.407 41.2803 116.302L39.4377 117.916L35.5246 117.494L35.5171 117.49Z" fill="#019AED"/>
<path d="M105.942 167.697L105.935 176.835C105.931 179.603 109.134 182.379 115.57 184.527C128.442 188.823 149.446 189.002 162.905 184.986C163.126 184.919 163.342 184.852 163.563 184.785C170.38 182.64 173.803 179.786 173.807 176.928L173.815 167.79C173.811 170.648 170.387 173.502 163.57 175.647C163.354 175.714 163.137 175.781 162.912 175.848C149.458 179.865 128.449 179.681 115.577 175.389C109.142 173.241 105.938 170.465 105.942 167.697Z" fill="#019AED"/>
<path d="M116.848 159.639C116.628 159.706 116.407 159.773 116.19 159.84C102.769 164.062 102.496 171.022 115.577 175.389C128.449 179.685 149.454 179.865 162.912 175.848C163.133 175.781 163.35 175.714 163.57 175.647C176.988 171.425 177.264 164.465 164.179 160.098C151.308 155.806 130.307 155.622 116.848 159.639Z" fill="#71D4FF"/>
<path d="M113.238 156.904L113.23 166.042C113.227 168.81 116.43 171.586 122.865 173.734C135.737 178.03 156.742 178.21 170.201 174.193C170.421 174.126 170.638 174.059 170.858 173.992C177.675 171.847 181.099 168.993 181.103 166.135L181.11 156.997C181.106 159.855 177.683 162.709 170.866 164.854C170.649 164.921 170.432 164.988 170.208 165.056C156.753 169.072 135.745 168.889 122.873 164.596C116.437 162.448 113.234 159.672 113.238 156.904Z" fill="#019AED"/>
<path d="M124.144 148.846C123.923 148.913 123.703 148.98 123.486 149.047C110.065 153.269 109.792 160.229 122.873 164.596C135.745 168.892 156.749 169.072 170.208 165.056C170.429 164.988 170.645 164.921 170.866 164.854C184.283 160.632 184.56 153.672 171.475 149.305C158.603 145.013 137.602 144.83 124.144 148.846Z" fill="#71D4FF"/>
<path d="M107.131 143.735L107.123 152.873C107.12 155.641 110.323 158.417 116.758 160.565C129.63 164.861 150.635 165.041 164.094 161.025C164.314 160.957 164.531 160.89 164.751 160.823C171.568 158.678 174.992 155.824 174.996 152.966L175.003 143.828C174.999 146.686 171.576 149.54 164.759 151.685C164.542 151.752 164.325 151.819 164.101 151.887C150.646 155.903 129.638 155.72 116.766 151.427C110.33 149.279 107.127 146.503 107.131 143.735Z" fill="#019AED"/>
<path d="M141.194 164.753C132.243 164.753 123.299 163.61 116.501 161.338C109.919 159.142 106.297 156.134 106.305 152.865L106.312 143.735C106.312 143.275 106.682 142.909 107.134 142.909C107.587 142.909 107.957 143.279 107.957 143.731C107.957 146.197 111.261 148.719 117.031 150.643C129.619 154.842 150.631 155.047 163.869 151.095C164.086 151.031 164.299 150.964 164.516 150.897C170.657 148.965 174.185 146.387 174.185 143.821C174.185 143.369 174.555 142.999 175.007 142.999C175.459 142.999 175.829 143.369 175.829 143.821L175.822 152.959C175.818 156.336 171.972 159.403 165.002 161.6C164.781 161.671 164.561 161.738 164.333 161.805C157.736 163.774 149.461 164.749 141.198 164.749L141.194 164.753ZM107.949 147.437V152.869C107.942 155.339 111.249 157.857 117.02 159.781C129.608 163.98 150.62 164.185 163.858 160.233C164.075 160.169 164.288 160.102 164.505 160.035C170.645 158.103 174.173 155.525 174.177 152.959V147.527C172.428 149.417 169.315 151.106 165.005 152.462C164.785 152.533 164.564 152.6 164.336 152.667C150.598 156.769 129.585 156.564 116.508 152.2C112.52 150.87 109.616 149.238 107.953 147.433L107.949 147.437Z" fill="black"/>
<path d="M118.037 135.677C117.816 135.744 117.596 135.811 117.379 135.878C103.958 140.1 103.685 147.06 116.766 151.427C129.638 155.723 150.642 155.903 164.101 151.887C164.322 151.819 164.538 151.752 164.759 151.685C178.176 147.463 178.453 140.503 165.368 136.136C152.496 131.844 131.495 131.661 118.037 135.677Z" fill="#019AED"/>
<path d="M141.198 155.619C132.247 155.619 123.303 154.476 116.504 152.204C109.9 150 106.279 146.981 106.309 143.701C106.338 140.339 110.181 137.279 117.132 135.094C117.353 135.023 117.577 134.956 117.801 134.888C131.54 130.786 152.548 130.996 165.626 135.355C172.23 137.56 175.852 140.578 175.822 143.858C175.792 147.221 171.95 150.28 165.002 152.466C164.781 152.537 164.561 152.604 164.333 152.671C157.736 154.64 149.461 155.615 141.198 155.615V155.619ZM118.272 136.461C118.055 136.525 117.839 136.592 117.626 136.659C111.5 138.587 107.975 141.157 107.953 143.713C107.931 146.186 111.238 148.711 117.028 150.643C129.615 154.842 150.627 155.047 163.866 151.095C164.082 151.031 164.295 150.964 164.512 150.897C170.634 148.969 174.162 146.399 174.181 143.843C174.203 141.37 170.896 138.845 165.106 136.913C152.519 132.714 131.51 132.512 118.272 136.461Z" fill="black"/>
<path d="M122.17 147.602L120.997 146.189L125.078 145.618C124.417 144.632 124.529 143.892 124.876 143.313L130.467 142.995C130.269 143.44 129.75 144.254 130.61 145.293C130.965 145.722 131.484 145.98 132.067 146.115C132.755 146.275 133.528 146.264 134.231 146.167C135.764 145.95 136.317 145.311 136.788 143.877C137.311 141.889 139.292 140.84 143.466 140.257C146.202 139.872 149.005 139.924 151.255 140.451C152.399 140.716 153.404 141.105 154.182 141.62L158.913 140.959L160.087 142.371L155.677 142.988C156.338 143.974 156.278 145.028 155.714 145.719L149.929 146.047C150.493 145.293 150.762 144.307 149.985 143.369C149.63 142.939 149.054 142.622 148.325 142.45C147.652 142.293 146.849 142.263 145.963 142.386C144.199 142.633 143.47 143.249 143.194 144.478C142.801 146.253 141.355 147.631 136.855 148.263C134.153 148.64 131.514 148.573 129.387 148.08C128.296 147.826 127.343 147.46 126.581 146.985L122.174 147.602H122.17Z" fill="#019AED"/>
<path d="M187.998 122.276C187.636 122.276 187.299 122.033 187.202 121.663C187.086 121.226 187.348 120.774 187.789 120.659C188.679 120.423 189.426 119.855 189.89 119.06C190.353 118.264 190.48 117.334 190.245 116.444C190.009 115.552 189.441 114.804 188.645 114.341C187.849 113.878 186.918 113.751 186.029 113.982C184.19 114.464 183.087 116.359 183.569 118.197C183.685 118.634 183.424 119.086 182.983 119.202C182.545 119.317 182.093 119.056 181.977 118.615C181.263 115.899 182.893 113.108 185.606 112.395C186.922 112.047 188.294 112.234 189.471 112.922C190.645 113.609 191.485 114.711 191.829 116.026C192.177 117.341 191.99 118.712 191.302 119.889C190.618 121.066 189.516 121.903 188.196 122.246C188.125 122.265 188.054 122.272 187.987 122.272L187.998 122.276Z" fill="#019AED"/>
<path d="M179.514 97.6754C179.372 97.6754 179.23 97.6381 179.099 97.5634L176.128 95.8187C175.736 95.5908 175.605 95.0865 175.837 94.6942C176.065 94.302 176.569 94.1712 176.962 94.4028L179.933 96.1475C180.325 96.3754 180.456 96.8797 180.224 97.272C180.071 97.5335 179.798 97.6792 179.514 97.6792V97.6754Z" fill="#019AED"/>
<path d="M169.113 91.5673C168.971 91.5673 168.829 91.53 168.698 91.4552L165.727 89.7106C165.334 89.479 165.204 88.9784 165.435 88.5861C165.667 88.1938 166.168 88.0631 166.56 88.2947L169.532 90.0393C169.924 90.271 170.055 90.7716 169.823 91.1638C169.67 91.4253 169.397 91.571 169.113 91.571V91.5673Z" fill="#019AED"/>
<path d="M174.988 90.0207C174.85 90.0207 174.708 89.9833 174.577 89.9086C174.185 89.6807 174.05 89.1801 174.278 88.7841L176.005 85.8029C176.233 85.4106 176.734 85.2761 177.13 85.504C177.522 85.7319 177.657 86.2325 177.429 86.6248L175.702 89.606C175.549 89.8675 175.272 90.0169 174.992 90.0169L174.988 90.0207Z" fill="#019AED"/>
<path d="M168.937 100.455C168.799 100.455 168.657 100.418 168.526 100.343C168.134 100.115 167.999 99.6144 168.227 99.2184L169.954 96.2371C170.182 95.8449 170.683 95.7104 171.079 95.9383C171.471 96.1662 171.606 96.6668 171.378 97.0628L169.651 100.044C169.498 100.305 169.221 100.455 168.941 100.455H168.937Z" fill="#019AED"/>
<path d="M160.416 120.363C159.029 120.363 157.665 119.747 156.779 118.578C156.058 117.625 155.751 116.448 155.923 115.268C156.099 114.065 156.738 113.004 157.729 112.275C159.747 110.792 162.606 111.192 164.105 113.164C164.826 114.117 165.133 115.294 164.961 116.474C164.785 117.677 164.146 118.738 163.155 119.467C162.333 120.072 161.369 120.363 160.416 120.363ZM160.472 113.019C159.859 113.019 159.235 113.209 158.704 113.598C158.072 114.061 157.661 114.737 157.553 115.503C157.445 116.246 157.635 116.986 158.091 117.588C159.048 118.85 160.883 119.101 162.184 118.144C162.815 117.681 163.226 117.005 163.335 116.239C163.443 115.496 163.253 114.756 162.797 114.154C162.232 113.411 161.361 113.015 160.472 113.015V113.019Z" fill="#019AED"/>
<path d="M14.1163 70.497C13.7725 70.497 13.4511 70.2803 13.3352 69.9366C11.1114 63.2756 9.49309 56.3456 8.52883 49.3296C6.98525 38.1071 7.11606 26.8023 8.91379 15.7292C8.9848 15.2809 9.40713 14.9783 9.85563 15.0493C10.3041 15.1203 10.6069 15.5424 10.5358 15.9907C8.76429 26.9032 8.63721 38.0473 10.1584 49.1055C11.1077 56.0205 12.7036 62.8534 14.8937 69.4174C15.0358 69.847 14.804 70.314 14.3742 70.4559C14.2883 70.4858 14.1986 70.497 14.1126 70.497H14.1163Z" fill="#019AED"/>
<path d="M4.05508 6.38209C3.99154 6.38209 3.928 6.37462 3.86447 6.35967C3.42344 6.25507 3.15061 5.8105 3.25526 5.36967C3.63648 3.77819 4.05508 2.17177 4.49984 0.598968C4.62317 0.161871 5.07914 -0.0921676 5.51269 0.031116C5.94997 0.1544 6.20412 0.610175 6.08079 1.04354C5.63976 2.59766 5.22864 4.18166 4.8549 5.75073C4.7652 6.12805 4.42882 6.38209 4.05508 6.38209Z" fill="#019AED"/>
<path d="M7.99437 74.4533C7.658 74.4533 7.34405 74.2478 7.22071 73.9116C4.33165 65.9841 2.27978 57.6942 1.12116 49.2698C-0.900808 34.5356 -0.186952 19.764 3.25526 5.36593C3.35991 4.9251 3.80467 4.65238 4.24569 4.75699C4.68671 4.86159 4.95954 5.30616 4.8549 5.74699C1.46127 19.947 0.754891 34.5132 2.7507 49.0457C3.89437 57.3542 5.91634 65.5321 8.76429 73.3475C8.92126 73.7734 8.70075 74.2441 8.27468 74.401C8.18124 74.4346 8.08781 74.4496 7.99437 74.4496V74.4533Z" fill="#019AED"/>
<path d="M16.5158 86.3408C15.6113 86.3408 14.7143 86.1204 13.8921 85.6833C12.5653 84.981 11.5936 83.8042 11.1525 82.3696C10.2406 79.4071 11.9112 76.2577 14.8751 75.3499C16.3102 74.9091 17.8314 75.0548 19.1582 75.7571C20.485 76.4595 21.4567 77.6363 21.8978 79.0708C22.8097 82.0334 21.139 85.1827 18.1752 86.0905C17.6296 86.2586 17.0727 86.3408 16.5158 86.3408ZM16.527 76.7434C16.1346 76.7434 15.7384 76.8032 15.3534 76.919C13.2567 77.5615 12.0757 79.7919 12.7185 81.8877C13.0325 82.9038 13.7202 83.7369 14.6583 84.2338C15.5964 84.7307 16.6728 84.8315 17.6894 84.5215C19.7861 83.8789 20.9671 81.6486 20.3243 79.5528C20.0103 78.5366 19.3226 77.7035 18.3845 77.2066C17.8015 76.9003 17.1661 76.7434 16.527 76.7434Z" fill="#019AED"/>
<path d="M17.5885 11.758C17.5324 11.758 17.4726 11.7505 17.4165 11.7393L8.7456 9.86765C8.45408 9.80414 8.21862 9.58746 8.13266 9.30354C8.04669 9.01961 8.11771 8.70953 8.327 8.49285L14.733 1.82807C14.9386 1.61512 15.2451 1.5292 15.5328 1.60018C15.8206 1.6749 16.0449 1.89905 16.1196 2.18671L18.3845 10.7269C18.4593 11.0034 18.3845 11.2985 18.1827 11.504C18.0257 11.6683 17.809 11.758 17.5885 11.758ZM10.5284 8.57131L16.4485 9.84897L14.9012 4.01729L10.5246 8.56757L10.5284 8.57131Z" fill="#019AED"/>
</svg>
