<svg width="241" height="188" viewBox="0 0 241 188" fill="none" xmlns="http://www.w3.org/2000/svg">
<path d="M100.452 10.1607C100.015 10.8085 101.311 12.9914 103.892 12.9914C106.473 12.9914 107.762 12.5568 108.838 15.3859C109.912 18.2166 108.407 27.7961 109.912 31.2796C111.417 34.7631 113.997 36.9394 115.932 34.9812C117.867 33.0213 117.652 27.7961 120.016 26.4906C122.381 25.1852 130.98 19.96 131.41 15.6056C131.841 11.2513 128.831 7.98593 121.306 7.11507C113.781 6.2442 103.677 5.37333 100.454 10.1623L100.452 10.1607Z" fill="#019AED"/>
<path d="M65.9609 106.742C64.8378 107.31 64.1646 108.399 64.2197 109.565C64.3896 113.216 62.862 122.315 59.653 125.223C55.567 128.924 57.0719 135.593 57.0088 138.286C56.8793 143.753 57.4619 146.185 63.9527 148.798C70.4418 151.41 72.984 151.559 73.4646 156.784C73.9453 162.009 74.6929 182.194 76.617 187.419C78.5394 192.644 82.6255 201.135 84.7891 203.094C86.9526 205.054 91.9999 206.142 88.8751 198.74C85.7503 191.338 83.8278 187.855 87.4333 183.717C91.0387 179.581 97.0472 170.001 97.5278 166.3C98.0084 162.598 100.172 160.422 102.094 159.986C104.017 159.551 108.103 158.244 109.305 156.938C110.508 155.633 108.103 151.931 107.383 148.666C106.661 145.401 106.661 143.441 112.671 140.828C118.68 138.216 115.796 130.814 107.624 128.854C99.4519 126.894 94.4046 122.758 95.3658 118.622C96.3271 114.486 89.838 114.92 85.9914 112.962C82.1449 111.002 82.2614 107.926 77.9811 106.459C72.1959 104.476 68.1342 105.647 65.9625 106.746L65.9609 106.742Z" fill="#019AED"/>
<path d="M198.184 102.178C196.371 99.4254 196.598 95.0678 201.127 89.1068C204.684 84.4237 199.58 79.7405 197.226 77.9467C196.794 77.6179 196.988 76.9326 197.525 76.8723C200.443 76.537 207.209 77.53 210.185 92.7775C214.034 112.5 215.619 105.619 217.658 103.326C219.695 101.032 215.882 96.7493 219.695 92.3184C222.098 89.5252 223.318 85.4508 223.938 82.1285C216.279 50.8473 195.107 24.9687 167.05 11.2236C167.091 14.6582 166.274 26.6209 152.439 21.687C152.439 21.687 143.835 17.559 145.873 34.2991C147.91 51.0393 154.93 33.1532 156.289 32.4646C157.648 31.7761 161.272 30.8596 159.686 42.0963C159.686 42.0963 159.459 45.9948 152.439 45.3079C145.419 44.6193 144.06 48.0588 144.06 49.895C144.06 51.7311 144.74 56.5445 140.89 59.9857C137.04 63.4252 138.173 72.3699 143.381 69.3878C148.59 66.4057 152.213 57.0036 156.967 56.0871C161.723 55.169 166.024 61.3611 170.554 59.7561C175.083 58.1511 173.044 50.354 175.31 50.354C177.575 50.354 182.33 54.9411 181.65 58.3807C180.97 61.8202 173.951 63.4252 175.763 67.5533C177.575 71.6813 181.424 70.3042 182.556 73.0568C183.689 75.8078 176.896 79.0194 171.46 75.5799C166.026 72.1404 165.12 77.1849 162.403 74.8913C159.686 72.5978 159.459 67.7828 155.61 69.3878C151.76 70.9928 149.496 74.2028 144.513 76.4963C139.531 78.7899 135.456 81.7704 135.456 84.982C135.456 88.1936 137.268 91.6331 136.362 96.6777C135.456 101.722 133.872 115.482 150.175 112.731C166.479 109.978 164.442 118.464 164.442 119.38C164.442 120.297 164.215 132.222 165.801 134.288C167.387 136.352 171.009 142.314 165.801 150.111C160.592 157.909 162.631 175.337 167.387 173.044C172.143 170.75 176.897 161.807 182.786 157.22C188.673 152.633 196.826 132.683 193.429 126.491C190.033 120.299 198.185 115.254 199.316 111.126C200.449 106.998 199.996 104.934 198.184 102.183V102.178Z" fill="#71D4FF"/>
<path d="M44.817 32.7316C44.9125 36.552 44.5694 41.6568 42.1308 45.5537C34.7743 57.3096 35.0105 63.1892 34.2985 74.9451C33.5865 86.701 49.7802 107.426 53.8144 109.604C57.8487 111.78 58.4717 106.602 58.4717 102.466C58.4717 98.3299 56.7483 93.3684 54.3743 88.5778C52.0004 83.7888 52.0004 80.74 52.7124 78.7801C53.4244 76.8203 56.2725 76.1675 58.1707 78.1274C60.0689 80.0872 64.6323 81.8257 66.825 80.6C69.5194 79.0943 68.4708 73.2017 69.4207 71.2435C70.3706 69.2836 75.591 67.9781 77.7271 63.8419C79.8632 59.7057 83.4233 57.964 87.6938 56.0041C91.9659 54.0442 95.7623 53.1734 96.4743 51.8679C97.1864 50.5608 96.2365 47.5135 97.4242 44.0301C98.6104 40.5466 101.459 36.4104 100.272 34.6687C99.0862 32.9269 95.5261 30.0962 88.8816 34.4505C82.2371 38.8049 80.5752 38.8049 78.677 35.5395C76.7788 32.2742 80.8131 23.7836 89.1195 23.7836C97.4259 23.7836 99.0862 21.171 99.3241 19.2112C99.5619 17.2513 96.9501 15.075 94.1036 14.6387C91.2555 14.2025 90.7814 15.7277 78.9149 20.082C70.9952 22.9876 63.6371 21.3582 59.8779 20.5834C54.486 24.2378 49.4452 28.3024 44.817 32.7332V32.7316Z" fill="#019AED"/>
<path d="M222.057 127.469C220.452 127.108 220.81 131.079 218.671 131.802C216.531 132.525 215.64 133.607 216.175 137.581C216.711 141.553 215.819 146.789 213.68 148.775C211.541 150.761 208.51 152.205 208.332 157.08C208.154 161.955 203.695 166.65 201.022 168.274C198.349 169.899 194.248 172.427 194.248 176.579C194.248 179.254 194.179 182.672 194.792 185.299C208.943 171.398 219.284 153.544 224.079 133.495C223.661 130.83 222.977 127.676 222.061 127.471L222.057 127.469Z" fill="#019AED"/>
<path d="M15.0334 117.753C14.7583 117.753 14.5237 117.539 14.4994 117.258C14.2486 114.23 14.1207 111.145 14.1207 108.092C14.1207 79.2196 25.2234 52.0762 45.3834 31.6605C65.5434 11.2448 92.3495 0 120.861 0C146.083 0 170.559 9.0733 189.782 25.5498C208.78 41.8326 221.625 64.3905 225.953 89.0645C226.004 89.3575 225.809 89.6375 225.517 89.6896C225.228 89.7417 224.948 89.5463 224.896 89.2517C215.936 38.1603 172.183 1.07922 120.861 1.07922C62.595 1.07922 15.1936 49.0844 15.1936 108.093C15.1936 111.116 15.3198 114.17 15.5674 117.17C15.5917 117.466 15.3732 117.727 15.0771 117.753C15.0625 117.753 15.0464 117.754 15.0318 117.754L15.0334 117.753Z" fill="#019AED"/>
<path d="M42.8541 186.034C42.5628 186.034 42.3233 185.799 42.3185 185.505C42.3136 185.207 42.5483 184.961 42.8444 184.956C44.2248 184.932 45.6585 184.876 47.1101 184.795C47.403 184.78 47.6586 185.005 47.6748 185.303C47.691 185.601 47.4661 185.854 47.1699 185.871C45.7054 185.954 44.2571 186.009 42.8638 186.034C42.8606 186.034 42.8573 186.034 42.8541 186.034ZM38.5658 186.017C38.5658 186.017 38.5561 186.017 38.5512 186.017C37.0689 185.977 35.619 185.898 34.2402 185.783C33.9457 185.758 33.7256 185.498 33.7499 185.202C33.7742 184.905 34.0299 184.686 34.3292 184.709C35.6886 184.821 37.1191 184.899 38.582 184.94C38.8781 184.948 39.1111 185.195 39.103 185.493C39.0949 185.786 38.8571 186.017 38.5674 186.017H38.5658ZM51.4178 185.555C51.1427 185.555 50.9097 185.343 50.8838 185.063C50.8579 184.767 51.0747 184.505 51.3693 184.477C52.7512 184.352 54.1818 184.202 55.6187 184.03C55.9133 183.994 56.1803 184.206 56.2143 184.502C56.2499 184.798 56.0395 185.065 55.745 185.101C54.2966 185.275 52.8564 185.426 51.4631 185.552C51.4469 185.552 51.4308 185.553 51.4146 185.553L51.4178 185.555ZM30.0247 185.29C29.9972 185.29 29.9713 185.288 29.9438 185.283C28.4583 185.057 27.0261 184.777 25.6895 184.45C25.4014 184.38 25.225 184.088 25.2946 183.799C25.3642 183.509 25.6539 183.331 25.9419 183.401C27.2478 183.72 28.6492 183.994 30.104 184.217C30.3969 184.261 30.5976 184.536 30.5539 184.831C30.5134 185.098 30.2853 185.29 30.0247 185.29ZM59.9346 184.538C59.6724 184.538 59.4443 184.344 59.4054 184.075C59.3633 183.781 59.5656 183.507 59.8585 183.463C61.2421 183.26 62.6629 183.034 64.0821 182.791C64.375 182.744 64.6501 182.939 64.7003 183.232C64.7505 183.525 64.553 183.803 64.2617 183.854C62.8345 184.098 61.4039 184.324 60.0123 184.529C59.9864 184.533 59.9605 184.534 59.9346 184.534V184.538ZM21.7135 183.217C21.652 183.217 21.5889 183.206 21.5274 183.183C20.0888 182.646 18.7537 182.026 17.5595 181.341C17.3022 181.192 17.2132 180.864 17.3604 180.605C17.5077 180.346 17.8346 180.257 18.0919 180.405C19.2343 181.061 20.516 181.656 21.9012 182.174C22.1779 182.278 22.3203 182.588 22.2168 182.867C22.1358 183.086 21.9319 183.219 21.7135 183.219V183.217ZM68.3931 183.095C68.1406 183.095 67.9157 182.916 67.8672 182.658C67.8105 182.365 68.0015 182.083 68.2928 182.026C69.6683 181.761 71.0794 181.472 72.4872 181.171C72.7753 181.109 73.0617 181.295 73.1232 181.586C73.1847 181.878 73.0002 182.164 72.7105 182.226C71.2962 182.529 69.8786 182.817 68.4967 183.086C68.4627 183.092 68.4287 183.095 68.3947 183.095H68.3931ZM76.7836 181.302C76.5393 181.302 76.3192 181.134 76.2626 180.883C76.1962 180.593 76.3759 180.304 76.6639 180.235C78.0281 179.916 79.4278 179.578 80.8244 179.226C81.1141 179.153 81.4021 179.33 81.4749 179.618C81.5461 179.908 81.373 180.2 81.0849 180.273C79.6819 180.626 78.2757 180.968 76.9066 181.287C76.8662 181.297 76.8257 181.302 76.7853 181.302H76.7836ZM85.1062 179.207C84.87 179.207 84.6531 179.047 84.5884 178.806C84.5123 178.518 84.6823 178.223 84.9671 178.145C86.328 177.779 87.7164 177.393 89.0936 176.999C89.38 176.918 89.6745 177.084 89.7554 177.37C89.8363 177.657 89.6713 177.955 89.3865 178.036C88.0045 178.432 86.6096 178.819 85.2438 179.187C85.1969 179.2 85.1499 179.205 85.1046 179.205L85.1062 179.207ZM14.3602 178.889C14.2308 178.889 14.0997 178.842 13.9961 178.746C12.8747 177.702 11.9361 176.54 11.2079 175.288C11.0574 175.031 11.1432 174.701 11.3988 174.551C11.6545 174.4 11.983 174.486 12.1319 174.743C12.8083 175.904 13.6806 176.985 14.7243 177.955C14.9412 178.157 14.9541 178.499 14.7535 178.717C14.6483 178.832 14.5042 178.889 14.3602 178.889ZM93.3576 176.85C93.1262 176.85 92.9142 176.698 92.8446 176.465C92.7589 176.181 92.9207 175.879 93.2039 175.795C94.5535 175.388 95.9306 174.961 97.2964 174.527C97.578 174.437 97.8806 174.595 97.9696 174.878C98.0586 175.162 97.9016 175.466 97.62 175.555C96.2494 175.99 94.8674 176.418 93.513 176.827C93.4612 176.843 93.4094 176.85 93.3592 176.85H93.3576ZM101.539 174.255C101.314 174.255 101.104 174.112 101.03 173.885C100.937 173.602 101.09 173.298 101.371 173.203C102.719 172.756 104.085 172.292 105.428 171.825C105.708 171.727 106.012 171.877 106.109 172.158C106.206 172.44 106.058 172.746 105.778 172.844C104.43 173.311 103.059 173.776 101.706 174.226C101.649 174.243 101.593 174.253 101.538 174.253L101.539 174.255ZM10.1156 171.553C9.86962 171.553 9.64792 171.382 9.5929 171.13C9.35178 170.026 9.2288 168.859 9.2288 167.657C9.2288 167.343 9.23689 167.019 9.25469 166.697C9.26925 166.399 9.51684 166.166 9.81783 166.186C10.114 166.201 10.3405 166.454 10.326 166.752C10.3098 167.057 10.3017 167.361 10.3017 167.656C10.3017 168.779 10.415 169.868 10.6399 170.895C10.703 171.186 10.5201 171.473 10.2321 171.538C10.1933 171.546 10.1544 171.551 10.1156 171.551V171.553ZM109.65 171.44C109.43 171.44 109.224 171.304 109.145 171.084C109.045 170.804 109.19 170.495 109.469 170.394C110.799 169.914 112.152 169.415 113.49 168.912C113.767 168.808 114.076 168.95 114.179 169.23C114.283 169.508 114.142 169.819 113.864 169.923C112.522 170.426 111.165 170.928 109.83 171.409C109.77 171.431 109.708 171.442 109.648 171.442L109.65 171.44ZM117.688 168.426C117.473 168.426 117.27 168.294 117.188 168.081C117.081 167.802 117.218 167.491 117.494 167.384C118.822 166.866 120.164 166.336 121.479 165.807C121.754 165.696 122.067 165.831 122.177 166.106C122.287 166.383 122.152 166.697 121.879 166.808C120.56 167.338 119.214 167.872 117.882 168.39C117.819 168.414 117.753 168.426 117.689 168.426H117.688ZM125.653 165.219C125.442 165.219 125.243 165.094 125.158 164.885C125.044 164.61 125.174 164.294 125.447 164.18C126.764 163.632 128.093 163.07 129.396 162.51C129.669 162.393 129.983 162.52 130.1 162.794C130.216 163.067 130.09 163.384 129.818 163.502C128.511 164.063 127.179 164.626 125.858 165.177C125.79 165.204 125.722 165.217 125.653 165.217V165.219ZM10.4587 163.012C10.415 163.012 10.3697 163.007 10.326 162.995C10.0395 162.922 9.86638 162.628 9.9392 162.339C10.279 161.001 10.7467 159.603 11.3309 158.182C11.4442 157.907 11.7581 157.777 12.0316 157.889C12.3051 158.003 12.4361 158.319 12.3229 158.594C11.7581 159.968 11.3066 161.317 10.9781 162.606C10.9166 162.851 10.6982 163.012 10.4587 163.012ZM133.542 161.83C133.336 161.83 133.139 161.709 133.051 161.508C132.932 161.236 133.055 160.917 133.326 160.796C134.627 160.22 135.932 159.634 137.238 159.038C137.508 158.916 137.825 159.035 137.948 159.307C138.069 159.579 137.951 159.898 137.681 160.021C136.372 160.619 135.064 161.206 133.76 161.784C133.691 161.815 133.616 161.83 133.545 161.83H133.542ZM141.354 158.267C141.152 158.267 140.96 158.151 140.869 157.956C140.744 157.686 140.859 157.365 141.128 157.24L141.916 156.868C142.95 156.38 143.978 155.89 145 155.397C145.267 155.268 145.588 155.381 145.716 155.649C145.843 155.918 145.732 156.24 145.465 156.369C144.439 156.864 143.41 157.355 142.372 157.845L141.583 158.216C141.51 158.25 141.432 158.267 141.356 158.267H141.354ZM13.6757 155.037C13.5899 155.037 13.5026 155.016 13.4216 154.972C13.1611 154.83 13.064 154.503 13.2048 154.241C13.8586 153.024 14.603 151.764 15.4153 150.497C15.5755 150.247 15.9073 150.175 16.1565 150.336C16.4057 150.497 16.4769 150.831 16.315 151.082C15.5173 152.325 14.7874 153.561 14.1466 154.754C14.0495 154.935 13.865 155.037 13.6741 155.037H13.6757ZM149.088 154.533C148.891 154.533 148.7 154.422 148.607 154.231C148.476 153.964 148.585 153.641 148.85 153.509C150.137 152.871 151.413 152.228 152.68 151.58C152.944 151.445 153.268 151.55 153.401 151.816C153.535 152.081 153.43 152.407 153.164 152.54C151.892 153.19 150.612 153.834 149.323 154.474C149.247 154.511 149.166 154.529 149.086 154.529L149.088 154.533ZM156.739 150.626C156.546 150.626 156.359 150.52 156.263 150.336C156.126 150.072 156.228 149.747 156.491 149.609C157.75 148.948 159.024 148.27 160.278 147.593C160.539 147.452 160.864 147.551 161.005 147.813C161.144 148.075 161.047 148.402 160.786 148.544C159.529 149.223 158.25 149.902 156.988 150.564C156.909 150.605 156.825 150.626 156.741 150.626H156.739ZM18.3071 147.782C18.1971 147.782 18.0854 147.748 17.9899 147.676C17.752 147.499 17.7019 147.162 17.8766 146.923C18.1906 146.495 18.5126 146.065 18.8427 145.632C19.0224 145.396 19.3606 145.352 19.5952 145.533C19.8299 145.715 19.8735 146.053 19.6939 146.289C19.3687 146.716 19.0499 147.141 18.7408 147.562C18.6356 147.706 18.4738 147.782 18.3087 147.782H18.3071ZM164.299 146.547C164.11 146.547 163.927 146.446 163.83 146.268C163.688 146.008 163.782 145.679 164.04 145.536C165.282 144.847 166.539 144.141 167.78 143.433C168.038 143.286 168.364 143.377 168.51 143.636C168.656 143.895 168.565 144.224 168.308 144.372C167.063 145.082 165.803 145.791 164.558 146.482C164.476 146.527 164.387 146.548 164.299 146.548V146.547ZM171.763 142.29C171.578 142.29 171.399 142.194 171.3 142.023C171.151 141.766 171.237 141.435 171.492 141.286C172.737 140.555 173.976 139.817 175.179 139.093C175.431 138.94 175.761 139.023 175.913 139.279C176.066 139.534 175.983 139.865 175.729 140.019C174.523 140.747 173.281 141.487 172.031 142.22C171.947 142.27 171.853 142.293 171.761 142.293L171.763 142.29ZM179.119 137.849C178.94 137.849 178.765 137.758 178.663 137.594C178.508 137.34 178.585 137.008 178.838 136.852C180.055 136.096 181.275 135.326 182.466 134.563C182.715 134.403 183.047 134.477 183.205 134.729C183.364 134.98 183.291 135.313 183.04 135.473C181.844 136.238 180.619 137.009 179.399 137.768C179.312 137.822 179.215 137.848 179.118 137.848L179.119 137.849ZM186.358 133.217C186.183 133.217 186.011 133.13 185.909 132.972C185.748 132.723 185.815 132.39 186.065 132.225C187.254 131.441 188.453 130.637 189.63 129.837C189.874 129.671 190.207 129.735 190.374 129.982C190.541 130.23 190.476 130.563 190.23 130.731C189.05 131.534 187.846 132.339 186.652 133.127C186.561 133.187 186.46 133.215 186.359 133.215L186.358 133.217ZM193.463 128.379C193.295 128.379 193.128 128.299 193.023 128.148C192.853 127.904 192.913 127.567 193.156 127.397C194.327 126.574 195.502 125.734 196.646 124.902C196.886 124.728 197.221 124.781 197.396 125.022C197.569 125.263 197.515 125.6 197.276 125.776C196.127 126.611 194.949 127.454 193.772 128.281C193.678 128.346 193.572 128.379 193.465 128.379H193.463ZM200.417 123.323C200.253 123.323 200.093 123.248 199.986 123.106C199.808 122.869 199.857 122.53 200.095 122.351C201.247 121.484 202.393 120.605 203.5 119.74C203.734 119.558 204.069 119.6 204.252 119.835C204.433 120.069 204.391 120.409 204.158 120.592C203.046 121.461 201.896 122.343 200.739 123.214C200.642 123.287 200.53 123.321 200.418 123.321L200.417 123.323ZM207.191 118.026C207.034 118.026 206.88 117.958 206.773 117.826C206.587 117.595 206.623 117.255 206.854 117.067C207.976 116.156 209.086 115.234 210.154 114.328C210.38 114.136 210.718 114.165 210.909 114.393C211.1 114.621 211.071 114.961 210.845 115.153C209.77 116.065 208.655 116.991 207.527 117.907C207.429 117.989 207.309 118.028 207.191 118.028V118.026ZM213.748 112.461C213.599 112.461 213.452 112.399 213.345 112.278C213.149 112.055 213.17 111.714 213.392 111.517C214.473 110.556 215.541 109.584 216.564 108.631C216.78 108.429 217.12 108.44 217.321 108.658C217.522 108.876 217.51 109.218 217.293 109.42C216.264 110.38 215.191 111.357 214.102 112.324C214 112.415 213.874 112.459 213.748 112.459V112.461ZM220.033 106.588C219.894 106.588 219.756 106.534 219.651 106.426C219.444 106.213 219.447 105.873 219.658 105.665C220.695 104.641 221.705 103.612 222.661 102.608C222.865 102.393 223.205 102.385 223.418 102.591C223.632 102.797 223.64 103.138 223.435 103.353C222.47 104.367 221.452 105.404 220.407 106.435C220.303 106.537 220.167 106.589 220.031 106.589L220.033 106.588ZM225.959 100.348C225.833 100.348 225.705 100.303 225.603 100.212C225.381 100.013 225.362 99.6728 225.559 99.4498C226.525 98.3576 227.458 97.2604 228.33 96.1861C228.517 95.9549 228.854 95.9207 229.084 96.1096C229.314 96.2984 229.348 96.637 229.16 96.8681C228.278 97.9539 227.336 99.064 226.36 100.168C226.255 100.286 226.108 100.348 225.959 100.348ZM231.375 93.6597C231.265 93.6597 231.154 93.6256 231.058 93.5556C230.819 93.3798 230.768 93.0412 230.943 92.8019C231.811 91.6169 232.625 90.4318 233.361 89.281C233.521 89.0303 233.853 88.9587 234.102 89.1198C234.351 89.281 234.422 89.6147 234.262 89.8654C233.513 91.0357 232.688 92.2387 231.806 93.4416C231.701 93.5849 231.539 93.6614 231.374 93.6614L231.375 93.6597ZM235.995 86.3998C235.91 86.3998 235.822 86.3786 235.741 86.3347C235.481 86.1931 235.382 85.8675 235.523 85.6038C236.22 84.2967 236.832 83.0042 237.338 81.7622C237.452 81.4871 237.764 81.3553 238.038 81.4676C238.311 81.5799 238.442 81.8957 238.33 82.1708C237.809 83.447 237.183 84.7736 236.466 86.1133C236.369 86.294 236.185 86.3982 235.994 86.3982L235.995 86.3998ZM239.19 78.4253C239.146 78.4253 239.102 78.4204 239.059 78.409C238.772 78.3357 238.597 78.0427 238.67 77.7546C239.03 76.3222 239.243 74.9304 239.306 73.6151C239.321 73.3173 239.57 73.0829 239.868 73.1024C240.164 73.117 240.392 73.3693 240.378 73.6672C240.311 75.0525 240.086 76.5175 239.711 78.0183C239.649 78.2625 239.431 78.4253 239.191 78.4253H239.19ZM239.496 69.894C239.25 69.894 239.03 69.7231 238.973 69.474C238.761 68.5299 238.45 67.6151 238.049 66.754C237.872 66.3747 237.675 66.0003 237.461 65.639C237.311 65.3834 237.393 65.0513 237.649 64.9C237.903 64.7486 238.233 64.8316 238.384 65.0888C238.615 65.4794 238.829 65.8864 239.02 66.2966C239.455 67.2277 239.79 68.2174 240.018 69.238C240.083 69.5278 239.902 69.8175 239.614 69.8826C239.573 69.8908 239.534 69.8957 239.496 69.8957V69.894ZM235.215 62.5787C235.086 62.5787 234.956 62.5315 234.853 62.4371C233.885 61.5451 232.749 60.7247 231.476 59.9987C231.218 59.8522 231.128 59.5234 231.273 59.2629C231.419 59.0041 231.747 58.9129 232.003 59.0595C233.348 59.8261 234.549 60.6938 235.576 61.6411C235.795 61.843 235.809 62.1832 235.609 62.4029C235.503 62.5185 235.358 62.5771 235.214 62.5771L235.215 62.5787ZM227.846 58.2749C227.784 58.2749 227.721 58.2635 227.66 58.2407C226.412 57.7784 225.051 57.3665 223.616 57.0182C223.328 56.9482 223.151 56.6568 223.221 56.3671C223.291 56.0773 223.58 55.8999 223.868 55.9683C225.344 56.3264 226.745 56.7496 228.034 57.2266C228.31 57.3291 228.453 57.64 228.351 57.9184C228.271 58.1365 228.066 58.2716 227.848 58.2716L227.846 58.2749ZM219.533 56.2157C219.507 56.2157 219.48 56.2141 219.452 56.2092C218.111 56.0073 216.688 55.8429 215.229 55.7241C214.934 55.6997 214.714 55.4392 214.738 55.143C214.762 54.8467 215.025 54.6254 215.316 54.6498C216.801 54.7719 218.247 54.9379 219.612 55.143C219.905 55.1869 220.108 55.462 220.062 55.7567C220.022 56.0236 219.794 56.2157 219.533 56.2157Z" fill="#71D4FF"/>
<path d="M178.715 172.393C177.711 172.393 176.7 172.386 175.679 172.372C175.383 172.368 175.146 172.122 175.15 171.825C175.153 171.53 175.392 171.292 175.685 171.292H175.692C177.137 171.312 178.564 171.317 179.97 171.309H179.974C180.268 171.309 180.508 171.548 180.509 171.844C180.511 172.142 180.273 172.385 179.977 172.386C179.558 172.389 179.137 172.389 178.713 172.389L178.715 172.393ZM184.262 172.321C183.972 172.321 183.734 172.088 183.726 171.795C183.718 171.497 183.953 171.25 184.247 171.242C185.684 171.204 187.123 171.151 188.521 171.082C188.827 171.066 189.068 171.297 189.083 171.595C189.097 171.893 188.869 172.145 188.573 172.16C187.167 172.228 185.72 172.284 184.275 172.321C184.27 172.321 184.265 172.321 184.26 172.321H184.262ZM171.397 172.277C171.397 172.277 171.386 172.277 171.381 172.277C169.975 172.233 168.529 172.176 167.086 172.108C166.79 172.093 166.562 171.841 166.576 171.543C166.591 171.245 166.832 171.016 167.138 171.03C168.575 171.099 170.013 171.156 171.415 171.199C171.711 171.209 171.944 171.458 171.934 171.755C171.926 172.046 171.687 172.277 171.399 172.277H171.397ZM192.831 171.898C192.552 171.898 192.318 171.681 192.297 171.398C192.275 171.102 192.497 170.843 192.792 170.82C194.235 170.713 195.667 170.587 197.051 170.447C197.347 170.415 197.609 170.633 197.638 170.929C197.669 171.226 197.454 171.491 197.159 171.52C195.768 171.662 194.324 171.789 192.871 171.896C192.858 171.896 192.843 171.896 192.831 171.896V171.898ZM162.83 171.869C162.819 171.869 162.807 171.869 162.796 171.869C161.382 171.779 159.94 171.676 158.509 171.564C158.215 171.541 157.993 171.281 158.017 170.985C158.04 170.688 158.302 170.469 158.594 170.49C160.018 170.602 161.455 170.705 162.864 170.794C163.16 170.814 163.384 171.069 163.366 171.367C163.348 171.652 163.112 171.872 162.832 171.872L162.83 171.869ZM154.278 171.196C154.262 171.196 154.245 171.196 154.228 171.195C152.818 171.063 151.379 170.92 149.952 170.766C149.658 170.736 149.444 170.469 149.476 170.172C149.507 169.876 149.769 169.66 150.065 169.694C151.488 169.845 152.922 169.988 154.326 170.12C154.621 170.148 154.838 170.41 154.81 170.706C154.784 170.986 154.551 171.196 154.278 171.196ZM201.363 171.022C201.1 171.022 200.868 170.825 200.833 170.553C200.794 170.259 200.999 169.987 201.292 169.948C202.736 169.754 204.157 169.538 205.514 169.305C205.806 169.254 206.082 169.451 206.132 169.746C206.183 170.039 205.987 170.319 205.694 170.368C204.323 170.604 202.889 170.822 201.433 171.017C201.409 171.02 201.385 171.022 201.362 171.022H201.363ZM145.748 170.285C145.727 170.285 145.706 170.285 145.683 170.281C144.28 170.112 142.846 169.93 141.421 169.741C141.128 169.702 140.921 169.43 140.96 169.135C140.998 168.841 141.269 168.631 141.562 168.672C142.982 168.86 144.413 169.043 145.809 169.21C146.104 169.246 146.313 169.515 146.279 169.809C146.246 170.083 146.015 170.285 145.748 170.285ZM209.816 169.56C209.568 169.56 209.346 169.388 209.291 169.134C209.23 168.842 209.413 168.556 209.702 168.492C211.134 168.183 212.528 167.845 213.843 167.487C214.13 167.408 214.423 167.579 214.5 167.866C214.578 168.154 214.408 168.449 214.123 168.527C212.788 168.89 211.377 169.231 209.927 169.546C209.888 169.554 209.851 169.559 209.814 169.559L209.816 169.56ZM137.244 169.15C137.218 169.15 137.192 169.148 137.166 169.145C135.759 168.94 134.33 168.722 132.919 168.497C132.626 168.45 132.427 168.175 132.472 167.88C132.519 167.586 132.794 167.387 133.085 167.431C134.492 167.654 135.916 167.871 137.32 168.077C137.613 168.12 137.815 168.393 137.773 168.689C137.734 168.958 137.505 169.152 137.244 169.152V169.15ZM128.771 167.807C128.742 167.807 128.711 167.804 128.68 167.799C127.289 167.561 125.865 167.309 124.45 167.05C124.159 166.997 123.967 166.717 124.018 166.424C124.072 166.131 124.35 165.937 124.641 165.989C126.052 166.246 127.472 166.498 128.86 166.734C129.151 166.785 129.349 167.063 129.299 167.356C129.255 167.62 129.027 167.806 128.771 167.806V167.807ZM218.088 167.294C217.865 167.294 217.656 167.153 217.58 166.928C217.484 166.647 217.635 166.341 217.915 166.244C219.31 165.766 220.64 165.25 221.871 164.708C222.145 164.587 222.459 164.713 222.577 164.986C222.695 165.26 222.572 165.577 222.3 165.696C221.041 166.249 219.682 166.778 218.258 167.265C218.201 167.285 218.143 167.294 218.085 167.294H218.088ZM120.33 166.264C120.296 166.264 120.262 166.261 120.228 166.254C118.83 165.982 117.426 165.701 116.016 165.409C115.726 165.349 115.539 165.064 115.599 164.773C115.659 164.482 115.94 164.293 116.231 164.353C117.636 164.643 119.037 164.924 120.432 165.196C120.724 165.253 120.913 165.536 120.856 165.828C120.806 166.085 120.583 166.264 120.33 166.264ZM111.93 164.529C111.893 164.529 111.854 164.526 111.815 164.516C111.032 164.345 110.249 164.171 109.462 163.995C108.847 163.857 108.234 163.718 107.622 163.577C107.334 163.51 107.153 163.222 107.219 162.93C107.286 162.641 107.574 162.458 107.862 162.525C108.472 162.665 109.084 162.805 109.697 162.942C110.48 163.118 111.262 163.29 112.043 163.461C112.333 163.524 112.516 163.811 112.454 164.102C112.399 164.355 112.178 164.527 111.932 164.527L111.93 164.529ZM225.915 163.803C225.731 163.803 225.551 163.707 225.451 163.534C225.302 163.277 225.389 162.947 225.645 162.797C226.928 162.048 228.092 161.244 229.102 160.407C229.33 160.218 229.668 160.251 229.856 160.482C230.043 160.712 230.011 161.052 229.783 161.241C228.728 162.113 227.517 162.951 226.184 163.73C226.1 163.778 226.006 163.803 225.915 163.803ZM103.567 162.606C103.525 162.606 103.483 162.602 103.441 162.592C102.056 162.256 100.653 161.91 99.269 161.558C98.981 161.485 98.8078 161.192 98.8807 160.904C98.9535 160.614 99.2448 160.44 99.5312 160.513C100.91 160.863 102.31 161.21 103.692 161.543C103.98 161.613 104.156 161.905 104.088 162.195C104.03 162.442 103.81 162.608 103.567 162.608V162.606ZM95.2477 160.495C95.2024 160.495 95.1555 160.489 95.1102 160.477C93.733 160.111 92.3381 159.732 90.9626 159.349C90.6778 159.269 90.5095 158.973 90.5888 158.685C90.6681 158.399 90.9642 158.229 91.249 158.309C92.6197 158.69 94.0114 159.069 95.3836 159.434C95.6701 159.51 95.84 159.805 95.7656 160.093C95.7024 160.334 95.4856 160.495 95.2477 160.495ZM232.424 158.285C232.311 158.285 232.197 158.249 232.102 158.176C231.866 157.996 231.819 157.658 231.997 157.42C232.858 156.276 233.508 155.057 233.932 153.797C234.028 153.515 234.332 153.364 234.612 153.46C234.892 153.556 235.042 153.862 234.947 154.144C234.486 155.512 233.78 156.833 232.851 158.07C232.746 158.21 232.586 158.285 232.422 158.285H232.424ZM86.9785 158.193C86.9284 158.193 86.8798 158.187 86.8297 158.172C85.4558 157.772 84.0689 157.358 82.7096 156.945C82.4264 156.859 82.2662 156.558 82.352 156.273C82.4378 155.988 82.7355 155.827 83.0203 155.913C84.3764 156.326 85.7568 156.737 87.1274 157.135C87.4122 157.218 87.5757 157.518 87.4931 157.803C87.4252 158.039 87.2115 158.192 86.9785 158.192V158.193ZM78.7676 155.692C78.7142 155.692 78.6592 155.683 78.6058 155.665C77.2465 155.233 75.871 154.786 74.5165 154.336C74.2349 154.243 74.0828 153.937 74.175 153.655C74.2673 153.372 74.5715 153.219 74.8515 153.312C76.2011 153.759 77.5717 154.205 78.9278 154.637C79.2094 154.726 79.3664 155.029 79.2774 155.314C79.2045 155.543 78.9942 155.692 78.766 155.692H78.7676ZM70.6198 152.985C70.5615 152.985 70.5033 152.975 70.445 152.955C69.0954 152.486 67.7312 152.003 66.3913 151.518C66.113 151.417 65.969 151.108 66.0693 150.828C66.1696 150.548 66.4771 150.403 66.7554 150.504C68.0905 150.987 69.4498 151.469 70.7946 151.936C71.0745 152.034 71.2234 152.34 71.1263 152.622C71.0502 152.845 70.8415 152.985 70.6198 152.985ZM235.083 150.273C234.791 150.273 234.553 150.038 234.547 149.745C234.52 148.428 234.28 147.056 233.837 145.666C233.746 145.383 233.901 145.078 234.183 144.987C234.466 144.896 234.767 145.052 234.858 145.336C235.333 146.825 235.589 148.301 235.618 149.722C235.625 150.02 235.39 150.266 235.094 150.273C235.091 150.273 235.086 150.273 235.083 150.273ZM62.548 150.059C62.4849 150.059 62.4218 150.048 62.3587 150.025C61.0188 149.519 59.6692 148.996 58.3471 148.472C58.072 148.363 57.9361 148.051 58.0445 147.772C58.1529 147.494 58.4636 147.359 58.7403 147.468C60.0576 147.989 61.4023 148.51 62.7374 149.014C63.0141 149.119 63.1549 149.429 63.0497 149.709C62.9688 149.926 62.7649 150.059 62.548 150.059ZM54.5637 146.9C54.4957 146.9 54.4261 146.887 54.3598 146.859C53.0263 146.307 51.6945 145.742 50.3967 145.181C50.1248 145.064 49.9986 144.746 50.1167 144.473C50.2333 144.199 50.5488 144.074 50.8207 144.191C52.112 144.751 53.439 145.313 54.7659 145.861C55.0394 145.975 55.1705 146.289 55.0572 146.565C54.9715 146.773 54.7724 146.898 54.562 146.898L54.5637 146.9ZM46.6845 143.485C46.61 143.485 46.5356 143.47 46.4644 143.438C45.152 142.842 43.8396 142.23 42.5612 141.621C42.2942 141.494 42.1793 141.172 42.3071 140.903C42.4334 140.634 42.7538 140.519 43.0208 140.648C44.2927 141.255 45.5986 141.863 46.9045 142.456C47.1748 142.578 47.2945 142.899 47.1732 143.169C47.0842 143.368 46.8884 143.486 46.6845 143.486V143.485ZM232.607 142.104C232.419 142.104 232.238 142.005 232.139 141.829C231.493 140.677 230.707 139.492 229.802 138.307C229.623 138.071 229.666 137.732 229.901 137.551C230.136 137.371 230.472 137.415 230.654 137.651C231.587 138.876 232.401 140.104 233.073 141.299C233.218 141.557 233.128 141.886 232.869 142.033C232.786 142.08 232.696 142.103 232.605 142.103L232.607 142.104ZM38.9331 139.782C38.8522 139.782 38.7713 139.764 38.6936 139.725C37.3958 139.072 36.1093 138.408 34.8665 137.748C34.6043 137.61 34.504 137.283 34.6432 137.019C34.7807 136.755 35.106 136.655 35.3681 136.795C36.6029 137.451 37.8845 138.111 39.1742 138.761C39.4396 138.894 39.5464 139.218 39.4137 139.484C39.3199 139.672 39.1305 139.782 38.9331 139.782ZM31.3468 135.751C31.2578 135.751 31.1688 135.728 31.0863 135.683C29.8176 134.97 28.5635 134.241 27.3579 133.518C27.1038 133.365 27.0197 133.034 27.1718 132.779C27.3239 132.523 27.6524 132.439 27.9065 132.592C29.104 133.309 30.35 134.032 31.609 134.742C31.8679 134.887 31.9601 135.216 31.8145 135.476C31.7158 135.652 31.5345 135.753 31.3468 135.753V135.751ZM227.445 135.242C227.302 135.242 227.16 135.185 227.055 135.072C226.131 134.084 225.113 133.077 224.025 132.077C223.807 131.877 223.792 131.535 223.991 131.315C224.19 131.096 224.53 131.081 224.749 131.281C225.855 132.299 226.893 133.326 227.835 134.333C228.037 134.55 228.027 134.892 227.812 135.095C227.708 135.193 227.577 135.242 227.445 135.242ZM23.9806 131.328C23.8819 131.328 23.7816 131.301 23.6926 131.244C22.4579 130.451 21.249 129.644 20.1017 128.848C19.8574 128.678 19.7975 128.343 19.9658 128.097C20.1341 127.851 20.4674 127.791 20.7118 127.961C21.8494 128.75 23.0453 129.549 24.2703 130.335C24.5195 130.495 24.5923 130.829 24.4337 131.081C24.3318 131.242 24.1586 131.33 23.9806 131.33V131.328ZM16.9251 126.419C16.8135 126.419 16.6986 126.383 16.6031 126.31C15.4218 125.413 14.2842 124.505 13.221 123.611C12.9944 123.421 12.9637 123.08 13.1546 122.851C13.3456 122.623 13.6838 122.592 13.9104 122.784C14.959 123.666 16.082 124.563 17.2488 125.449C17.485 125.628 17.532 125.966 17.354 126.204C17.2488 126.344 17.0886 126.419 16.9251 126.419ZM10.3616 120.87C10.2289 120.87 10.0962 120.821 9.9926 120.722C8.90191 119.68 7.88566 118.63 6.97136 117.601C6.77393 117.38 6.79335 117.038 7.01343 116.839C7.23351 116.641 7.57334 116.66 7.77077 116.882C8.66565 117.889 9.66248 118.918 10.7305 119.939C10.9457 120.144 10.9538 120.486 10.7499 120.701C10.6448 120.813 10.5023 120.868 10.3616 120.868V120.87ZM4.68641 114.425C4.51973 114.425 4.35467 114.347 4.24949 114.199C3.35622 112.941 2.59241 111.681 1.98072 110.454C1.84802 110.188 1.95483 109.863 2.2186 109.729C2.48399 109.596 2.80602 109.703 2.93872 109.969C3.52613 111.145 4.26081 112.357 5.12171 113.571C5.29325 113.813 5.23823 114.15 4.99711 114.323C4.90325 114.391 4.79321 114.424 4.68641 114.424V114.425ZM0.956377 106.736C0.71526 106.736 0.496798 106.571 0.435305 106.324C0.147259 105.139 0 103.962 0 102.824C0 102.512 0.0113276 102.199 0.0323647 101.893C0.0534018 101.597 0.309083 101.367 0.60522 101.393C0.899739 101.415 1.12306 101.672 1.10202 101.97C1.0826 102.25 1.07289 102.538 1.07289 102.824C1.07289 103.876 1.20882 104.966 1.47745 106.067C1.54865 106.357 1.37226 106.648 1.08422 106.72C1.04053 106.729 0.998451 106.736 0.956377 106.736ZM1.60853 98.3103C1.53571 98.3103 1.46127 98.2957 1.39006 98.2631C1.11982 98.1411 0.998451 97.822 1.11982 97.5502C1.69915 96.2463 2.51312 94.9897 3.53746 93.8144C3.73327 93.5914 4.07148 93.5686 4.29318 93.7639C4.51649 93.9609 4.53753 94.3011 4.34334 94.5241C3.38858 95.618 2.63449 96.7835 2.09885 97.988C2.00985 98.1883 1.81404 98.3071 1.60853 98.3071V98.3103ZM7.10891 91.8171C6.94547 91.8171 6.78202 91.7422 6.67846 91.599C6.50207 91.3597 6.55223 91.0227 6.79011 90.8453C7.88728 90.0282 9.1317 89.2436 10.4862 88.5143C10.7467 88.3743 11.072 88.4736 11.2111 88.7357C11.3503 88.9978 11.2516 89.3249 10.9911 89.4649C9.6819 90.1698 8.48279 90.9251 7.4277 91.7113C7.33222 91.7829 7.22057 91.8171 7.10891 91.8171ZM14.624 87.7053C14.412 87.7053 14.2113 87.5783 14.1272 87.37C14.0155 87.0932 14.1466 86.7791 14.4217 86.6668L14.5382 86.6196C14.8133 86.5072 15.1256 86.6407 15.2357 86.9174C15.3473 87.1942 15.2146 87.5083 14.9395 87.619L14.8247 87.6662C14.7583 87.6939 14.6903 87.7069 14.6224 87.7069L14.624 87.7053Z" fill="#71D4FF"/>
<path d="M210.772 128.633C209.57 128.633 208.317 128.612 207.05 128.573C206.754 128.563 206.522 128.314 206.532 128.016C206.542 127.718 206.791 127.482 207.086 127.493C208.341 127.534 209.583 127.554 210.774 127.554H211.358C211.652 127.554 211.892 127.793 211.893 128.089C211.895 128.387 211.657 128.63 211.359 128.631H210.774L210.772 128.633ZM215.643 128.512C215.36 128.512 215.122 128.289 215.107 128C215.093 127.702 215.319 127.449 215.615 127.433C217.081 127.358 218.51 127.248 219.862 127.103C220.151 127.073 220.42 127.285 220.452 127.581C220.483 127.878 220.271 128.143 219.976 128.175C218.606 128.322 217.157 128.436 215.67 128.511C215.661 128.511 215.652 128.511 215.643 128.511V128.512ZM202.784 128.364C202.773 128.364 202.762 128.364 202.749 128.364C201.357 128.275 199.914 128.162 198.457 128.029C198.163 128.001 197.946 127.739 197.972 127.443C197.999 127.147 198.256 126.925 198.554 126.955C199.999 127.088 201.433 127.199 202.815 127.288C203.11 127.308 203.335 127.563 203.315 127.861C203.297 128.146 203.061 128.366 202.781 128.366L202.784 128.364ZM194.24 127.583C194.219 127.583 194.198 127.583 194.177 127.58C192.785 127.417 191.35 127.233 189.91 127.033C189.617 126.992 189.411 126.72 189.452 126.426C189.492 126.131 189.764 125.923 190.057 125.965C191.489 126.163 192.916 126.347 194.3 126.509C194.594 126.543 194.805 126.811 194.771 127.106C194.738 127.381 194.507 127.583 194.238 127.583H194.24ZM224.163 127.573C223.909 127.573 223.682 127.391 223.637 127.13C223.583 126.837 223.778 126.557 224.069 126.504C225.533 126.237 226.92 125.914 228.194 125.548C228.477 125.465 228.775 125.631 228.857 125.918C228.938 126.204 228.775 126.502 228.49 126.585C227.182 126.963 225.76 127.292 224.26 127.565C224.228 127.571 224.195 127.573 224.163 127.573ZM185.743 126.404C185.715 126.404 185.686 126.403 185.659 126.398C184.265 126.175 182.84 125.934 181.419 125.682C181.127 125.63 180.933 125.35 180.985 125.057C181.037 124.764 181.317 124.568 181.606 124.62C183.021 124.873 184.44 125.112 185.827 125.333C186.12 125.38 186.319 125.656 186.272 125.95C186.23 126.216 186.002 126.404 185.743 126.404ZM232.37 125.14C232.167 125.14 231.971 125.022 231.882 124.822C231.76 124.55 231.88 124.231 232.149 124.109C233.513 123.489 234.72 122.778 235.735 121.996C235.971 121.816 236.306 121.861 236.486 122.097C236.665 122.333 236.62 122.672 236.385 122.853C235.304 123.683 234.028 124.436 232.591 125.091C232.519 125.123 232.443 125.14 232.37 125.14ZM177.295 124.9C177.261 124.9 177.228 124.897 177.192 124.891C175.805 124.619 174.388 124.329 172.98 124.029C172.69 123.968 172.505 123.681 172.565 123.39C172.627 123.098 172.91 122.913 173.201 122.973C174.603 123.271 176.014 123.559 177.397 123.831C177.687 123.888 177.878 124.171 177.821 124.464C177.771 124.721 177.546 124.9 177.295 124.9ZM168.902 123.118C168.863 123.118 168.822 123.113 168.782 123.105C167.403 122.791 165.997 122.459 164.599 122.118C164.311 122.048 164.134 121.757 164.204 121.467C164.274 121.178 164.563 120.998 164.851 121.07C166.245 121.409 167.648 121.739 169.02 122.053C169.308 122.12 169.489 122.408 169.424 122.698C169.368 122.949 169.148 123.118 168.902 123.118ZM160.563 121.09C160.519 121.09 160.474 121.085 160.43 121.073C159.061 120.72 157.663 120.351 156.275 119.975C155.988 119.896 155.82 119.602 155.896 119.314C155.974 119.026 156.267 118.856 156.553 118.933C157.937 119.309 159.33 119.677 160.696 120.028C160.982 120.102 161.155 120.396 161.082 120.684C161.021 120.928 160.802 121.09 160.563 121.09ZM238.976 119.838C238.877 119.838 238.777 119.81 238.688 119.753C238.439 119.594 238.364 119.26 238.525 119.009C238.871 118.462 239.162 117.883 239.392 117.289C239.646 116.626 239.829 115.926 239.934 115.212C239.978 114.917 240.251 114.714 240.543 114.758C240.835 114.801 241.038 115.075 240.994 115.37C240.878 116.164 240.674 116.94 240.392 117.678C240.138 118.339 239.814 118.982 239.429 119.59C239.327 119.752 239.154 119.839 238.976 119.839V119.838ZM152.281 118.842C152.232 118.842 152.184 118.835 152.134 118.82C150.766 118.43 149.378 118.026 148.007 117.618C147.724 117.533 147.562 117.233 147.646 116.947C147.73 116.662 148.028 116.498 148.313 116.584C149.679 116.991 151.062 117.395 152.426 117.784C152.711 117.865 152.876 118.163 152.795 118.449C152.729 118.687 152.514 118.842 152.279 118.842H152.281ZM144.054 116.392C144.002 116.392 143.949 116.384 143.895 116.367C142.537 115.946 141.16 115.508 139.798 115.068C139.516 114.977 139.361 114.673 139.451 114.39C139.542 114.106 139.845 113.952 140.126 114.041C141.484 114.481 142.858 114.915 144.211 115.337C144.494 115.425 144.652 115.728 144.565 116.011C144.494 116.242 144.282 116.392 144.054 116.392ZM135.886 113.752C135.83 113.752 135.773 113.742 135.717 113.724C134.365 113.27 133.011 112.807 131.65 112.334C131.37 112.236 131.221 111.93 131.318 111.648C131.415 111.367 131.721 111.217 131.999 111.315C133.357 111.787 134.708 112.249 136.055 112.702C136.336 112.796 136.487 113.102 136.393 113.384C136.319 113.61 136.108 113.753 135.885 113.753L135.886 113.752ZM240.313 111.541C240.062 111.541 239.839 111.364 239.788 111.106C239.539 109.845 239.104 108.505 238.496 107.13C238.376 106.858 238.497 106.539 238.767 106.418C239.039 106.296 239.355 106.418 239.475 106.692C240.115 108.142 240.575 109.557 240.839 110.896C240.897 111.188 240.708 111.473 240.418 111.531C240.382 111.538 240.347 111.541 240.313 111.541ZM127.779 110.931C127.719 110.931 127.658 110.921 127.598 110.898C126.256 110.415 124.91 109.923 123.562 109.42C123.284 109.317 123.143 109.007 123.245 108.727C123.347 108.448 123.656 108.305 123.934 108.408C125.279 108.909 126.622 109.399 127.96 109.881C128.239 109.982 128.384 110.289 128.284 110.569C128.206 110.789 127.999 110.927 127.779 110.927V110.931ZM119.733 107.939C119.67 107.939 119.605 107.927 119.542 107.903C119.034 107.708 118.526 107.512 118.018 107.314C117.188 106.991 116.361 106.667 115.537 106.34C115.262 106.231 115.126 105.919 115.235 105.64C115.343 105.364 115.654 105.227 115.93 105.336C116.752 105.661 117.576 105.985 118.405 106.306C118.911 106.503 119.418 106.698 119.924 106.894C120.201 106.999 120.34 107.312 120.233 107.59C120.152 107.805 119.948 107.937 119.732 107.937L119.733 107.939ZM111.75 104.778C111.683 104.778 111.615 104.765 111.55 104.738C110.216 104.195 108.893 103.645 107.579 103.093C107.305 102.977 107.177 102.661 107.291 102.388C107.404 102.113 107.719 101.984 107.991 102.098C109.302 102.65 110.623 103.197 111.953 103.739C112.228 103.851 112.359 104.165 112.247 104.442C112.163 104.652 111.962 104.779 111.75 104.779V104.778ZM236.952 103.656C236.774 103.656 236.599 103.566 236.497 103.404C235.791 102.274 234.973 101.102 234.062 99.9186C233.88 99.6826 233.924 99.344 234.157 99.1617C234.392 98.9794 234.728 99.0217 234.91 99.2577C235.842 100.469 236.68 101.67 237.405 102.829C237.562 103.081 237.486 103.413 237.237 103.573C237.148 103.628 237.049 103.656 236.952 103.656ZM103.836 101.447C103.764 101.447 103.693 101.432 103.624 101.403C102.302 100.83 100.989 100.252 99.6881 99.6712C99.4179 99.5507 99.2949 99.2317 99.4163 98.9598C99.536 98.688 99.8532 98.5643 100.123 98.6864C101.421 99.2659 102.73 99.8421 104.049 100.413C104.321 100.531 104.447 100.848 104.329 101.122C104.242 101.325 104.044 101.447 103.837 101.447H103.836ZM95.9937 97.9457C95.9193 97.9457 95.8432 97.9294 95.7704 97.8969C94.4758 97.3011 93.165 96.6891 91.8737 96.077C91.6051 95.95 91.4918 95.6294 91.6164 95.3592C91.7426 95.0889 92.0614 94.975 92.33 95.1003C93.6181 95.7108 94.9257 96.3212 96.2154 96.9153C96.484 97.039 96.6038 97.3597 96.4808 97.6299C96.3902 97.8285 96.196 97.9457 95.9921 97.9457H95.9937ZM231.735 96.8177C231.587 96.8177 231.442 96.7574 231.335 96.6386C230.432 95.6245 229.445 94.5778 228.403 93.5312C228.194 93.3212 228.194 92.9793 228.403 92.7693C228.611 92.5577 228.951 92.5593 229.162 92.7693C230.217 93.8307 231.217 94.8904 232.134 95.9207C232.332 96.1421 232.314 96.484 232.092 96.6826C231.99 96.7753 231.862 96.8193 231.735 96.8193V96.8177ZM88.2327 94.2653C88.1534 94.2653 88.0741 94.2474 87.998 94.2116C86.7034 93.58 85.4072 92.937 84.145 92.3006C83.8796 92.1671 83.7728 91.8431 83.9055 91.5762C84.0382 91.3092 84.3602 91.2018 84.6256 91.3353C85.8846 91.9701 87.1776 92.6115 88.4673 93.2414C88.7343 93.3716 88.8444 93.6939 88.7149 93.9625C88.6227 94.1546 88.4317 94.2669 88.2327 94.2669V94.2653ZM80.5606 90.4009C80.4781 90.4009 80.3939 90.3814 80.3146 90.3407C79.0443 89.6798 77.7627 89.0043 76.5102 88.332C76.2496 88.192 76.1493 87.8648 76.2885 87.6027C76.4276 87.3407 76.7529 87.2414 77.0134 87.3797C78.2627 88.0504 79.5395 88.7227 80.8066 89.3819C81.0704 89.5186 81.1723 89.8442 81.0364 90.1079C80.9409 90.2935 80.7532 90.3993 80.559 90.3993L80.5606 90.4009ZM72.9889 86.3412C72.9015 86.3412 72.8125 86.32 72.7316 86.2745C71.4758 85.5794 70.2136 84.868 68.9821 84.1632C68.7248 84.0151 68.6358 83.6863 68.7815 83.4275C68.9271 83.1686 69.2556 83.0791 69.5129 83.2256C70.7411 83.9288 71.9985 84.6369 73.2494 85.3303C73.5083 85.4736 73.6038 85.8024 73.4598 86.0629C73.3627 86.2419 73.1782 86.3428 72.9889 86.3428V86.3412ZM65.5337 82.0699C65.4414 82.0699 65.3476 82.0455 65.2618 81.995C64.0239 81.2609 62.7843 80.5121 61.5755 79.7698C61.323 79.6152 61.2437 79.2831 61.3975 79.0292C61.5512 78.7752 61.8813 78.6955 62.1338 78.8501C63.3361 79.5891 64.5724 80.3363 65.8055 81.0672C66.0612 81.2186 66.1454 81.549 65.9949 81.8062C65.8945 81.9771 65.7165 82.0715 65.5321 82.0715L65.5337 82.0699ZM58.2144 77.5658C58.1157 77.5658 58.017 77.5381 57.928 77.4811C56.7046 76.6982 55.4893 75.9071 54.3193 75.1274C54.0733 74.963 54.0054 74.6276 54.1688 74.3802C54.3323 74.1328 54.664 74.0644 54.9116 74.2288C56.0767 75.0036 57.2839 75.7931 58.5024 76.5712C58.7533 76.7307 58.8261 77.0644 58.6675 77.3151C58.5656 77.4763 58.3924 77.5658 58.2144 77.5658ZM51.0602 72.8012C50.955 72.8012 50.8482 72.7703 50.756 72.7052C49.5617 71.875 48.3804 71.0335 47.2444 70.2049C47.0049 70.0308 46.9515 69.6922 47.1246 69.4513C47.2994 69.2104 47.6328 69.1566 47.8739 69.3308C49.0034 70.1545 50.1782 70.9911 51.366 71.8164C51.6104 71.9857 51.6703 72.3211 51.502 72.5668C51.3984 72.7182 51.2301 72.7996 51.0602 72.7996V72.8012ZM44.1163 67.7323C44.0031 67.7323 43.8882 67.6965 43.7911 67.6216C42.6292 66.728 41.4899 65.8278 40.4073 64.9439C40.1775 64.7567 40.1419 64.4165 40.328 64.1854C40.5141 63.9542 40.8524 63.9184 41.0821 64.1056C42.1583 64.983 43.2878 65.8766 44.4416 66.7638C44.6762 66.9445 44.7215 67.2831 44.5419 67.5191C44.4367 67.6574 44.2765 67.7307 44.1163 67.7307V67.7323ZM37.4541 62.2939C37.3295 62.2939 37.2048 62.2499 37.1029 62.162C35.9912 61.1935 34.9134 60.2168 33.8988 59.2613C33.6836 59.0578 33.6722 58.716 33.8745 58.4995C34.0768 58.2814 34.4166 58.2716 34.6319 58.4751C35.6368 59.4208 36.7048 60.3877 37.8052 61.3481C38.0285 61.5435 38.0528 61.8837 37.8602 62.1083C37.7534 62.232 37.6046 62.2939 37.4541 62.2939ZM31.2028 56.3866C31.0636 56.3866 30.9229 56.3313 30.8177 56.2222C29.7788 55.1463 28.7965 54.067 27.8968 53.0187C27.7042 52.7925 27.7285 52.4523 27.9534 52.2586C28.1767 52.0648 28.5165 52.0893 28.7091 52.3155C29.5943 53.3475 30.562 54.4105 31.5863 55.4718C31.7919 55.685 31.787 56.0269 31.575 56.2336C31.4714 56.3345 31.3355 56.3866 31.2012 56.3866H31.2028ZM25.6296 49.838C25.4646 49.838 25.3027 49.7615 25.1975 49.6183C24.2929 48.3779 23.4903 47.1505 22.8106 45.9688C22.6618 45.7116 22.7508 45.3811 23.0065 45.2314C23.2638 45.0833 23.5906 45.1712 23.7395 45.4283C24.3998 46.5759 25.1797 47.7707 26.0617 48.9802C26.2365 49.2211 26.1847 49.558 25.9468 49.7338C25.8513 49.8038 25.7397 49.838 25.6296 49.838ZM21.4173 42.3616C21.2005 42.3616 20.9966 42.2281 20.9157 42.0132C20.3542 40.5271 19.9949 39.0816 19.8477 37.7191C19.8153 37.4229 20.0273 37.1576 20.3218 37.125C20.6147 37.0941 20.8817 37.3057 20.9125 37.6019C21.05 38.8732 21.3882 40.2292 21.9174 41.6307C22.0226 41.9091 21.8834 42.22 21.6067 42.3258C21.5436 42.3502 21.4805 42.3616 21.4173 42.3616ZM20.6827 33.9231C20.6357 33.9231 20.5872 33.9166 20.5386 33.9036C20.2538 33.8238 20.0855 33.5276 20.1648 33.2395C20.2587 32.9009 20.3687 32.5639 20.4933 32.2367C20.9011 31.1722 21.4869 30.1678 22.2313 29.2481C22.419 29.017 22.7556 28.9828 22.9854 29.1716C23.2152 29.3604 23.2492 29.699 23.0615 29.9302C22.3883 30.7603 21.8607 31.6686 21.4918 32.6258C21.3785 32.9188 21.2798 33.2216 21.1956 33.526C21.1293 33.7652 20.9141 33.9215 20.6794 33.9215L20.6827 33.9231ZM25.8578 27.3013C25.6814 27.3013 25.5099 27.215 25.4079 27.0555C25.2477 26.8048 25.3189 26.4711 25.5665 26.31C26.7041 25.5693 28.0214 24.9003 29.4826 24.3208C29.7577 24.2117 30.07 24.3468 30.1785 24.6252C30.2869 24.9019 30.151 25.2161 29.8759 25.3251C28.4809 25.8786 27.2268 26.5151 26.1491 27.2166C26.0584 27.2752 25.9581 27.3029 25.8578 27.3029V27.3013ZM33.7629 24.0604C33.5234 24.0604 33.3049 23.8976 33.2434 23.6518C33.1706 23.3637 33.3454 23.0707 33.6334 22.9974C34.9571 22.6637 36.3876 22.374 37.8845 22.1379C38.179 22.0924 38.4509 22.2926 38.4978 22.5872C38.5431 22.8818 38.3441 23.1569 38.0512 23.2041C36.5851 23.4353 35.1869 23.7185 33.8956 24.0441C33.8519 24.0555 33.8082 24.0604 33.7645 24.0604H33.7629ZM42.223 22.6914C41.9479 22.6914 41.7149 22.4798 41.689 22.1998C41.6631 21.9035 41.8799 21.6415 42.1761 21.6154C43.5483 21.4933 44.9983 21.4038 46.4838 21.3485C46.788 21.3387 47.0275 21.5698 47.0389 21.8677C47.0502 22.1656 46.8188 22.4147 46.5227 22.4261C45.0549 22.4798 43.6244 22.5677 42.2699 22.6898C42.2537 22.6898 42.2376 22.6914 42.2214 22.6914H42.223ZM53.3759 22.4098C53.3759 22.4098 53.3662 22.4098 53.3613 22.4098C52.4907 22.3854 51.6249 22.3707 50.7883 22.3642C50.4922 22.3626 50.2543 22.12 50.2559 21.8221C50.2575 21.5259 50.497 21.2866 50.7915 21.2866H50.7948C51.6395 21.2915 52.5117 21.3078 53.3904 21.3322C53.6866 21.3403 53.9196 21.5894 53.9115 21.8856C53.9034 22.1786 53.6655 22.4098 53.3759 22.4098Z" fill="#71D4FF"/>
<path d="M36.051 99.217C35.7549 99.217 35.5154 98.9761 35.5154 98.6782C35.5154 98.3803 35.7549 98.1394 36.051 98.1394C37.4314 98.1394 38.87 98.1183 40.3264 98.0792C40.6161 98.0662 40.8685 98.3055 40.8766 98.6033C40.8847 98.9012 40.6517 99.1487 40.3556 99.1568C38.8911 99.1959 37.4427 99.217 36.0527 99.2187L36.051 99.217ZM31.7627 99.1552C31.7627 99.1552 31.7514 99.1552 31.7465 99.1552C30.2723 99.1096 28.824 99.0396 27.442 98.9452C27.1475 98.9256 26.9242 98.6685 26.9436 98.3706C26.963 98.0727 27.2171 97.8448 27.5149 97.8692C28.8823 97.962 30.3176 98.032 31.7789 98.0776C32.075 98.0873 32.3081 98.3348 32.2984 98.6326C32.2887 98.924 32.0508 99.1552 31.7627 99.1552ZM44.6261 98.9891C44.3429 98.9891 44.105 98.7645 44.0904 98.4764C44.0759 98.1785 44.304 97.9262 44.5986 97.9115C45.9902 97.8415 47.4272 97.7553 48.8691 97.6527C49.162 97.6267 49.4209 97.8562 49.4419 98.1524C49.463 98.4503 49.2397 98.7075 48.9452 98.7287C47.4952 98.8312 46.0517 98.9191 44.6536 98.9891C44.6439 98.9891 44.6358 98.9891 44.6261 98.9891ZM23.2087 98.5561C23.1877 98.5561 23.1667 98.5561 23.1456 98.5529C21.6488 98.3787 20.2101 98.1687 18.8686 97.9262C18.5773 97.8741 18.3832 97.5941 18.4349 97.2995C18.4867 97.0065 18.7651 96.8111 19.058 96.8632C20.3768 97.1009 21.7928 97.3092 23.2686 97.4802C23.5631 97.5144 23.7735 97.7813 23.7395 98.0776C23.7072 98.3527 23.4757 98.5545 23.2071 98.5545L23.2087 98.5561ZM53.1833 98.3901C52.9082 98.3901 52.6752 98.1785 52.6493 97.8985C52.6234 97.6023 52.8419 97.3402 53.1364 97.3141C54.5313 97.1904 55.9651 97.0504 57.3972 96.899C57.6933 96.8665 57.9555 97.083 57.9862 97.3792C58.017 97.6755 57.8034 97.9408 57.5088 97.9718C56.0702 98.1231 54.6316 98.2648 53.2302 98.3885C53.2141 98.3885 53.1979 98.3901 53.1833 98.3901ZM61.7146 97.4899C61.4476 97.4899 61.2162 97.2897 61.1839 97.0146C61.1483 96.7184 61.3586 96.4498 61.6515 96.4156C63.0432 96.2463 64.4721 96.064 65.8994 95.8703C66.1923 95.8312 66.4625 96.0379 66.503 96.3326C66.5418 96.6272 66.3363 96.8991 66.0434 96.9398C64.6113 97.1335 63.1775 97.319 61.781 97.4883C61.76 97.4916 61.7373 97.4916 61.7163 97.4916L61.7146 97.4899ZM14.7793 96.9983C14.7324 96.9983 14.6855 96.9918 14.6386 96.9788C13.1239 96.5637 11.7371 96.0868 10.5137 95.5594C10.2418 95.4422 10.1156 95.1248 10.2321 94.8513C10.3486 94.5778 10.6642 94.4509 10.936 94.5681C12.1141 95.0743 13.454 95.5366 14.9201 95.937C15.2049 96.0152 15.3749 96.3114 15.2972 96.5995C15.2325 96.8388 15.0156 96.9967 14.781 96.9967L14.7793 96.9983ZM70.2169 96.3375C69.9563 96.3375 69.7265 96.1454 69.6877 95.8768C69.644 95.5822 69.8463 95.3087 70.1392 95.2648C71.5325 95.0564 72.9565 94.835 74.3709 94.6055C74.6605 94.5599 74.9389 94.7585 74.9858 95.0515C75.0327 95.3461 74.8337 95.6229 74.5424 95.6701C73.1232 95.8996 71.6959 96.1226 70.2978 96.3326C70.2719 96.3358 70.2444 96.3391 70.2185 96.3391L70.2169 96.3375ZM78.6851 94.962C78.4294 94.962 78.2028 94.7764 78.1575 94.5143C78.1074 94.2213 78.3032 93.9414 78.5945 93.8909C79.9845 93.6484 81.4037 93.3928 82.81 93.1291C83.1012 93.0737 83.3812 93.2675 83.4346 93.5605C83.488 93.8535 83.2954 94.1351 83.0058 94.1888C81.5947 94.4525 80.1722 94.7097 78.7773 94.9522C78.7466 94.9571 78.7158 94.9604 78.6851 94.9604V94.962ZM7.00372 93.4839C6.89045 93.4839 6.77555 93.4481 6.67846 93.3733C5.3515 92.351 4.37571 91.1888 3.7802 89.9191C3.65398 89.6505 3.76887 89.3282 4.03588 89.2012C4.30289 89.0743 4.6233 89.1898 4.74952 89.4584C5.27059 90.5702 6.13958 91.599 7.32899 92.5154C7.56363 92.6961 7.60894 93.0347 7.42932 93.2707C7.32413 93.4091 7.16393 93.4823 7.00372 93.4823V93.4839ZM87.1209 93.3895C86.8701 93.3895 86.6452 93.2121 86.595 92.9549C86.5384 92.6619 86.7277 92.3787 87.0174 92.3217C88.4074 92.0466 89.8072 91.7617 91.2167 91.4671C91.5064 91.4069 91.7896 91.5941 91.8511 91.8855C91.9109 92.1768 91.7248 92.4633 91.4352 92.5236C90.0224 92.8182 88.6194 93.1047 87.2261 93.3798C87.1905 93.3863 87.1565 93.3895 87.1226 93.3895H87.1209ZM95.5196 91.6348C95.2736 91.6348 95.0519 91.4622 94.9969 91.2099C94.9338 90.9185 95.1167 90.6321 95.4063 90.5686C96.7915 90.2642 98.1864 89.95 99.5862 89.6277C99.8759 89.561 100.162 89.7433 100.229 90.033C100.295 90.3228 100.114 90.6125 99.8257 90.6793C98.4211 91.0032 97.0245 91.3174 95.6345 91.6234C95.5956 91.6315 95.5568 91.6364 95.5196 91.6364V91.6348ZM103.881 89.7075C103.638 89.7075 103.42 89.5414 103.36 89.294C103.29 89.0043 103.468 88.7129 103.756 88.6445C105.137 88.3125 106.525 87.9706 107.919 87.6207C108.205 87.5474 108.496 87.7248 108.569 88.0129C108.64 88.3011 108.465 88.5941 108.179 88.6673C106.783 89.0189 105.392 89.3608 104.007 89.6945C103.965 89.7042 103.923 89.7091 103.881 89.7091V89.7075ZM112.205 87.6158C111.967 87.6158 111.749 87.4546 111.687 87.2121C111.613 86.924 111.784 86.6293 112.071 86.5544C113.446 86.1947 114.827 85.8268 116.212 85.4508C116.497 85.3727 116.791 85.5436 116.869 85.8317C116.947 86.1198 116.777 86.4145 116.49 86.4926C115.102 86.8702 113.718 87.2381 112.34 87.5995C112.294 87.6109 112.249 87.6174 112.204 87.6174L112.205 87.6158ZM3.69767 86.0222C3.67016 86.0222 3.64427 86.0205 3.61676 86.0156C3.32386 85.9717 3.12319 85.6966 3.16689 85.402C3.36917 84.0688 3.88538 82.6526 4.70097 81.1941C4.84662 80.9353 5.1735 80.8425 5.4308 80.989C5.6881 81.1355 5.78034 81.4643 5.6347 81.7232C4.88222 83.0677 4.40807 84.3586 4.22683 85.5631C4.18638 85.8301 3.9582 86.0205 3.69767 86.0205V86.0222ZM120.487 85.3678C120.253 85.3678 120.037 85.2115 119.971 84.9739C119.892 84.6874 120.057 84.3895 120.343 84.3097C121.725 83.9207 123.099 83.5268 124.463 83.128C124.748 83.0449 125.044 83.2093 125.127 83.4958C125.209 83.7823 125.046 84.0802 124.761 84.1632C123.394 84.562 122.017 84.9576 120.631 85.3466C120.583 85.3596 120.534 85.3662 120.486 85.3662L120.487 85.3678ZM128.726 82.9619C128.496 82.9619 128.282 82.8105 128.213 82.5778C128.127 82.2929 128.289 81.9918 128.572 81.9055C129.948 81.4904 131.313 81.0704 132.669 80.6456C132.951 80.556 133.252 80.7156 133.341 81.0004C133.428 81.2853 133.271 81.5864 132.988 81.676C131.629 82.1008 130.26 82.5224 128.881 82.9391C128.829 82.9554 128.778 82.9619 128.727 82.9619H128.726ZM136.919 80.3981C136.692 80.3981 136.482 80.2533 136.409 80.0238C136.319 79.7405 136.474 79.4361 136.755 79.345C138.124 78.9022 139.482 78.4546 140.827 78.0037C141.109 77.9093 141.411 78.0623 141.505 78.3455C141.599 78.6287 141.447 78.9331 141.165 79.0275C139.816 79.4801 138.455 79.9277 137.082 80.3721C137.027 80.39 136.972 80.3981 136.917 80.3981H136.919ZM7.64293 78.4839C7.52156 78.4839 7.39857 78.4415 7.29662 78.3569C7.07007 78.1648 7.04256 77.8246 7.23351 77.5967C8.09603 76.5696 9.10581 75.505 10.2321 74.4323C10.4473 74.2272 10.7872 74.237 10.9894 74.4535C11.1933 74.67 11.1836 75.0118 10.9684 75.2153C9.86962 76.2603 8.88897 77.294 8.05234 78.2918C7.94554 78.4188 7.79504 78.4839 7.64293 78.4839ZM145.06 77.67C144.839 77.67 144.63 77.53 144.554 77.307C144.457 77.0254 144.606 76.7193 144.885 76.6217C146.246 76.1496 147.594 75.6743 148.928 75.1957C149.208 75.0948 149.514 75.2413 149.612 75.5229C149.711 75.8029 149.567 76.1122 149.287 76.2115C147.949 76.6917 146.598 77.1686 145.233 77.6407C145.175 77.6602 145.117 77.67 145.059 77.67H145.06ZM153.142 74.7709C152.923 74.7709 152.719 74.6358 152.638 74.4177C152.536 74.1377 152.677 73.8284 152.956 73.7242C154.291 73.2277 155.64 72.7182 156.966 72.2087C157.241 72.1029 157.551 72.2413 157.658 72.5197C157.763 72.798 157.626 73.1089 157.349 73.2163C156.021 73.7275 154.666 74.2386 153.328 74.7367C153.266 74.7595 153.203 74.7709 153.142 74.7709ZM13.8327 72.5278C13.6773 72.5278 13.522 72.4594 13.4168 72.3292C13.2307 72.0981 13.2647 71.7578 13.4945 71.5706C14.5544 70.7047 15.7082 69.8159 16.9219 68.9287C17.1614 68.7529 17.4964 68.8083 17.6711 69.0492C17.8459 69.2901 17.7925 69.6271 17.5514 69.8029C16.3523 70.677 15.2163 71.5544 14.1709 72.409C14.0722 72.4903 13.9524 72.5294 13.8327 72.5294V72.5278ZM161.155 71.6879C160.942 71.6879 160.741 71.5592 160.657 71.3476C160.548 71.0709 160.683 70.7568 160.958 70.6477C162.29 70.117 163.625 69.575 164.931 69.0362C165.206 68.9222 165.518 69.0541 165.63 69.3292C165.741 69.6043 165.612 69.9201 165.337 70.0324C164.028 70.5728 162.688 71.1181 161.353 71.6504C161.288 71.6765 161.222 71.6879 161.155 71.6879ZM169.093 68.4062C168.884 68.4062 168.686 68.2841 168.599 68.079C168.483 67.8056 168.609 67.4882 168.882 67.3709C170.203 66.8045 171.523 66.2266 172.81 65.652C173.08 65.5299 173.397 65.6536 173.517 65.9255C173.637 66.1973 173.515 66.5164 173.245 66.6368C171.954 67.2131 170.628 67.7942 169.305 68.3623C169.237 68.3916 169.165 68.4062 169.094 68.4062H169.093ZM20.7636 67.4475C20.5904 67.4475 20.4189 67.3628 20.3153 67.2065C20.1519 66.9591 20.2199 66.6238 20.4658 66.4594C20.6762 66.3194 20.8882 66.1794 21.1018 66.0394C21.3494 65.8766 21.6827 65.9466 21.8446 66.1957C22.0064 66.4447 21.9368 66.7784 21.6892 66.9428C21.4772 67.0812 21.2685 67.2212 21.0597 67.3596C20.9691 67.4198 20.8655 67.4491 20.7636 67.4491V67.4475ZM176.935 64.9032C176.732 64.9032 176.538 64.7876 176.448 64.5907C176.323 64.3205 176.439 63.9998 176.71 63.8745C178.019 63.2657 179.322 62.6455 180.581 62.0351C180.846 61.9048 181.168 62.0188 181.296 62.2857C181.425 62.5543 181.314 62.8766 181.047 63.0052C179.783 63.6205 178.474 64.2423 177.16 64.8528C177.087 64.8869 177.011 64.9032 176.935 64.9032ZM184.66 61.1463C184.464 61.1463 184.277 61.0372 184.181 60.85C184.047 60.5847 184.154 60.2591 184.417 60.1257C185.707 59.468 186.985 58.8023 188.215 58.143C188.476 58.003 188.801 58.1023 188.94 58.366C189.079 58.6281 188.981 58.9553 188.719 59.0953C187.482 59.7578 186.197 60.4284 184.9 61.0877C184.822 61.1267 184.739 61.1463 184.658 61.1463H184.66ZM192.232 57.0866C192.044 57.0866 191.863 56.9873 191.764 56.8115C191.618 56.5527 191.711 56.2238 191.968 56.0773C193.24 55.3579 194.483 54.6302 195.667 53.9189C195.921 53.7659 196.25 53.8489 196.402 54.1045C196.554 54.36 196.472 54.6921 196.218 54.8435C195.027 55.5613 193.774 56.2922 192.494 57.0166C192.41 57.0638 192.321 57.0866 192.232 57.0866ZM199.588 52.6443C199.412 52.6443 199.24 52.5564 199.137 52.3969C198.977 52.1462 199.049 51.8125 199.297 51.6514C200.529 50.8554 201.721 50.0496 202.844 49.2602C203.085 49.0892 203.42 49.1478 203.59 49.392C203.76 49.6362 203.702 49.9715 203.459 50.1424C202.326 50.94 201.121 51.7539 199.878 52.5581C199.789 52.6167 199.687 52.6443 199.588 52.6443ZM206.607 47.6828C206.446 47.6828 206.289 47.6112 206.183 47.4745C206.001 47.2384 206.043 46.8999 206.276 46.7176C207.453 45.7979 208.555 44.8798 209.552 43.9878C209.773 43.7892 210.112 43.8103 210.309 44.0317C210.507 44.2547 210.486 44.5949 210.265 44.7935C209.251 45.7018 208.129 46.6345 206.935 47.5689C206.838 47.6454 206.721 47.6828 206.607 47.6828ZM212.982 41.9237C212.851 41.9237 212.72 41.8765 212.618 41.7788C212.401 41.5754 212.389 41.2352 212.591 41.017C213.626 39.8939 214.515 38.7886 215.227 37.7289C215.394 37.4815 215.727 37.418 215.971 37.5857C216.217 37.7533 216.28 38.0886 216.115 38.3344C215.371 39.4381 214.45 40.5889 213.377 41.7512C213.272 41.8651 213.128 41.9237 212.984 41.9237H212.982ZM217.603 34.7517C217.548 34.7517 217.492 34.7435 217.437 34.7256C217.156 34.6329 217.002 34.3301 217.093 34.0468C217.382 33.1499 217.53 32.2791 217.53 31.457C217.53 30.9915 217.483 30.5341 217.391 30.0946C217.329 29.8032 217.515 29.5167 217.805 29.4548C218.093 29.393 218.379 29.5786 218.441 29.8716C218.548 30.3827 218.603 30.9166 218.603 31.4554C218.603 32.3914 218.438 33.3746 218.114 34.3789C218.039 34.6068 217.831 34.7517 217.604 34.7517H217.603ZM215.487 27.0815C215.369 27.0815 215.251 27.0425 215.152 26.9627C214.207 26.2025 213.012 25.4668 211.6 24.7798C211.333 24.6496 211.223 24.3273 211.351 24.0587C211.481 23.7901 211.801 23.6795 212.068 23.808C213.55 24.5308 214.814 25.3089 215.822 26.1195C216.054 26.3051 216.091 26.6453 215.907 26.8781C215.801 27.0115 215.644 27.0799 215.487 27.0799V27.0815ZM207.856 23.2253C207.799 23.2253 207.743 23.2155 207.686 23.1976C206.382 22.7614 205.008 22.3821 203.603 22.0696C203.313 22.0061 203.131 21.718 203.195 21.4266C203.26 21.1368 203.547 20.9529 203.835 21.0164C205.275 21.3371 206.684 21.7261 208.024 22.1737C208.306 22.2682 208.456 22.5726 208.364 22.8558C208.29 23.0821 208.079 23.2253 207.856 23.2253ZM186.693 21.8563C186.447 21.8563 186.227 21.6854 186.17 21.4347C186.105 21.145 186.286 20.8552 186.576 20.7901C187.95 20.4792 189.397 20.253 190.881 20.1162C191.175 20.0869 191.437 20.3083 191.463 20.6046C191.491 20.9008 191.272 21.1629 190.978 21.1906C189.541 21.3224 188.139 21.5422 186.811 21.8417C186.772 21.8514 186.731 21.8547 186.693 21.8547V21.8563ZM199.493 21.3566C199.472 21.3566 199.449 21.3566 199.428 21.3533C198.014 21.1808 196.593 21.0782 195.205 21.0489C194.908 21.0424 194.674 20.7966 194.68 20.4988C194.687 20.2009 194.929 19.9518 195.227 19.9713C196.651 20.0007 198.109 20.1048 199.558 20.2823C199.852 20.3181 200.061 20.5867 200.025 20.8829C199.993 21.1564 199.761 21.3566 199.494 21.3566H199.493Z" fill="#71D4FF"/>
<path d="M159.461 209C159.247 209 159.045 208.871 158.962 208.658C158.854 208.381 158.988 208.067 159.265 207.958C200.028 191.767 226.367 152.608 226.367 108.199C226.365 49.1462 178.998 1.10201 120.777 1.10201C62.5561 1.10201 15.1871 49.1462 15.1871 108.199C15.1871 123.5 18.3022 138.276 24.4434 152.114C24.5648 152.385 24.4434 152.705 24.1732 152.827C23.903 152.949 23.5858 152.827 23.4644 152.555C17.2601 138.577 14.1142 123.653 14.1142 108.201C14.1142 79.3075 25.2089 52.143 45.3527 31.711C65.4997 11.2773 92.2847 0.0244168 120.777 0.0244168C149.269 0.0244168 176.054 11.2773 196.2 31.7093C216.345 52.1413 227.438 79.3059 227.438 108.199C227.438 130.384 220.865 151.705 208.429 169.855C196.276 187.593 179.411 201.115 159.658 208.961C159.594 208.987 159.527 208.998 159.461 208.998V209Z" fill="#019AED"/>
<path d="M208.121 138.975C215.785 131.266 215.785 118.767 208.121 111.058C200.457 103.349 188.032 103.349 180.368 111.058C172.704 118.767 172.704 131.266 180.368 138.975C188.032 146.684 200.457 146.684 208.121 138.975Z" fill="#71D4FF"/>
<path d="M194.276 145.303C192.496 145.303 190.703 145.064 188.939 144.579C183.744 143.153 179.411 139.778 176.739 135.074C174.067 130.371 173.376 124.902 174.794 119.677C176.211 114.452 179.566 110.092 184.243 107.406C188.918 104.719 194.353 104.024 199.549 105.45C204.744 106.876 209.078 110.25 211.748 114.954C214.419 119.657 215.11 125.127 213.693 130.352C212.275 135.577 208.921 139.936 204.244 142.622C201.156 144.396 197.737 145.303 194.274 145.303H194.276ZM194.213 105.806C190.934 105.806 187.698 106.664 184.773 108.344C180.346 110.888 177.169 115.015 175.828 119.962C174.486 124.91 175.14 130.086 177.669 134.54C180.199 138.994 184.301 142.189 189.22 143.538C194.14 144.888 199.286 144.23 203.713 141.686C208.141 139.142 211.317 135.015 212.659 130.068C214 125.12 213.347 119.944 210.817 115.49C208.288 111.036 204.186 107.841 199.268 106.492C197.598 106.033 195.9 105.806 194.214 105.806H194.213Z" fill="black"/>
<path d="M205.89 136.73C212.321 130.261 212.321 119.772 205.89 113.302C199.458 106.833 189.031 106.833 182.599 113.302C176.168 119.772 176.168 130.261 182.599 136.73C189.031 143.2 199.458 143.2 205.89 136.73Z" fill="#019AED"/>
<path d="M136.961 182.182C144.625 174.473 144.625 161.974 136.961 154.265C129.298 146.556 116.872 146.556 109.208 154.265C101.545 161.974 101.545 174.473 109.208 182.182C116.872 189.891 129.298 189.891 136.961 182.182Z" fill="#019AED"/>
<path d="M123.119 188.513C121.337 188.513 119.546 188.273 117.782 187.788C107.058 184.845 100.712 173.675 103.638 162.888C105.056 157.663 108.41 153.304 113.087 150.618C117.762 147.93 123.199 147.237 128.394 148.661C133.589 150.087 137.922 153.461 140.592 158.166C143.264 162.868 143.955 168.338 142.537 173.563C141.12 178.788 137.765 183.147 133.089 185.833C130.001 187.608 126.582 188.514 123.119 188.514V188.513ZM123.055 149.016C119.777 149.016 116.54 149.874 113.616 151.554C109.189 154.098 106.012 158.224 104.671 163.171C101.9 173.386 107.909 183.961 118.062 186.748C122.981 188.098 128.127 187.44 132.555 184.896C136.982 182.351 140.159 178.225 141.5 173.278C142.842 168.33 142.188 163.153 139.659 158.7C137.129 154.246 133.027 151.051 128.109 149.701C126.439 149.242 124.742 149.016 123.055 149.016Z" fill="black"/>
<path d="M134.73 179.937C141.162 173.468 141.162 162.979 134.73 156.509C128.299 150.04 117.871 150.04 111.44 156.509C105.008 162.979 105.008 173.468 111.44 179.937C117.871 186.407 128.299 186.407 134.73 179.937Z" fill="#71D4FF"/>
<path d="M98.0005 106.808C105.688 99.0755 105.688 86.5385 98.0005 78.806C90.3133 71.0734 77.85 71.0734 70.1628 78.806C62.4756 86.5385 62.4756 99.0755 70.1628 106.808C77.85 114.541 90.3133 114.541 98.0005 106.808Z" fill="#71D4FF"/>
<path d="M84.0819 113.148C72.9323 113.148 63.8604 104.024 63.8604 92.8068C63.8604 81.5897 72.9323 72.4659 84.0819 72.4659C95.2315 72.4659 104.303 81.5913 104.303 92.8068C104.303 104.022 95.2331 113.148 84.0819 113.148ZM84.0819 73.5452C73.5229 73.5452 64.9333 82.1855 64.9333 92.8068C64.9333 103.428 73.5229 112.068 84.0819 112.068C94.6409 112.068 103.23 103.428 103.23 92.8068C103.23 82.1855 94.6409 73.5452 84.0819 73.5452Z" fill="black"/>
<path d="M95.7623 104.557C102.213 98.0675 102.213 87.5465 95.7623 81.0574C89.3112 74.5682 78.852 74.5682 72.401 81.0574C65.9499 87.5465 65.9499 98.0675 72.401 104.557C78.852 111.046 89.3112 111.046 95.7623 104.557Z" fill="#019AED"/>
<path d="M91.9336 85.5241C91.9368 85.2359 91.8348 85.0764 91.5905 84.9364C90.3655 84.2397 89.1437 83.5365 87.9317 82.8154C87.6954 82.6738 87.5271 82.6917 87.3006 82.8268C86.629 83.2256 85.951 83.613 85.2745 84.0053L84.8327 84.2625C84.6111 84.3911 84.391 84.5213 84.1709 84.6532C84.1385 84.6727 84.1062 84.689 84.077 84.702L77.8889 88.3059C77.4714 88.6217 77.0296 88.9392 76.7124 89.3445C74.7431 91.8627 76.1752 94.7113 77.918 95.7759C78.5135 96.1389 79.1301 96.4644 79.7207 96.8323C79.9797 96.9935 80.1739 96.9935 80.436 96.8356C80.504 96.7949 80.5703 96.7542 80.6383 96.7135C80.6383 97.8611 80.6383 99.3375 80.6302 100.513C80.627 100.985 80.6237 101.408 80.6205 101.743L83.3747 103.329L83.5802 103.448C83.5802 103.448 83.5932 103.454 83.5997 103.457C83.7955 103.552 83.9638 103.553 84.179 103.425C85.3894 102.704 86.608 101.996 87.8346 101.301C88.0806 101.161 88.1744 101.008 88.1712 100.718C88.155 99.3782 88.1631 98.0385 88.1631 96.6988C88.1631 95.3592 88.1728 94.052 88.1566 92.7287C88.1534 92.4405 88.2424 92.2859 88.4932 92.1459C89.5337 91.5632 90.5548 90.9511 91.5937 90.3651C91.8429 90.2251 91.9352 90.0623 91.932 89.7775C91.919 88.3597 91.9174 86.9419 91.932 85.5257L91.9336 85.5241ZM79.5185 95.4373C79.0832 95.1882 78.7142 95.0206 78.3938 94.7846C77.4342 94.0732 76.8597 93.134 76.8824 91.9017C76.8937 91.2718 77.2416 91.0667 77.8064 91.3564C78.3274 91.625 78.8323 91.9278 79.334 92.2338C79.4198 92.2875 79.5088 92.4226 79.5104 92.5203C79.5233 93.4644 79.5185 94.4085 79.5185 95.4389V95.4373ZM80.3454 91.2311C80.203 91.3125 79.9327 91.2832 79.7741 91.2034C79.0379 90.8323 78.3194 90.4253 77.5442 90.0037C77.8808 89.6342 78.2773 89.3412 78.7013 89.0759C78.9553 88.9164 79.2191 88.7682 79.4893 88.6185H79.4926L80.8114 87.8534L80.8195 87.8485L85.5415 85.1139C86.1435 84.7655 86.7471 84.4204 87.354 84.0818C87.4867 84.0086 87.7164 83.9777 87.8378 84.0444C88.6502 84.4888 89.4447 84.9657 90.2668 85.4443C90.2004 85.4996 90.1616 85.5485 90.1098 85.5794C86.8572 87.4676 83.6061 89.3591 80.3454 91.2327V91.2311ZM83.3019 102.053C83.2906 102.044 83.276 102.038 83.2631 102.03C82.7404 101.732 82.2177 101.434 81.6982 101.133L81.7015 96.09C82.2225 95.7889 82.7533 95.4878 83.3003 95.1703V102.051L83.3019 102.053ZM90.8429 89.3298C90.8396 89.4535 90.6811 89.6147 90.5564 89.6879C89.5451 90.2902 88.532 90.8909 87.5012 91.4574C87.1679 91.6397 87.0643 91.8529 87.0675 92.2257C87.0837 94.8236 87.0708 97.4232 87.0821 100.023C87.0821 100.335 87.0093 100.531 86.7148 100.687C86.0302 101.048 85.3716 101.455 84.6984 101.838C84.6143 101.885 84.5156 101.905 84.3699 101.955V93.2886C83.4637 93.8128 82.5899 94.3158 81.7047 94.8269C81.3519 95.0303 80.9975 95.2355 80.6383 95.4422C80.635 95.4438 80.6334 95.4454 80.6302 95.4471C80.6302 94.5013 80.648 93.6614 80.6221 92.8231C80.6108 92.4682 80.7176 92.2745 81.0331 92.0938C83.4394 90.7183 85.8312 89.3184 88.2278 87.9283C89.0806 87.4335 89.9334 86.9435 90.8574 86.4112C90.8574 87.44 90.8688 88.3841 90.8445 89.3266L90.8429 89.3298Z" fill="black"/>
<path d="M130.302 161.281C130.305 160.993 130.203 160.834 129.959 160.694C128.734 159.997 127.512 159.294 126.3 158.573C126.064 158.431 125.895 158.449 125.669 158.584C124.997 158.983 124.319 159.37 123.643 159.763L123.201 160.02C122.979 160.148 122.759 160.279 122.539 160.411C122.507 160.43 122.475 160.446 122.445 160.459L116.257 164.063C115.84 164.379 115.398 164.696 115.081 165.102C113.111 167.62 114.544 170.469 116.286 171.533C116.882 171.896 117.498 172.222 118.089 172.59C118.348 172.751 118.542 172.751 118.804 172.593C118.872 172.552 118.939 172.511 119.007 172.471C119.007 173.618 119.007 175.095 118.999 176.27C118.995 176.742 118.992 177.165 118.989 177.501L121.743 179.086L121.949 179.205C121.949 179.205 121.962 179.211 121.968 179.215C122.164 179.309 122.332 179.311 122.547 179.182C123.758 178.461 124.976 177.753 126.203 177.058C126.449 176.918 126.543 176.765 126.54 176.475C126.523 175.135 126.531 173.796 126.531 172.456C126.531 171.116 126.541 169.809 126.525 168.486C126.522 168.198 126.611 168.043 126.862 167.903C127.902 167.32 128.923 166.708 129.962 166.122C130.211 165.982 130.304 165.82 130.3 165.535C130.287 164.117 130.286 162.699 130.3 161.283L130.302 161.281ZM117.887 171.195C117.452 170.946 117.083 170.778 116.762 170.542C115.803 169.831 115.228 168.891 115.251 167.659C115.262 167.029 115.61 166.824 116.175 167.114C116.696 167.382 117.201 167.685 117.702 167.991C117.788 168.045 117.877 168.18 117.879 168.278C117.892 169.222 117.887 170.166 117.887 171.196V171.195ZM118.712 166.988C118.57 167.07 118.299 167.04 118.141 166.961C117.405 166.59 116.686 166.183 115.911 165.761C116.248 165.392 116.644 165.099 117.068 164.833C117.322 164.674 117.586 164.526 117.856 164.376H117.859L119.178 163.611L119.186 163.606L123.908 160.871C124.51 160.523 125.114 160.178 125.721 159.839C125.853 159.766 126.083 159.735 126.205 159.802C127.017 160.246 127.811 160.723 128.634 161.202C128.567 161.257 128.528 161.306 128.477 161.337C125.224 163.225 121.973 165.116 118.712 166.99V166.988ZM121.669 177.81C121.657 177.802 121.643 177.795 121.63 177.787C121.107 177.489 120.584 177.191 120.065 176.89L120.068 171.847C120.589 171.546 121.12 171.245 121.667 170.928V177.808L121.669 177.81ZM129.211 165.087C129.208 165.211 129.049 165.372 128.925 165.445C127.913 166.048 126.9 166.648 125.87 167.215C125.536 167.397 125.433 167.61 125.436 167.983C125.452 170.581 125.439 173.181 125.45 175.78C125.45 176.093 125.378 176.288 125.083 176.444C124.399 176.806 123.74 177.213 123.067 177.595C122.983 177.642 122.884 177.662 122.738 177.712V169.046C121.832 169.57 120.958 170.073 120.073 170.584C119.72 170.788 119.366 170.993 119.007 171.199C119.003 171.201 119.002 171.203 118.999 171.204C118.999 170.259 119.016 169.419 118.99 168.58C118.979 168.226 119.086 168.032 119.402 167.851C121.808 166.476 124.2 165.076 126.596 163.686C127.449 163.191 128.302 162.701 129.226 162.169C129.226 163.197 129.237 164.141 129.213 165.084L129.211 165.087Z" fill="black"/>
<path d="M202.173 117.575C202.176 117.287 202.074 117.128 201.83 116.988C200.605 116.291 199.383 115.588 198.171 114.867C197.934 114.725 197.766 114.743 197.54 114.878C196.868 115.277 196.19 115.664 195.514 116.056L195.072 116.314C194.85 116.442 194.63 116.573 194.41 116.704C194.378 116.724 194.345 116.74 194.316 116.753L188.128 120.357C187.71 120.673 187.269 120.99 186.951 121.396C184.982 123.914 186.414 126.762 188.157 127.827C188.753 128.19 189.369 128.516 189.96 128.883C190.219 129.045 190.413 129.045 190.675 128.887C190.743 128.846 190.809 128.805 190.877 128.765C190.877 129.912 190.877 131.389 190.869 132.564C190.866 133.036 190.863 133.459 190.86 133.795L193.614 135.38L193.819 135.499C193.819 135.499 193.832 135.505 193.839 135.509C194.035 135.603 194.203 135.605 194.418 135.476C195.628 134.755 196.847 134.047 198.074 133.352C198.32 133.212 198.413 133.059 198.41 132.769C198.394 131.429 198.402 130.09 198.402 128.75C198.402 127.41 198.412 126.103 198.396 124.78C198.392 124.492 198.481 124.337 198.732 124.197C199.773 123.614 200.794 123.002 201.833 122.416C202.082 122.276 202.174 122.113 202.171 121.829C202.158 120.411 202.156 118.993 202.171 117.577L202.173 117.575ZM189.758 127.488C189.322 127.239 188.953 127.072 188.633 126.836C187.673 126.124 187.099 125.185 187.121 123.953C187.133 123.323 187.481 123.118 188.045 123.408C188.566 123.676 189.071 123.979 189.573 124.285C189.659 124.339 189.748 124.474 189.749 124.571C189.762 125.516 189.758 126.46 189.758 127.49V127.488ZM190.584 123.282C190.442 123.364 190.172 123.334 190.013 123.255C189.277 122.883 188.558 122.476 187.783 122.055C188.12 121.685 188.516 121.392 188.94 121.127C189.194 120.968 189.458 120.819 189.728 120.67H189.732L191.05 119.905L191.059 119.9L195.781 117.165C196.383 116.817 196.986 116.472 197.593 116.133C197.726 116.06 197.956 116.029 198.077 116.096C198.889 116.54 199.684 117.017 200.506 117.495C200.439 117.551 200.401 117.6 200.349 117.631C197.096 119.519 193.845 121.41 190.584 123.284V123.282ZM193.541 134.104C193.53 134.096 193.515 134.089 193.502 134.081C192.979 133.783 192.457 133.485 191.937 133.184L191.941 128.141C192.462 127.84 192.992 127.539 193.539 127.221V134.102L193.541 134.104ZM201.082 121.381C201.079 121.505 200.92 121.666 200.795 121.739C199.784 122.341 198.771 122.942 197.74 123.509C197.407 123.691 197.303 123.904 197.307 124.277C197.323 126.875 197.31 129.474 197.321 132.074C197.321 132.386 197.248 132.582 196.954 132.738C196.269 133.099 195.611 133.506 194.937 133.889C194.853 133.936 194.755 133.956 194.609 134.006V125.34C193.703 125.864 192.829 126.367 191.944 126.878C191.591 127.082 191.237 127.287 190.877 127.493C190.874 127.495 190.872 127.497 190.869 127.498C190.869 126.552 190.887 125.713 190.861 124.874C190.85 124.519 190.957 124.326 191.272 124.145C193.678 122.769 196.07 121.37 198.467 119.979C199.32 119.485 200.172 118.995 201.096 118.462C201.096 119.491 201.108 120.435 201.084 121.378L201.082 121.381Z" fill="black"/>
</svg>
