<svg width="243" height="175" viewBox="0 0 243 175" fill="none" xmlns="http://www.w3.org/2000/svg">
<path d="M75.7549 151.689H6.50664C4.68423 151.689 2.93707 150.915 1.70686 149.571C0.476652 148.224 -0.13518 146.411 0.0251398 144.595L12.3403 5.94364C12.6413 2.55711 15.4256 0.00327835 18.8185 0.00327835H59.8113C60.0632 0.00327835 60.2661 0.206536 60.2661 0.458969C60.2661 0.711401 60.0632 0.914659 59.8113 0.914659H18.8185C15.9001 0.914659 13.5018 3.11115 13.2433 6.0256L0.931437 144.673C0.79402 146.237 1.32078 147.798 2.37759 148.955C3.43439 150.112 4.93943 150.778 6.50664 150.778H75.7516C76.0036 150.778 76.2064 150.981 76.2064 151.233C76.2064 151.486 76.0036 151.689 75.7516 151.689H75.7549Z" fill="#019AED"/>
<path d="M224.181 151.689H110.273C110.021 151.689 109.818 151.486 109.818 151.233C109.818 150.981 110.021 150.778 110.273 150.778H224.181C227.1 150.778 229.498 148.581 229.757 145.667L242.069 7.01566C242.206 5.45189 241.679 3.8914 240.622 2.73414C239.566 1.57689 238.061 0.911381 236.493 0.911381H59.8113C59.5594 0.911381 59.3565 0.708123 59.3565 0.45569C59.3565 0.203258 59.5594 0 59.8113 0H236.493C238.316 0 240.063 0.77369 241.293 2.11781C242.523 3.46521 243.135 5.27814 242.975 7.09434L230.663 145.745C230.362 149.132 227.578 151.686 224.181 151.686V151.689Z" fill="#019AED"/>
<path d="M79.8905 137.028L16.8129 136.825C12.8769 136.825 11.9739 133.691 12.3239 129.764L16.0211 89.5808C16.3287 86.1156 17.3789 83.6306 20.8503 83.6306L84.3337 83.4274C88.2697 83.4274 88.9993 86.8434 88.6525 90.7709L84.9553 130.954C84.6478 134.419 83.3652 137.028 79.8938 137.028H79.8905Z" fill="#019AED"/>
<path d="M35.1679 110.539L24.0077 110.572C23.0621 110.572 22.3161 109.615 22.3914 108.49L22.9509 100.124C23.0163 99.1208 23.7197 98.3471 24.5639 98.3471H35.8288C36.7841 98.3471 37.5301 99.3274 37.4385 100.458L36.7743 108.792C36.6958 109.779 35.9989 110.536 35.1679 110.539Z" fill="#71D4FF"/>
<path d="M71.6161 137.458L16.8129 137.281C15.2555 137.281 14.0384 136.812 13.1943 135.887C12.0491 134.632 11.614 132.616 11.8724 129.724L15.5696 89.5415C15.8314 86.5779 16.6722 83.1782 20.8503 83.1782L77.2665 82.9979C77.5152 82.9979 77.7213 83.2012 77.7213 83.4503C77.7213 83.7028 77.5184 83.906 77.2698 83.906L20.8503 84.0863C18.0889 84.0863 16.8227 85.6894 16.4726 89.6235L12.7755 129.806C12.5464 132.393 12.9129 134.232 13.865 135.274C14.539 136.012 15.5042 136.369 16.8129 136.369L71.6161 136.546C71.868 136.546 72.0708 136.753 72.0676 137.002C72.0676 137.255 71.8647 137.455 71.6128 137.455L71.6161 137.458Z" fill="#019AED"/>
<path d="M146.404 41.8973L140.498 33.6785H103.376C102.613 33.6785 101.884 33.3539 101.367 32.79C100.847 32.2229 100.588 31.4557 100.657 30.6919L101.913 17.0376C102.038 15.6312 103.206 14.569 104.632 14.569H152.257C153.026 14.569 153.759 14.8935 154.276 15.4574C154.789 16.018 155.044 16.7753 154.976 17.5359L153.719 31.1705C153.595 32.5769 152.401 33.6817 151 33.6817H147.467L146.41 41.9006L146.404 41.8973ZM104.629 15.4738C103.677 15.4738 102.898 16.1786 102.816 17.1163L101.56 30.7706C101.514 31.282 101.687 31.7934 102.034 32.1737C102.384 32.5573 102.859 32.7671 103.372 32.7671H140.962L145.798 39.4943L146.665 32.7671H150.997C151.93 32.7671 152.728 32.0262 152.81 31.082L154.066 17.4474C154.112 16.9359 153.945 16.4442 153.602 16.0672C153.251 15.6836 152.774 15.4738 152.254 15.4738H104.629Z" fill="#019AED"/>
<path d="M97.0938 34.6259H86.7941C86.5192 34.6259 86.3033 34.4587 86.3295 34.2686L86.588 32.3016C86.6109 32.1311 86.8104 32.0032 87.0525 32.0032H97.3523C97.6271 32.0032 97.843 32.1704 97.8169 32.3606L97.5584 34.3276C97.5355 34.498 97.3359 34.6259 97.0938 34.6259Z" fill="#71D4FF"/>
<path d="M110.469 38.3862H86.3033C86.0285 38.3862 85.8125 38.219 85.8387 38.0288L86.0972 36.0618C86.1201 35.8913 86.3197 35.7635 86.5618 35.7635H110.728C111.002 35.7635 111.218 35.9307 111.192 36.1208L110.934 38.0878C110.911 38.2583 110.711 38.3862 110.469 38.3862Z" fill="#71D4FF"/>
<path d="M126.131 42.1432H85.8125C85.5377 42.1432 85.3218 41.976 85.3479 41.7858L85.6064 39.8188C85.6293 39.6483 85.8289 39.5205 86.071 39.5205H126.39C126.665 39.5205 126.881 39.6877 126.854 39.8778L126.596 41.8448C126.573 42.0153 126.373 42.1432 126.131 42.1432Z" fill="#71D4FF"/>
<path d="M118.181 21.1126H107.881C107.606 21.1126 107.39 20.9454 107.416 20.7552L107.675 18.7882C107.698 18.6177 107.897 18.4899 108.139 18.4899H118.439C118.714 18.4899 118.93 18.6571 118.904 18.8472L118.645 20.8142C118.622 20.9847 118.423 21.1126 118.181 21.1126Z" fill="#71D4FF"/>
<path d="M131.556 24.8695H107.39C107.115 24.8695 106.899 24.7023 106.926 24.5122L107.184 22.5452C107.207 22.3747 107.407 22.2469 107.649 22.2469H131.814C132.089 22.2469 132.305 22.4141 132.279 22.6042L132.021 24.5712C131.998 24.7417 131.798 24.8695 131.556 24.8695Z" fill="#71D4FF"/>
<path d="M147.218 28.6298H106.899C106.625 28.6298 106.409 28.4626 106.435 28.2725L106.693 26.3055C106.716 26.135 106.916 26.0071 107.158 26.0071H147.477C147.752 26.0071 147.967 26.1743 147.941 26.3645L147.683 28.3315C147.66 28.502 147.46 28.6298 147.218 28.6298Z" fill="#71D4FF"/>
<path d="M197.336 13.6248L197.595 9.56622C197.735 7.36645 195.991 5.50762 193.793 5.50762H166.735C164.726 5.50762 163.06 7.0714 162.933 9.08102L159.641 66.4882C159.501 68.6879 161.245 70.55 163.443 70.55L224.42 71.8319C226.429 71.8319 228.095 70.2681 228.222 68.2585L230.984 17.6867C231.124 15.4869 229.38 13.6281 227.182 13.6281H197.336V13.6248Z" fill="#019AED"/>
<path d="M220.072 68.5994H165.213L168.325 24.0827C168.498 21.6207 170.563 19.6898 173.026 19.6898H217.19L223.406 26.4464L220.072 68.6027V68.5994ZM166.185 67.688H219.231L222.467 26.7677L216.79 20.5979H173.023C171.034 20.5979 169.365 22.1551 169.228 24.145L166.185 67.688Z" fill="#71D4FF"/>
<path d="M222.938 27.0628C222.938 27.0628 222.928 27.0628 222.925 27.0628L216.208 26.8628C216.084 26.8595 215.966 26.8038 215.884 26.712C215.802 26.6202 215.76 26.4956 215.77 26.371L216.27 20.5454C216.293 20.2962 216.512 20.1094 216.761 20.1323C217.01 20.1553 217.196 20.3749 217.173 20.6241L216.712 25.9711L222.948 26.1579C223.2 26.1645 223.396 26.3743 223.39 26.6267C223.383 26.8726 223.18 27.0693 222.935 27.0693L222.938 27.0628Z" fill="#71D4FF"/>
<path d="M224.293 72.0056H163.234C161.343 72.0056 159.736 70.9074 159.465 69.4256L154.609 43.0414C154.276 41.2252 156.055 39.5959 158.378 39.5959H219.437C221.328 39.5959 222.935 40.6941 223.206 42.1759L228.062 68.5601C228.396 70.3763 226.616 72.0056 224.293 72.0056Z" fill="#019AED"/>
<path d="M224.293 72.4613H181.18C180.928 72.4613 180.725 72.2581 180.725 72.0056C180.725 71.7532 180.928 71.5499 181.18 71.5499H224.293C225.448 71.5499 226.508 71.1041 227.129 70.3533C227.427 69.9927 227.754 69.4026 227.617 68.642L222.762 42.2579C222.529 40.999 221.103 40.0516 219.437 40.0516H158.378C157.223 40.0516 156.163 40.4974 155.542 41.2482C155.244 41.6088 154.917 42.1989 155.054 42.9595L157.331 55.3319C157.377 55.5778 157.214 55.8171 156.968 55.863C156.723 55.9089 156.484 55.745 156.438 55.4991L154.161 43.1267C154.001 42.2612 154.243 41.3891 154.842 40.6679C155.633 39.7139 156.955 39.1435 158.378 39.1435H219.437C221.567 39.1435 223.341 40.386 223.655 42.094L228.51 68.4781C228.67 69.3436 228.428 70.2156 227.83 70.9369C227.038 71.8909 225.716 72.4613 224.293 72.4613Z" fill="#71D4FF"/>
<path d="M67.33 25.7285C66.3059 24.6106 64.5685 24.545 63.4627 25.5842L55.463 33.0916C54.7629 33.7473 53.6635 33.708 53.0157 32.9998L50.3753 30.1215C49.3513 29.0035 47.6139 28.938 46.508 29.9772L37.5334 38.3993L36.9412 44.0512L69.7086 43.0316L71.0926 29.833L67.3332 25.735L67.33 25.7285Z" fill="#71D4FF"/>
<path d="M56.1959 19.9553C55.9603 22.1911 53.9711 24.0598 51.7462 24.1286C49.5247 24.1975 47.9116 22.4403 48.1472 20.2045C48.3828 17.9686 50.3721 16.1 52.5969 16.0311C54.8185 15.9623 56.4315 17.7195 56.1959 19.9553Z" fill="#71D4FF"/>
<path d="M15.7397 68.7174C15.0167 68.7174 14.3263 68.4191 13.8323 67.888C13.3186 67.3372 13.0667 66.5898 13.1452 65.8391L17.4934 23.0763C17.6276 21.7813 18.704 20.7749 20.0029 20.7323L59.2158 19.4308C59.9683 19.4045 60.6947 19.7094 61.2084 20.2602C61.722 20.8109 61.974 21.5584 61.8954 22.3092L57.5472 65.0719C57.413 66.3669 56.3366 67.3733 55.0377 67.4159L15.8248 68.7174C15.7954 68.7174 15.7659 68.7174 15.7397 68.7174ZM59.2453 20.3389L20.0324 21.6404C19.1882 21.6666 18.4848 22.3255 18.3965 23.1681L14.0482 65.9308C13.9991 66.4193 14.1627 66.9078 14.4964 67.2684C14.8302 67.629 15.3013 67.8224 15.7954 67.8093L55.0082 66.5078C55.8524 66.4816 56.5558 65.8227 56.6442 64.9801L60.9924 22.2174C61.0415 21.7289 60.8779 21.2404 60.5442 20.8798C60.2105 20.5192 59.7328 20.3258 59.2453 20.3389Z" fill="#019AED"/>
<path d="M50.2183 38.3632C49.1909 37.2486 47.4536 37.1863 46.351 38.2255L38.3677 45.7493C37.6708 46.4083 36.5682 46.3689 35.9204 45.6608L33.2735 42.7857C32.2461 41.6711 30.5088 41.6088 29.4062 42.648L20.4479 51.0865L19.8655 56.7384L52.6296 55.6499L53.9874 42.4513L50.2183 38.3599V38.3632Z" fill="#71D4FF"/>
<path d="M39.0712 32.613C38.8421 34.8488 36.8529 36.7208 34.6313 36.7962C32.4097 36.8716 30.7934 35.1177 31.0257 32.8818C31.2548 30.646 33.244 28.7741 35.4656 28.6987C37.6872 28.6265 39.3035 30.3772 39.0712 32.613Z" fill="#71D4FF"/>
<path d="M34.4971 37.2519C33.3553 37.2519 32.3279 36.8191 31.5918 36.0258C30.8131 35.1865 30.4499 34.0522 30.5775 32.8326C30.8294 30.3804 33.0183 28.3216 35.4525 28.243C36.2083 28.2167 36.9412 28.3872 37.5661 28.7314C37.7853 28.8527 37.8671 29.1281 37.7461 29.3478C37.625 29.5674 37.3502 29.6494 37.131 29.5281C36.6467 29.2625 36.0774 29.1347 35.4852 29.1511C33.4861 29.2166 31.6899 30.9115 31.4838 32.9244C31.3856 33.8817 31.6605 34.7603 32.2592 35.4029C32.8481 36.0356 33.6857 36.3634 34.6215 36.3372C35.5867 36.3044 36.5355 35.8946 37.2913 35.1799C37.4745 35.0062 37.7624 35.016 37.9326 35.1996C38.106 35.3832 38.0962 35.6717 37.9129 35.8422C36.9935 36.7077 35.8353 37.206 34.6509 37.2453C34.6018 37.2453 34.5495 37.2453 34.5004 37.2453L34.4971 37.2519Z" fill="#71D4FF"/>
<path d="M22.4175 49.6866C22.2965 49.6866 22.1754 49.6375 22.0871 49.5424C21.9137 49.3588 21.9235 49.0703 22.1067 48.8998L29.0365 42.3694C29.6745 41.7694 30.5055 41.4645 31.3791 41.4875C32.2527 41.517 33.0608 41.8907 33.6563 42.5333L36.277 45.3789C36.5028 45.6215 36.8071 45.7625 37.1375 45.7756C37.4712 45.792 37.7853 45.6674 38.0242 45.4412L45.9813 37.9436C46.6193 37.3437 47.4503 37.0257 48.3239 37.0617C49.1975 37.0912 50.0056 37.465 50.6011 38.1075L51.298 38.8648C51.4681 39.0484 51.455 39.3369 51.2718 39.5074C51.0886 39.6778 50.8007 39.668 50.6305 39.4811L49.9336 38.7238C49.505 38.2583 48.9226 37.9928 48.2944 37.9698C47.663 37.9534 47.0642 38.1731 46.6062 38.6058L38.6491 46.1034C38.2303 46.4968 37.6839 46.7066 37.1081 46.6837C36.5322 46.664 36.0022 46.4181 35.6128 45.9952L32.9921 43.1496C32.5635 42.6841 31.9811 42.4185 31.3529 42.3956C30.7247 42.3759 30.1227 42.5988 29.6646 43.0316L22.7349 49.562C22.6466 49.644 22.5353 49.6866 22.4241 49.6866H22.4175Z" fill="#71D4FF"/>
<path d="M218.835 136.396H178.16C176.776 136.396 175.69 135.209 175.811 133.829L180.329 81.6603C180.434 80.431 181.464 79.4934 182.695 79.4999L222.964 79.7851C224.322 79.795 225.392 80.9457 225.3 82.3029C224.676 91.8265 221.917 125.361 221.184 134.232C221.083 135.458 220.062 136.399 218.832 136.399L218.835 136.396Z" fill="#71D4FF"/>
<path d="M119.83 188.993C116.702 188.993 113.581 187.79 111.254 185.423C100.411 174.385 81.6475 153.384 77.8227 136.782C77.8227 136.769 77.8162 136.756 77.8162 136.743L71.495 91.0659C70.9519 88.6694 72.1068 86.2402 74.312 85.1583L88.4464 78.205C99.9076 72.5695 110.62 65.4751 120.288 57.1186L123.929 53.9714C126.02 52.1651 129.086 52.2601 131.059 54.1976C141.565 64.5015 153.5 73.1793 166.535 79.9917L175.778 84.824C178.114 86.0435 179.191 88.8268 178.294 91.3052L166.221 142.405C166.218 142.421 166.211 142.441 166.205 142.457C160.934 156.797 139.686 176.041 127.492 186.236C125.281 188.085 122.552 189 119.826 189L119.83 188.993ZM78.7127 136.599C82.5014 152.981 101.131 173.821 111.902 184.787C115.923 188.879 122.516 189.21 126.91 185.535C139.029 175.405 160.129 156.305 165.344 142.166L177.417 91.0659C177.421 91.0495 177.427 91.0299 177.434 91.0135C178.189 88.9579 177.296 86.6402 175.359 85.6271L166.116 80.7949C153.003 73.9398 140.995 65.2096 130.424 54.8435C128.791 53.2404 126.256 53.1617 124.525 54.6566L120.883 57.8038C111.156 66.2095 100.379 73.3465 88.8488 79.018L74.7145 85.9714C72.8855 86.8696 71.9269 88.8891 72.3849 90.8791C72.3849 90.8922 72.3915 90.9053 72.3915 90.9184L78.7127 136.596V136.599Z" fill="#019AED"/>
<path d="M83.1951 91.6331L94.8984 85.8763C104.423 81.1916 113.309 75.3069 121.341 68.3634L124.358 65.7571C125.928 64.3999 128.271 64.4753 129.753 65.9276C138.473 74.4775 148.399 81.6964 159.216 87.3516L166.869 91.3512C168.645 92.2822 169.46 94.3902 168.767 96.2752L158.765 138.605C154.413 150.447 136.693 166.445 126.822 174.693C123 177.886 117.376 177.601 113.885 174.047C105.018 165.019 89.4573 147.64 86.3033 133.953L81.0684 96.1179C80.6528 94.3082 81.533 92.4494 83.1983 91.6331H83.1951Z" fill="#71D4FF"/>
<path d="M114.994 106.517C114.817 106.517 114.595 106.451 114.359 106.228C113.653 106.274 111.667 106.33 110.855 105.602C110.6 105.373 110.462 105.078 110.459 104.753L110.737 91.1053C110.646 87.1844 112.115 83.5159 114.876 80.7981C117.615 78.1001 121.292 76.7068 125.218 76.8608C125.245 76.8608 125.271 76.8641 125.297 76.8707C132.276 77.1985 138.296 83.4175 138.46 90.4857L138.63 104.186C138.63 104.31 138.581 104.432 138.492 104.517C138.404 104.606 138.283 104.648 138.159 104.645L133.061 104.438C132.819 104.428 132.629 104.232 132.626 103.989L132.41 90.4299C132.315 86.2894 129.02 82.8996 124.908 82.7094C122.715 82.6111 120.641 83.4044 119.064 84.9485C117.5 86.4795 116.633 88.6137 116.682 90.7971C116.682 90.8299 116.793 94.5148 116.708 98.2226C116.528 106.009 115.694 106.314 115.249 106.474C115.184 106.497 115.099 106.517 114.997 106.517H114.994ZM114.542 105.301C114.68 105.301 114.814 105.363 114.899 105.474C114.929 105.51 114.951 105.54 114.974 105.56C115.714 104.586 115.966 97.2719 115.769 90.8168C115.714 88.3777 116.682 85.9976 118.423 84.2929C120.183 82.5717 122.496 81.6833 124.944 81.798C129.531 82.0079 133.208 85.7911 133.31 90.4103L133.519 103.543L137.71 103.714L137.547 90.4988C137.393 83.87 131.726 78.0411 125.176 77.7722C125.15 77.7722 125.124 77.769 125.101 77.7624C121.459 77.6313 118.05 78.9393 115.511 81.4407C112.933 83.9814 111.559 87.4106 111.644 91.0987L111.366 104.753C111.366 104.789 111.379 104.848 111.46 104.924C111.922 105.337 113.515 105.396 114.503 105.304C114.516 105.304 114.533 105.304 114.546 105.304L114.542 105.301Z" fill="black"/>
<path d="M127.42 141.261L121.711 141.487C113.806 141.29 106.818 131.822 107.57 120.699L108.771 102.901L142.369 102.632C145.35 102.619 147.85 105.284 147.644 108.264L146.606 123.295C145.926 133.409 137.54 141.264 127.424 141.264L127.42 141.261Z" fill="#019AED"/>
<path d="M121.914 141.438C112.206 141.438 103.83 134.193 102.437 124.584C102.401 124.335 102.574 124.105 102.819 124.069C103.065 124.033 103.297 124.203 103.333 124.453C104.665 133.619 112.651 140.53 121.911 140.53C131.749 140.53 139.978 132.826 140.642 122.987L141.784 106.064C141.826 105.425 141.61 104.815 141.172 104.347C140.733 103.878 140.141 103.619 139.503 103.619H106.674C105.352 103.619 104.246 104.655 104.158 105.976L103.997 108.333C103.981 108.582 103.759 108.769 103.513 108.756C103.264 108.74 103.075 108.523 103.091 108.271L103.251 105.914C103.372 104.117 104.877 102.707 106.674 102.707H139.503C140.383 102.707 141.234 103.078 141.836 103.724C142.438 104.369 142.749 105.245 142.69 106.127L141.548 123.049C140.851 133.363 132.227 141.441 121.911 141.441L121.914 141.438Z" fill="black"/>
<path d="M121.472 130.068C120.566 130.068 119.846 129.301 119.905 128.393L120.759 114.978C120.811 114.149 121.498 113.506 122.326 113.506C123.232 113.506 123.952 114.273 123.893 115.181L123.039 128.596C122.987 129.426 122.3 130.068 121.472 130.068Z" fill="black"/>
<path d="M127.734 117.135C128.245 113.977 126.105 111.002 122.953 110.489C119.802 109.977 116.832 112.121 116.32 115.279C115.809 118.437 117.949 121.413 121.101 121.925C124.252 122.438 127.222 120.293 127.734 117.135Z" fill="black"/>
<path d="M72.8921 174.041C72.8266 174.041 72.7645 174.028 72.7023 173.998C62.0852 169.055 52.5249 162.973 44.2897 155.928C44.1 155.764 44.0771 155.479 44.2407 155.285C44.4042 155.095 44.6889 155.072 44.8819 155.236C53.055 162.232 62.5465 168.264 73.0884 173.175C73.3141 173.28 73.4156 173.552 73.3076 173.779C73.2323 173.946 73.0655 174.041 72.8953 174.041H72.8921Z" fill="#019AED"/>
<path d="M96.1515 182.492C96.1122 182.492 96.073 182.486 96.0337 182.476C91.9079 181.361 87.7952 180.06 83.8102 178.601C83.5746 178.516 83.4535 178.254 83.5386 178.018C83.6237 177.781 83.8854 177.66 84.121 177.745C88.0799 179.194 92.1664 180.489 96.2693 181.597C96.5114 181.663 96.6554 181.912 96.5899 182.155C96.5343 182.358 96.3511 182.492 96.1515 182.492Z" fill="#019AED"/>
</svg>
