<svg width="295" height="182" viewBox="0 0 295 182" fill="none" xmlns="http://www.w3.org/2000/svg">
<path d="M129.648 9.42217C129.197 10.0897 130.541 12.3283 133.217 12.3283C135.893 12.3283 137.228 11.8833 138.345 14.7894C139.462 17.6955 137.898 27.5354 139.462 31.1136C141.021 34.6918 143.696 36.9258 145.706 34.9143C147.712 32.9027 147.489 27.5354 149.941 26.1914C152.393 24.8518 161.314 19.4846 161.756 15.0119C162.202 10.5392 159.08 7.18356 151.276 6.28902C143.473 5.39448 132.994 4.49994 129.648 9.41763V9.42217Z" fill="#019AED"/>
<path d="M100.836 109.611C99.792 110.192 99.1675 111.313 99.2223 112.508C99.3818 116.258 97.9642 125.603 94.9877 128.587C91.1953 132.387 92.5947 139.239 92.5354 142.005C92.4169 147.622 92.9548 150.119 98.9761 152.803C104.997 155.486 107.354 155.636 107.801 161.003C108.247 166.371 108.94 187.099 110.722 192.467C112.505 197.834 116.297 206.552 118.303 208.568C120.308 210.58 124.99 211.697 122.095 204.096C119.196 196.494 117.414 192.916 120.76 188.666C124.105 184.416 129.68 174.58 130.122 170.78C130.569 166.979 132.574 164.74 134.357 164.295C136.139 163.85 139.931 162.506 141.043 161.167C142.16 159.827 139.927 156.022 139.261 152.671C138.591 149.315 138.591 147.304 144.166 144.62C149.74 141.937 147.065 134.335 139.484 132.324C131.904 130.312 127.223 126.062 128.112 121.816C129.005 117.566 122.984 118.016 119.415 116.004C115.846 113.992 115.955 110.832 111.985 109.324C106.62 107.29 102.851 108.489 100.836 109.62V109.611Z" fill="#71D4FF"/>
<path d="M238.966 104.92C237.088 102.095 237.321 97.6182 242.02 91.4927C245.708 86.684 240.416 81.8707 237.973 80.0317C237.526 79.6957 237.726 78.9919 238.283 78.9283C241.309 78.5832 248.324 79.6049 251.41 95.2661C255.403 115.523 257.044 108.457 259.159 106.1C261.274 103.744 257.317 99.3483 261.274 94.7939C263.767 91.9241 265.03 87.742 265.673 84.3273C257.728 52.2011 235.771 25.6192 206.676 11.5019C206.717 15.0301 205.869 27.3175 191.525 22.2499C191.525 22.2499 182.6 18.0088 184.715 35.2049C186.83 52.4009 194.109 34.0288 195.518 33.3204C196.926 32.6121 200.687 31.6721 199.041 43.2103C199.041 43.2103 198.809 47.2153 191.525 46.5069C184.246 45.7986 182.837 49.3313 182.837 51.2157C182.837 53.1002 183.544 58.0451 179.551 61.5779C175.558 65.1106 176.734 74.2967 182.135 71.2362C187.537 68.1757 191.292 58.5174 196.224 57.5774C201.156 56.6329 205.619 62.9946 210.314 61.3463C215.009 59.698 212.898 51.688 215.246 51.688C217.593 51.688 222.525 56.3968 221.823 59.9341C221.117 63.4668 213.837 65.1152 215.715 69.3563C217.593 73.5974 221.586 72.1806 222.762 75.0096C223.938 77.834 216.891 81.1351 211.253 77.6024C205.619 74.0696 204.675 79.2507 201.858 76.894C199.041 74.5373 198.804 69.5924 194.811 71.2407C190.818 72.889 188.471 76.1856 183.302 78.5423C178.138 80.899 173.908 83.9595 173.908 87.2561C173.908 90.5527 175.786 94.0855 174.847 99.2666C173.908 104.448 172.262 118.579 189.173 115.754C206.084 112.93 203.969 121.644 203.969 122.584C203.969 123.524 203.732 135.775 205.377 137.895C207.023 140.016 210.779 146.137 205.377 154.147C199.976 162.157 202.091 180.057 207.023 177.7C211.955 175.343 216.887 166.157 222.99 161.448C229.098 156.74 237.549 136.247 234.025 129.885C230.502 123.524 238.957 118.342 240.133 114.106C241.309 109.865 240.84 107.749 238.957 104.92H238.966Z" fill="#71D4FF"/>
<path d="M79.2575 34.5692C79.3487 38.4924 78.6513 42.7608 76.3631 46.7658C69.4529 58.8398 69.6763 64.879 69.0062 76.953C68.3362 89.027 83.5513 110.314 87.3391 112.548C91.1315 114.782 91.715 109.465 91.715 105.22C91.715 100.974 90.0968 95.8746 87.8679 90.9569C85.6389 86.0392 85.6389 82.906 86.309 80.8945C86.979 78.8829 89.6547 78.2108 91.4369 80.2224C93.2192 82.234 97.5084 84.0185 99.5687 82.7607C102.098 81.2168 101.114 75.164 102.007 73.1524C102.901 71.1408 107.805 69.7967 109.811 65.5511C111.816 61.3009 115.162 59.5118 119.173 57.5002C123.184 55.4886 126.754 54.5941 127.424 53.25C128.094 51.9105 127.2 48.7773 128.317 45.1992C129.434 41.621 132.109 37.3708 130.993 35.5818C129.876 33.7927 126.535 30.8866 120.29 35.3593C114.045 39.832 112.486 39.832 110.704 36.4763C108.922 33.1206 112.71 24.4023 120.513 24.4023C128.317 24.4023 129.876 21.7187 130.099 19.7071C130.323 17.6955 127.87 15.4569 125.195 15.0119C122.519 14.5669 122.072 16.1289 110.928 20.6016C103.489 23.5849 96.9477 22.8857 93.4152 22.091C88.351 25.8417 83.6151 30.0193 79.2666 34.5692H79.2575Z" fill="#71D4FF"/>
<path d="M263.726 130.898C262.062 130.525 262.432 134.608 260.212 135.348C257.992 136.088 257.067 137.2 257.623 141.283C258.179 145.36 257.254 150.741 255.034 152.78C252.814 154.819 249.673 156.304 249.486 161.308C249.3 166.316 244.678 171.134 241.906 172.805C239.135 174.476 234.882 177.069 234.882 181.337C234.882 184.084 234.809 187.594 235.447 190.292C250.125 176.015 260.845 157.679 265.818 137.087C265.385 134.349 264.674 131.111 263.726 130.898Z" fill="#71D4FF"/>
<path d="M158.779 221.995C129.215 221.995 101.424 210.448 80.5201 189.483C59.6164 168.518 48.1071 140.647 48.1071 110.995C48.1071 81.344 59.621 53.4725 80.5201 32.5076C101.419 11.5473 129.215 0 158.779 0C188.343 0 216.134 11.5473 237.038 32.5122C257.942 53.4771 269.451 81.3485 269.451 111C269.451 140.651 257.937 168.523 237.038 189.488C216.134 210.453 188.339 222 158.779 222V221.995ZM158.779 1.06709C98.3425 1.06709 49.1737 50.3802 49.1737 111C49.1737 171.62 98.3425 220.933 158.779 220.933C219.216 220.933 268.385 171.62 268.385 111C268.385 50.3802 219.216 1.06709 158.779 1.06709Z" fill="#019AED"/>
<path d="M92.0933 19.9977C85.1284 19.9977 79.4809 25.6601 79.4809 32.6484C79.4809 34.3966 80.2694 36.8396 81.45 39.5186C84.431 46.2799 89.9145 54.5578 91.5919 57.028C91.8335 57.3822 92.3531 57.3822 92.5901 57.028C94.933 53.577 104.706 38.7966 104.706 32.6439C104.706 25.6556 99.0582 19.9932 92.0933 19.9932V19.9977ZM92.0933 38.4334C88.9071 38.4334 86.3272 35.8451 86.3272 32.6484C86.3272 29.4517 88.9117 26.8634 92.0933 26.8634C95.2749 26.8634 97.8594 29.4517 97.8594 32.6484C97.8594 35.8451 95.2749 38.4334 92.0933 38.4334Z" fill="#019AED"/>
<path d="M93.21 38.3017C91.8198 38.3017 90.4751 37.8431 89.3584 36.9712C88.0274 35.9359 87.1796 34.4466 86.9699 32.771C86.9334 32.4804 87.1431 32.2125 87.4349 32.1762C87.7266 32.1398 87.9955 32.3487 88.032 32.6393C88.2052 34.0333 88.9117 35.273 90.0148 36.1312C91.1178 36.9894 92.4853 37.3663 93.871 37.1937C95.2566 37.0212 96.4965 36.3128 97.3534 35.2049C99.1265 32.9163 98.7117 29.6106 96.4281 27.8351C95.5529 27.154 94.5046 26.7726 93.3969 26.7363C93.1006 26.7272 92.8682 26.482 92.8819 26.1868C92.891 25.8917 93.1417 25.651 93.4334 25.6737C94.7689 25.7191 96.0315 26.1777 97.0845 26.9996C99.8285 29.1338 100.325 33.1116 98.1967 35.8633C97.162 37.1983 95.6714 38.0474 93.9986 38.2608C93.7342 38.2926 93.4653 38.3108 93.2009 38.3108L93.21 38.3017Z" fill="black"/>
<path d="M223.815 91.0205C215.519 91.0205 208.796 97.7635 208.796 106.087C208.796 108.167 209.735 111.077 211.143 114.269C214.694 122.32 221.226 132.178 223.222 135.121C223.51 135.543 224.125 135.543 224.412 135.121C227.202 131.007 238.839 113.407 238.839 106.087C238.839 97.7681 232.115 91.0205 223.82 91.0205H223.815ZM223.815 112.975C220.023 112.975 216.946 109.892 216.946 106.087C216.946 102.282 220.023 99.1984 223.815 99.1984C227.607 99.1984 230.684 102.282 230.684 106.087C230.684 109.892 227.607 112.975 223.815 112.975Z" fill="#019AED"/>
<path d="M225.146 112.712C223.51 112.712 221.932 112.172 220.62 111.15C219.056 109.933 218.063 108.18 217.816 106.214C217.78 105.923 217.99 105.655 218.281 105.619C218.573 105.587 218.842 105.792 218.878 106.082C219.088 107.767 219.945 109.27 221.281 110.31C222.616 111.35 224.275 111.804 225.948 111.595C227.63 111.386 229.125 110.528 230.164 109.188C232.307 106.418 231.805 102.418 229.043 100.27C227.981 99.4436 226.714 98.985 225.378 98.9396C225.082 98.9305 224.85 98.6853 224.863 98.3902C224.872 98.095 225.123 97.8589 225.415 97.8771C226.983 97.927 228.464 98.4674 229.704 99.4346C232.927 101.946 233.515 106.614 231.012 109.847C229.8 111.413 228.049 112.412 226.08 112.662C225.766 112.703 225.456 112.721 225.146 112.721V112.712Z" fill="black"/>
<path d="M123.937 96.6828C119.178 96.6828 115.322 100.552 115.322 105.324C115.322 106.518 115.86 108.185 116.666 110.015C118.704 114.633 122.446 120.281 123.595 121.971C123.759 122.211 124.114 122.211 124.278 121.971C125.878 119.614 132.552 109.52 132.552 105.319C132.552 100.547 128.695 96.6783 123.937 96.6783V96.6828ZM123.937 109.274C121.762 109.274 119.998 107.504 119.998 105.324C119.998 103.144 121.762 101.373 123.937 101.373C126.111 101.373 127.875 103.144 127.875 105.324C127.875 107.504 126.111 109.274 123.937 109.274Z" fill="#019AED"/>
<path d="M241.282 152.875C236.446 152.875 232.526 156.808 232.526 161.657C232.526 162.87 233.073 164.563 233.893 166.425C235.962 171.116 239.769 176.86 240.931 178.576C241.1 178.821 241.46 178.821 241.624 178.576C243.251 176.179 250.033 165.921 250.033 161.653C250.033 156.803 246.113 152.871 241.277 152.871L241.282 152.875ZM241.282 165.671C239.071 165.671 237.28 163.873 237.28 161.657C237.28 159.441 239.071 157.643 241.282 157.643C243.493 157.643 245.284 159.441 245.284 161.657C245.284 163.873 243.493 165.671 241.282 165.671Z" fill="#019AED"/>
<path d="M238.583 8.07355C230.711 8.07355 224.335 14.4715 224.335 22.3635C224.335 24.3387 225.223 27.095 226.559 30.1237C229.927 37.7613 236.122 47.1109 238.018 49.9035C238.292 50.3031 238.875 50.3031 239.149 49.9035C241.792 46.0029 252.832 29.3064 252.832 22.3589C252.832 14.467 246.451 8.06901 238.583 8.06901V8.07355ZM238.583 28.9022C234.987 28.9022 232.07 25.9779 232.07 22.368C232.07 18.7581 234.987 15.8338 238.583 15.8338C242.18 15.8338 245.097 18.7581 245.097 22.368C245.097 25.9779 242.18 28.9022 238.583 28.9022Z" fill="#019AED"/>
<path d="M239.846 28.6797C238.287 28.6797 236.783 28.1666 235.534 27.1949C234.048 26.037 233.1 24.3705 232.863 22.4952C232.826 22.2045 233.036 21.9366 233.328 21.9003C233.62 21.864 233.889 22.0729 233.925 22.3635C234.126 23.9528 234.932 25.374 236.195 26.3548C237.453 27.3357 239.021 27.767 240.603 27.5672C242.189 27.3674 243.602 26.5592 244.582 25.2923C246.606 22.6768 246.132 18.8988 243.524 16.8691C242.522 16.0881 241.327 15.6522 240.06 15.6113C239.764 15.6022 239.531 15.357 239.545 15.0619C239.554 14.7667 239.8 14.5215 240.097 14.5487C241.587 14.5987 243 15.1118 244.181 16.029C247.248 18.4175 247.809 22.8675 245.425 25.9416C244.267 27.4355 242.604 28.3891 240.73 28.6207C240.434 28.657 240.138 28.6752 239.841 28.6752L239.846 28.6797Z" fill="black"/>
<path d="M273.544 53.3045C273.171 53.3045 272.838 53.0775 272.706 52.7233L271.867 50.5028C271.434 50.4756 271.006 50.4211 270.582 50.3485L269.237 52.2965C268.995 52.6461 268.549 52.7778 268.157 52.6189L266.147 51.8061C265.755 51.6471 265.527 51.243 265.595 50.8298L265.978 48.4822C265.622 48.2415 265.271 47.9782 264.943 47.7012L262.805 48.7183C262.427 48.8999 261.967 48.791 261.707 48.4595L260.371 46.7431C260.112 46.4116 260.116 45.9484 260.38 45.6215L261.88 43.7824C261.693 43.3965 261.52 42.9923 261.374 42.5791L259.018 42.3884C258.594 42.3521 258.256 42.0388 258.197 41.6165L257.892 39.4596C257.832 39.0418 258.069 38.6423 258.466 38.4924L260.677 37.6524C260.704 37.2164 260.759 36.7805 260.832 36.3537L258.885 35.0051C258.539 34.7644 258.407 34.324 258.562 33.9289L259.373 31.9082C259.533 31.5132 259.934 31.2907 260.353 31.3543L262.687 31.7357C262.928 31.377 263.188 31.0273 263.466 30.6958L262.45 28.5435C262.272 28.1621 262.377 27.7125 262.71 27.4537L264.419 26.1142C264.752 25.8508 265.217 25.8553 265.549 26.1278L267.377 27.6263C267.76 27.4401 268.161 27.2675 268.572 27.1177L268.763 24.7474C268.799 24.3251 269.114 23.9891 269.533 23.93L271.68 23.6258C272.104 23.5668 272.501 23.8029 272.651 24.198L273.49 26.4184C273.923 26.4457 274.356 26.5001 274.775 26.5728L276.12 24.6202C276.361 24.2706 276.804 24.1344 277.2 24.2979L279.21 25.1107C279.602 25.2696 279.83 25.6737 279.762 26.0869L279.379 28.4345C279.739 28.6752 280.085 28.9386 280.414 29.2155L282.551 28.1984C282.934 28.0122 283.386 28.1212 283.65 28.4572L284.985 30.1691C285.245 30.5006 285.241 30.9638 284.972 31.2907L283.477 33.1297C283.664 33.5157 283.837 33.9198 283.983 34.333L286.339 34.5237C286.763 34.5601 287.1 34.8734 287.16 35.2957L287.465 37.4526C287.524 37.8703 287.287 38.2699 286.895 38.4198L284.685 39.2598C284.657 39.6957 284.603 40.1316 284.53 40.5585L286.476 41.9071C286.822 42.1478 286.955 42.5882 286.8 42.9833L285.988 45.0039C285.829 45.399 285.423 45.626 285.008 45.5579L282.674 45.1765C282.433 45.5352 282.173 45.8848 281.895 46.2163L282.911 48.3687C283.094 48.7501 282.984 49.1996 282.652 49.4585L280.942 50.798C280.614 51.0568 280.14 51.0523 279.812 50.7844L277.984 49.2859C277.601 49.4721 277.2 49.6446 276.79 49.7945L276.598 52.1648C276.562 52.5871 276.247 52.9231 275.828 52.9821L273.681 53.2864C273.636 53.2909 273.595 53.2954 273.554 53.2954L273.544 53.3045ZM270.504 49.2632C270.559 49.2632 270.614 49.2677 270.668 49.2768C271.115 49.3586 271.575 49.413 272.036 49.4403C272.391 49.463 272.701 49.69 272.829 50.017L273.658 52.2147L275.536 51.9468L275.728 49.5992C275.755 49.245 275.992 48.9453 276.329 48.8273C276.767 48.6729 277.196 48.4913 277.597 48.2869C277.916 48.128 278.299 48.1689 278.572 48.3914L280.382 49.8762L281.877 48.7001L280.869 46.5705C280.719 46.2526 280.769 45.8758 281.002 45.6033C281.298 45.2537 281.576 44.8813 281.831 44.4999C282.027 44.2002 282.378 44.0504 282.729 44.1048L285.04 44.4817L285.751 42.7108L283.823 41.3758C283.536 41.176 283.39 40.8218 283.454 40.4722C283.536 40.0227 283.591 39.564 283.618 39.0963C283.636 38.7422 283.864 38.4288 284.197 38.3062L286.389 37.4707L286.12 35.5772L283.787 35.3865C283.436 35.3593 283.13 35.1231 283.012 34.7871C282.857 34.3467 282.679 33.9198 282.474 33.5111C282.314 33.1978 282.355 32.8164 282.579 32.544L284.06 30.7231L282.889 29.2201L280.774 30.2236C280.455 30.378 280.072 30.3235 279.803 30.0919C279.456 29.7922 279.087 29.5152 278.704 29.261C278.408 29.0657 278.253 28.7161 278.312 28.3664L278.691 26.0415L276.931 25.3286L275.6 27.2585C275.4 27.5491 275.044 27.6989 274.693 27.6308C274.246 27.5491 273.786 27.4946 273.326 27.4673C272.97 27.4492 272.66 27.2221 272.533 26.8907L271.703 24.6929L269.825 24.9608L269.634 27.3084C269.606 27.6626 269.369 27.9623 269.032 28.0803C268.594 28.2347 268.166 28.4164 267.765 28.6207C267.446 28.7796 267.063 28.7388 266.789 28.5163L264.98 27.0314L263.485 28.2075L264.487 30.3371C264.638 30.655 264.588 31.0319 264.355 31.3043C264.059 31.654 263.781 32.0263 263.526 32.4077C263.33 32.7074 262.979 32.8618 262.628 32.8028L260.317 32.4259L259.606 34.1968L261.534 35.5363C261.821 35.7361 261.967 36.0903 261.903 36.44C261.821 36.885 261.766 37.3481 261.739 37.8158C261.721 38.17 261.493 38.4788 261.164 38.6059L258.972 39.4414L259.241 41.335L261.575 41.5257C261.926 41.5529 262.231 41.789 262.35 42.1251C262.505 42.5655 262.682 42.9924 262.887 43.401C263.047 43.7189 263.006 44.0958 262.783 44.3682L261.301 46.1891L262.473 47.6921L264.588 46.6886C264.907 46.5342 265.29 46.5887 265.559 46.8202C265.905 47.1199 266.274 47.3969 266.657 47.6512C266.953 47.8465 267.108 48.1961 267.049 48.5458L266.671 50.8706L268.43 51.5836L269.761 49.6537C269.93 49.4085 270.208 49.2677 270.504 49.2677V49.2632ZM272.678 46.2663C268.385 46.2663 264.889 42.7653 264.889 38.4606C264.889 34.1559 268.385 30.6504 272.678 30.6504C276.972 30.6504 280.468 34.1514 280.468 38.4606C280.468 42.7698 276.972 46.2663 272.678 46.2663ZM272.678 31.7175C268.973 31.7175 265.96 34.7417 265.96 38.4606C265.96 42.1795 268.973 45.2037 272.678 45.2037C276.384 45.2037 279.397 42.1795 279.397 38.4606C279.397 34.7417 276.384 31.7175 272.678 31.7175Z" fill="#71D4FF"/>
<path d="M37.9424 41.0852C35.2075 41.0852 32.5045 40.395 30.0431 39.0419C26.1686 36.9122 23.3563 33.3931 22.1301 29.1338C19.6095 20.3791 24.6599 11.2022 33.3933 8.67294C38.6626 7.14723 44.3238 8.34146 48.5401 11.8742C48.768 12.0649 48.7953 12.4009 48.6039 12.6234C48.4125 12.8505 48.0752 12.8777 47.8518 12.687C43.909 9.38585 38.617 8.26881 33.6896 9.69462C25.5259 12.0604 20.7991 20.647 23.1557 28.8387C24.3044 32.8209 26.9299 36.113 30.5536 38.1064C34.15 40.0817 38.2979 40.5449 42.2362 39.4006C50.3998 37.0348 55.1266 28.4481 52.7701 20.2565C52.688 19.975 52.8521 19.6799 53.1347 19.5981C53.4173 19.5164 53.7136 19.6799 53.7956 19.9614C56.3163 28.7161 51.2613 37.893 42.5324 40.4223C41.0191 40.8627 39.4739 41.0807 37.9378 41.0807L37.9424 41.0852Z" fill="#71D4FF"/>
<path d="M39.3736 33.7609L38.7765 31.6948C37.3042 32.049 35.7818 32.0672 34.82 31.8265L34.738 29.0929C35.7909 29.3291 37.2039 29.4153 38.6124 29.0067C39.8477 28.6479 40.5588 27.926 40.3081 27.0541C40.071 26.2277 39.2278 25.9053 37.4638 25.8281C34.9157 25.7191 33.0196 25.088 32.4133 22.9765C31.8618 21.0603 32.7734 19.1713 34.9659 18.0452L34.3688 15.9791L36.4929 15.3615L37.0444 17.2778C38.5167 16.9236 39.5787 16.9463 40.3947 17.0871L40.4721 19.7253C39.8386 19.6481 38.699 19.4392 37.1356 19.8887C35.7271 20.2974 35.4445 21.0376 35.6223 21.646C35.8274 22.3635 36.7208 22.5996 38.7628 22.7631C41.6071 22.9311 42.9928 23.8256 43.5535 25.7827C44.1096 27.7171 43.2207 29.7695 40.8505 30.9229L41.4886 33.1433L39.3645 33.7609H39.3736Z" fill="#019AED"/>
<path d="M173.94 158.651C173.183 158.651 172.417 158.583 171.656 158.447C168.31 157.843 165.407 155.963 163.47 153.161C159.486 147.39 160.926 139.444 166.683 135.448C169.468 133.513 172.837 132.782 176.169 133.386C179.514 133.99 182.418 135.87 184.355 138.672C188.339 144.443 186.898 152.389 181.141 156.385C178.995 157.879 176.497 158.656 173.94 158.656V158.651ZM173.889 134.249C171.547 134.249 169.263 134.962 167.294 136.324C162.02 139.984 160.698 147.267 164.354 152.557C166.127 155.123 168.784 156.839 171.847 157.398C174.897 157.952 177.983 157.28 180.531 155.509C185.804 151.849 187.126 144.566 183.471 139.276C181.698 136.71 179.04 134.994 175.977 134.435C175.28 134.308 174.582 134.244 173.889 134.244V134.249Z" fill="#71D4FF"/>
<path d="M177.294 152.485L176.328 151.082C175.312 151.722 174.172 152.122 173.388 152.185L172.636 150.151C173.488 150.06 174.573 149.769 175.53 149.102C176.369 148.521 176.72 147.794 176.31 147.204C175.922 146.641 175.207 146.614 173.862 147.004C171.92 147.567 170.334 147.576 169.345 146.141C168.447 144.843 168.657 143.19 170.02 141.787L169.053 140.384L170.498 139.38L171.396 140.679C172.413 140.038 173.219 139.784 173.867 139.684L174.591 141.65C174.095 141.755 173.183 141.887 172.125 142.622C171.168 143.285 171.145 143.916 171.428 144.33C171.765 144.815 172.495 144.77 174.072 144.37C176.251 143.776 177.518 144.093 178.438 145.424C179.346 146.736 179.195 148.503 177.705 149.974L178.744 151.481L177.299 152.485H177.294Z" fill="#019AED"/>
<path d="M117.067 122.443C117.067 121.725 117.646 121.144 118.367 121.144C119.087 121.144 119.666 121.725 119.666 122.443C119.666 123.16 119.087 123.742 118.367 123.742C117.646 123.742 117.067 123.16 117.067 122.443Z" fill="#71D4FF"/>
<path d="M240.639 189.293C240.402 189.293 240.188 189.134 240.124 188.898C240.047 188.611 240.22 188.321 240.502 188.244C240.831 188.157 241.154 188.071 241.478 187.985C241.765 187.908 242.057 188.076 242.134 188.357C242.212 188.643 242.043 188.934 241.76 189.011C241.432 189.097 241.109 189.188 240.78 189.274C240.735 189.288 240.689 189.293 240.644 189.293H240.639ZM245.735 187.849C245.507 187.849 245.293 187.699 245.225 187.472C245.138 187.19 245.298 186.89 245.58 186.804C246.952 186.386 248.315 185.946 249.637 185.501C249.915 185.406 250.22 185.555 250.316 185.832C250.412 186.109 250.261 186.414 249.983 186.509C248.652 186.963 247.276 187.404 245.895 187.826C245.845 187.844 245.79 187.849 245.74 187.849H245.735ZM253.835 185.092C253.621 185.092 253.416 184.961 253.334 184.747C253.229 184.47 253.365 184.166 253.644 184.057C254.984 183.548 256.31 183.017 257.595 182.472C257.869 182.354 258.183 182.481 258.297 182.754C258.411 183.026 258.288 183.34 258.015 183.453C256.72 184.003 255.376 184.543 254.026 185.051C253.963 185.074 253.899 185.088 253.835 185.088V185.092ZM261.711 181.75C261.511 181.75 261.319 181.637 261.228 181.446C261.101 181.178 261.215 180.86 261.484 180.738C262.783 180.12 264.059 179.48 265.285 178.831C265.545 178.69 265.868 178.79 266.01 179.049C266.147 179.307 266.051 179.63 265.791 179.77C264.551 180.429 263.257 181.078 261.944 181.7C261.871 181.737 261.794 181.75 261.716 181.75H261.711ZM269.26 177.732C269.077 177.732 268.9 177.641 268.799 177.473C268.649 177.219 268.731 176.892 268.982 176.742C270.212 176.006 271.42 175.239 272.564 174.462C272.811 174.299 273.143 174.362 273.307 174.603C273.472 174.848 273.408 175.18 273.166 175.343C272.004 176.129 270.782 176.905 269.533 177.654C269.447 177.704 269.351 177.732 269.26 177.732ZM276.334 172.937C276.174 172.937 276.015 172.864 275.91 172.732C275.728 172.501 275.773 172.165 276.006 171.983C277.141 171.107 278.239 170.198 279.27 169.281C279.488 169.086 279.83 169.104 280.026 169.322C280.222 169.54 280.204 169.881 279.985 170.076C278.937 171.011 277.82 171.933 276.667 172.823C276.571 172.9 276.453 172.937 276.339 172.937H276.334ZM282.706 167.251C282.574 167.251 282.442 167.202 282.337 167.102C282.123 166.897 282.118 166.561 282.319 166.348C283.308 165.322 284.247 164.255 285.113 163.183C285.3 162.956 285.637 162.92 285.865 163.101C286.098 163.287 286.134 163.623 285.947 163.85C285.063 164.945 284.101 166.035 283.089 167.083C282.984 167.192 282.843 167.247 282.702 167.247L282.706 167.251ZM288.053 160.613C287.953 160.613 287.848 160.586 287.761 160.527C287.515 160.363 287.447 160.036 287.606 159.786C288.386 158.606 289.106 157.384 289.744 156.158C289.881 155.899 290.205 155.795 290.464 155.931C290.729 156.067 290.829 156.39 290.692 156.649C290.036 157.907 289.297 159.16 288.5 160.372C288.395 160.527 288.226 160.613 288.053 160.613ZM291.978 153.052C291.914 153.052 291.85 153.039 291.786 153.016C291.508 152.912 291.371 152.603 291.481 152.326C291.987 151.018 292.42 149.674 292.771 148.33C292.844 148.044 293.135 147.876 293.423 147.949C293.71 148.021 293.878 148.312 293.805 148.598C293.445 149.983 292.999 151.368 292.479 152.712C292.397 152.925 292.196 153.052 291.978 153.052ZM294.12 144.815C294.097 144.815 294.07 144.815 294.047 144.811C293.755 144.77 293.55 144.502 293.591 144.207C293.783 142.831 293.901 141.419 293.933 140.02C293.942 139.73 294.179 139.498 294.466 139.498H294.48C294.776 139.507 295.009 139.748 295 140.043C294.963 141.482 294.845 142.935 294.644 144.352C294.608 144.62 294.38 144.811 294.115 144.811L294.12 144.815ZM294.339 136.306C294.065 136.306 293.828 136.097 293.805 135.82C293.687 134.449 293.496 133.046 293.231 131.661C293.176 131.37 293.368 131.093 293.655 131.039C293.947 130.984 294.225 131.175 294.28 131.461C294.553 132.882 294.749 134.322 294.872 135.729C294.899 136.024 294.681 136.279 294.384 136.306C294.371 136.306 294.352 136.306 294.339 136.306ZM292.757 127.955C292.525 127.955 292.31 127.806 292.242 127.569C291.859 126.248 291.403 124.908 290.888 123.578C290.783 123.306 290.92 122.997 291.194 122.888C291.467 122.783 291.777 122.92 291.886 123.192C292.411 124.55 292.876 125.921 293.268 127.27C293.35 127.551 293.186 127.846 292.903 127.928C292.853 127.942 292.803 127.951 292.753 127.951L292.757 127.955ZM289.694 120.009C289.493 120.009 289.302 119.895 289.211 119.705C288.618 118.465 287.957 117.203 287.251 115.959C287.105 115.704 287.196 115.377 287.456 115.232C287.711 115.087 288.039 115.178 288.185 115.436C288.901 116.703 289.571 117.984 290.177 119.246C290.305 119.514 290.191 119.832 289.926 119.959C289.854 119.995 289.772 120.009 289.699 120.009H289.694ZM285.5 112.589C285.327 112.589 285.154 112.503 285.049 112.344C284.297 111.186 283.486 110.015 282.638 108.861C282.465 108.625 282.515 108.289 282.752 108.117C282.989 107.944 283.326 107.994 283.499 108.235C284.361 109.406 285.181 110.596 285.947 111.767C286.107 112.013 286.038 112.344 285.788 112.503C285.697 112.562 285.596 112.589 285.496 112.589H285.5ZM280.459 105.701C280.304 105.701 280.149 105.633 280.044 105.506C279.169 104.429 278.239 103.344 277.287 102.273C277.091 102.055 277.109 101.714 277.332 101.519C277.551 101.324 277.893 101.342 278.089 101.564C279.051 102.645 279.99 103.744 280.879 104.834C281.065 105.061 281.029 105.397 280.801 105.583C280.701 105.665 280.582 105.701 280.464 105.701H280.459ZM274.775 99.3256C274.634 99.3256 274.497 99.2711 274.392 99.1621C273.426 98.1631 272.409 97.1551 271.375 96.1652C271.161 95.9608 271.156 95.6248 271.361 95.4114C271.566 95.198 271.904 95.1935 272.118 95.3978C273.162 96.3968 274.187 97.4139 275.167 98.422C275.372 98.6354 275.368 98.9714 275.153 99.1757C275.049 99.2756 274.916 99.3256 274.78 99.3256H274.775ZM268.603 93.418C268.476 93.418 268.348 93.3726 268.248 93.2818C267.209 92.3554 266.124 91.42 265.025 90.5028C264.797 90.3121 264.77 89.9761 264.957 89.7536C265.148 89.5265 265.486 89.4993 265.709 89.6855C266.817 90.6118 267.911 91.5517 268.959 92.4871C269.178 92.6824 269.196 93.0184 269 93.2409C268.895 93.359 268.749 93.418 268.599 93.418H268.603ZM262.04 87.9372C261.926 87.9372 261.807 87.9009 261.707 87.8237C260.604 86.9564 259.464 86.0891 258.32 85.24C258.083 85.0629 258.033 84.7314 258.211 84.4953C258.389 84.2592 258.721 84.2092 258.958 84.3863C260.112 85.24 261.26 86.1164 262.372 86.9882C262.605 87.1699 262.646 87.5059 262.464 87.7374C262.359 87.8691 262.199 87.9418 262.044 87.9418L262.04 87.9372ZM255.171 82.847C255.066 82.847 254.956 82.8152 254.865 82.7516C253.712 81.9434 252.527 81.1351 251.342 80.3496C251.096 80.1861 251.027 79.8546 251.191 79.6094C251.355 79.3642 251.688 79.2961 251.934 79.4596C253.128 80.2497 254.318 81.0625 255.48 81.8753C255.722 82.0433 255.781 82.3793 255.613 82.62C255.508 82.7698 255.344 82.847 255.175 82.847H255.171ZM248.046 78.1155C247.95 78.1155 247.85 78.0882 247.759 78.0338C246.574 77.2845 245.348 76.5353 244.126 75.7997C243.871 75.6498 243.789 75.3184 243.944 75.0686C244.094 74.8189 244.427 74.7371 244.678 74.887C245.908 75.6226 247.139 76.3809 248.333 77.1347C248.584 77.2936 248.657 77.6205 248.497 77.8703C248.397 78.0292 248.224 78.12 248.046 78.12V78.1155ZM240.707 73.7154C240.616 73.7154 240.525 73.6927 240.443 73.6428C239.222 72.948 237.968 72.2488 236.715 71.5676C236.455 71.4269 236.359 71.1045 236.5 70.8457C236.642 70.5868 236.965 70.4915 237.225 70.6322C238.483 71.3179 239.746 72.0172 240.972 72.7165C241.227 72.8618 241.318 73.1887 241.172 73.443C241.072 73.6155 240.894 73.7109 240.707 73.7109V73.7154ZM233.191 69.6287C233.109 69.6287 233.022 69.6106 232.945 69.5697C231.687 68.9204 230.406 68.271 229.134 67.6444C228.87 67.5127 228.761 67.1948 228.893 66.9315C229.025 66.6681 229.344 66.5591 229.608 66.6908C230.885 67.322 232.17 67.9713 233.433 68.6252C233.697 68.7614 233.797 69.0838 233.661 69.3427C233.565 69.5243 233.378 69.6287 233.187 69.6287H233.191ZM225.52 65.8371C225.442 65.8371 225.365 65.819 225.292 65.7872C224.016 65.1833 222.712 64.5839 221.413 64.0027C221.144 63.8801 221.025 63.5667 221.144 63.2988C221.267 63.0309 221.581 62.9083 221.85 63.0309C223.154 63.6167 224.462 64.2206 225.748 64.8245C226.017 64.9517 226.13 65.2695 226.003 65.5329C225.912 65.7236 225.72 65.8371 225.52 65.8371ZM217.716 62.3271C217.643 62.3271 217.575 62.3135 217.506 62.2817C216.203 61.7232 214.876 61.1647 213.568 60.6288C213.295 60.5153 213.163 60.2065 213.277 59.9341C213.39 59.6617 213.7 59.5345 213.974 59.6435C215.291 60.1838 216.618 60.7424 217.93 61.3009C218.204 61.4189 218.327 61.7323 218.208 62.0002C218.122 62.2 217.926 62.3226 217.716 62.3226V62.3271ZM209.794 59.0804C209.73 59.0804 209.662 59.0668 209.598 59.0441C208.272 58.5264 206.927 58.0133 205.605 57.5229C205.327 57.4185 205.186 57.1143 205.291 56.8373C205.395 56.5603 205.701 56.4195 205.979 56.524C207.305 57.0189 208.655 57.532 209.986 58.0497C210.259 58.1586 210.396 58.4674 210.291 58.7399C210.209 58.9487 210.008 59.0804 209.794 59.0804ZM201.772 56.0926C201.712 56.0926 201.653 56.0835 201.594 56.0608C200.258 55.5885 198.9 55.1208 197.555 54.6668C197.277 54.5714 197.127 54.2717 197.218 53.9902C197.314 53.7132 197.615 53.5633 197.897 53.6542C199.246 54.1082 200.609 54.5805 201.949 55.0573C202.228 55.1572 202.373 55.4614 202.273 55.7384C202.196 55.9563 201.99 56.0926 201.767 56.0926H201.772ZM193.663 53.359C193.608 53.359 193.553 53.3499 193.499 53.3318C192.14 52.8958 190.768 52.469 189.419 52.0603C189.136 51.9741 188.977 51.6744 189.064 51.3928C189.15 51.1113 189.446 50.9524 189.734 51.0387C191.087 51.4519 192.464 51.8787 193.827 52.3146C194.109 52.4054 194.264 52.7051 194.173 52.9867C194.1 53.2137 193.891 53.3545 193.663 53.3545V53.359ZM185.472 50.8706C185.422 50.8706 185.371 50.8661 185.321 50.8479C183.968 50.4574 182.582 50.0715 181.205 49.6946C180.918 49.6174 180.754 49.3222 180.832 49.0407C180.909 48.7546 181.205 48.5866 181.488 48.6684C182.869 49.0452 184.259 49.4358 185.618 49.8263C185.9 49.908 186.064 50.2031 185.982 50.4847C185.914 50.7163 185.7 50.8706 185.467 50.8706H185.472ZM177.212 48.6184C177.167 48.6184 177.121 48.6139 177.08 48.6002C175.713 48.2506 174.318 47.901 172.932 47.5649C172.645 47.4968 172.467 47.2062 172.54 46.9201C172.609 46.6341 172.9 46.4615 173.187 46.5296C174.578 46.8657 175.977 47.2153 177.349 47.5695C177.636 47.6421 177.809 47.9327 177.732 48.2188C177.668 48.4595 177.454 48.6184 177.212 48.6184ZM168.889 46.6068C168.848 46.6068 168.812 46.6068 168.771 46.5932C167.399 46.2799 165.995 45.9711 164.595 45.676C164.308 45.6124 164.121 45.3309 164.185 45.0448C164.244 44.7587 164.532 44.5726 164.819 44.6361C166.223 44.9358 167.631 45.2446 169.008 45.5579C169.295 45.6215 169.477 45.9075 169.409 46.1982C169.354 46.4434 169.131 46.6114 168.889 46.6114V46.6068ZM160.516 44.8268C160.479 44.8268 160.447 44.8268 160.411 44.8178C159.025 44.5453 157.612 44.2729 156.213 44.0186C155.921 43.9641 155.73 43.6871 155.784 43.3965C155.839 43.1059 156.117 42.9152 156.409 42.9696C157.813 43.2285 159.23 43.4964 160.621 43.7734C160.912 43.8324 161.099 44.1094 161.04 44.4C160.99 44.6543 160.767 44.8314 160.516 44.8314V44.8268ZM152.097 43.283C152.065 43.283 152.038 43.283 152.006 43.2739C150.611 43.0378 149.193 42.8107 147.789 42.5928C147.498 42.5474 147.297 42.2749 147.343 41.9843C147.388 41.6937 147.662 41.4939 147.954 41.5393C149.362 41.7573 150.789 41.9888 152.184 42.225C152.475 42.2749 152.671 42.5473 152.621 42.838C152.576 43.0968 152.352 43.283 152.092 43.283H152.097ZM143.637 41.9752C143.614 41.9752 143.587 41.9752 143.564 41.9707C142.165 41.7754 140.738 41.5847 139.329 41.4076C139.038 41.3713 138.828 41.1034 138.865 40.8128C138.901 40.5221 139.17 40.3178 139.462 40.3496C140.875 40.5267 142.306 40.7174 143.71 40.9127C144.002 40.9535 144.207 41.2214 144.166 41.5166C144.129 41.7845 143.897 41.9752 143.637 41.9752ZM135.145 40.9127C135.145 40.9127 135.104 40.9127 135.086 40.9127C133.677 40.7583 132.251 40.6084 130.838 40.4767C130.541 40.4495 130.327 40.1861 130.354 39.8955C130.382 39.6004 130.646 39.387 130.938 39.4142C132.355 39.5504 133.791 39.6957 135.204 39.8547C135.496 39.8864 135.71 40.1498 135.678 40.445C135.646 40.7174 135.419 40.9172 135.145 40.9172V40.9127ZM126.626 40.0999C126.626 40.0999 126.599 40.0999 126.58 40.0999C125.154 39.9863 123.722 39.8819 122.318 39.7911C122.022 39.7729 121.799 39.5186 121.817 39.2235C121.835 38.9283 122.091 38.7104 122.387 38.724C123.791 38.8148 125.231 38.9192 126.662 39.0328C126.959 39.0555 127.177 39.3143 127.155 39.6049C127.132 39.8819 126.899 40.0953 126.621 40.0953L126.626 40.0999ZM118.084 39.5504C118.084 39.5504 118.066 39.5504 118.057 39.5504C116.644 39.4823 115.208 39.4233 113.79 39.3733C113.494 39.3642 113.261 39.119 113.275 38.8239C113.284 38.5287 113.53 38.2881 113.827 38.3108C115.249 38.3562 116.689 38.4152 118.111 38.4879C118.408 38.5015 118.635 38.7512 118.617 39.0464C118.604 39.3325 118.367 39.555 118.084 39.555V39.5504ZM109.533 39.2689H109.524C108.106 39.2462 106.679 39.2326 105.28 39.2326C104.984 39.2326 104.733 38.9919 104.733 38.7013C104.733 38.4107 104.961 38.17 105.257 38.17H105.28C106.689 38.17 108.12 38.1836 109.542 38.2063C109.838 38.2109 110.075 38.4561 110.066 38.7467C110.062 39.0373 109.825 39.2689 109.533 39.2689Z" fill="#019AED"/>
<path d="M55.9516 161.762C55.865 161.762 55.7739 161.739 55.6918 161.694C54.4383 160.994 53.1848 160.277 51.9678 159.564C51.7126 159.414 51.626 159.087 51.7764 158.833C51.9268 158.579 52.255 158.492 52.5102 158.642C53.7227 159.35 54.9671 160.063 56.2115 160.763C56.4713 160.908 56.5624 161.23 56.4166 161.489C56.3163 161.662 56.1385 161.762 55.9471 161.762H55.9516ZM48.572 157.434C48.4763 157.434 48.3805 157.407 48.2894 157.353C47.0678 156.603 45.8508 155.831 44.6656 155.059C44.4195 154.901 44.3466 154.569 44.5107 154.324C44.6702 154.079 45.003 154.006 45.2491 154.169C46.4297 154.932 47.6421 155.7 48.8546 156.449C49.1053 156.603 49.1828 156.93 49.0278 157.185C48.9275 157.348 48.7498 157.439 48.572 157.439V157.434ZM41.3974 152.78C41.2926 152.78 41.1878 152.748 41.0966 152.685C39.9115 151.876 38.7309 151.045 37.5868 150.219C37.3498 150.046 37.2951 149.715 37.4683 149.474C37.6415 149.234 37.9743 149.184 38.2159 149.356C39.3508 150.178 40.5268 151 41.7028 151.808C41.9444 151.976 42.0082 152.308 41.8396 152.548C41.7348 152.698 41.5661 152.78 41.3974 152.78ZM34.4645 147.771C34.3505 147.771 34.2366 147.735 34.1409 147.662C32.9968 146.786 31.8618 145.896 30.7724 145.006C30.5445 144.82 30.508 144.484 30.6949 144.257C30.8818 144.03 31.2191 143.993 31.447 144.18C32.5318 145.061 33.6577 145.946 34.7927 146.818C35.0251 146.995 35.0707 147.331 34.893 147.567C34.7881 147.703 34.6286 147.776 34.469 147.776L34.4645 147.771ZM27.8324 142.382C27.7093 142.382 27.5817 142.341 27.4814 142.25C26.3874 141.305 25.3117 140.343 24.2816 139.389C24.0628 139.189 24.0537 138.853 24.2542 138.635C24.4548 138.422 24.7921 138.408 25.0109 138.608C26.0319 139.553 27.0985 140.511 28.1833 141.446C28.4067 141.641 28.4295 141.977 28.238 142.2C28.1332 142.322 27.9828 142.382 27.8324 142.382ZM21.5649 136.574C21.4282 136.574 21.2914 136.524 21.1866 136.419C20.1655 135.402 19.1628 134.362 18.2055 133.332C18.005 133.114 18.0187 132.778 18.2374 132.578C18.4562 132.378 18.7935 132.392 18.9941 132.61C19.9422 133.631 20.9359 134.662 21.9478 135.67C22.1575 135.879 22.1575 136.215 21.9478 136.424C21.843 136.528 21.7062 136.578 21.5695 136.578L21.5649 136.574ZM15.7578 130.303C15.6074 130.303 15.4524 130.239 15.3476 130.112C14.4086 129.009 13.5015 127.883 12.6446 126.775C12.4668 126.539 12.5078 126.207 12.7449 126.026C12.9773 125.844 13.3146 125.889 13.497 126.125C14.3402 127.224 15.2427 128.332 16.168 129.427C16.3595 129.654 16.3321 129.99 16.1042 130.176C16.004 130.262 15.8809 130.303 15.7578 130.303ZM10.5569 123.537C10.3883 123.537 10.2196 123.455 10.1148 123.306C9.28978 122.111 8.50578 120.894 7.78103 119.696C7.63061 119.441 7.7081 119.114 7.96336 118.965C8.21406 118.815 8.5468 118.892 8.69722 119.146C9.41285 120.327 10.1877 121.526 10.9991 122.702C11.1677 122.947 11.1039 123.278 10.8623 123.442C10.7712 123.505 10.6663 123.537 10.5615 123.537H10.5569ZM6.14921 116.231C5.95321 116.231 5.76632 116.127 5.67516 115.94C5.00511 114.646 4.3852 113.339 3.83367 112.049C3.71971 111.776 3.84278 111.463 4.11627 111.35C4.38976 111.232 4.70427 111.359 4.81823 111.631C5.36065 112.898 5.96688 114.183 6.62782 115.45C6.76456 115.713 6.65972 116.031 6.39991 116.167C6.32242 116.208 6.23582 116.226 6.15377 116.226L6.14921 116.231ZM2.80808 108.389C2.58473 108.389 2.37506 108.248 2.30212 108.026C1.84175 106.645 1.44519 105.251 1.12156 103.88C1.05319 103.594 1.23096 103.308 1.51812 103.24C1.80529 103.172 2.09245 103.349 2.16082 103.635C2.47533 104.974 2.86734 106.337 3.31404 107.685C3.4052 107.967 3.25478 108.266 2.97673 108.357C2.92203 108.375 2.86278 108.384 2.80808 108.384V108.389ZM0.866305 100.102C0.601931 100.102 0.374023 99.9068 0.337558 99.6389C0.146116 98.204 0.0321615 96.7555 0.000254431 95.3342C-0.00886189 95.0391 0.228162 94.7939 0.524443 94.7893C0.816165 94.7939 1.06686 95.0164 1.07142 95.3115C1.10333 96.6919 1.21728 98.0996 1.39961 99.5027C1.43607 99.7933 1.23096 100.061 0.939235 100.102C0.916444 100.102 0.893653 100.102 0.866305 100.102ZM0.665746 91.5926C0.665746 91.5926 0.633838 91.5926 0.615606 91.5926C0.319326 91.5654 0.105092 91.3065 0.127883 91.0159C0.250953 89.6355 0.451512 88.2506 0.725002 86.8929L0.756909 86.7339C0.816165 86.4433 1.09877 86.2617 1.39049 86.3207C1.68221 86.3798 1.86454 86.6613 1.80529 86.9519L1.77338 87.1063C1.509 88.4231 1.313 89.7717 1.19449 91.1113C1.1717 91.3883 0.934677 91.5971 0.661187 91.5971L0.665746 91.5926ZM2.38873 83.2602C2.33403 83.2602 2.27478 83.2511 2.22008 83.233C1.93747 83.1422 1.78705 82.8379 1.87822 82.5609C2.32492 81.2078 2.85822 79.8546 3.4599 78.5423C3.58297 78.2744 3.90204 78.1563 4.17097 78.279C4.4399 78.4016 4.55841 78.7194 4.43534 78.9873C3.84734 80.2633 3.33227 81.5756 2.89469 82.8924C2.82175 83.1149 2.61208 83.2602 2.38873 83.2602ZM5.93954 75.5272C5.84837 75.5272 5.75265 75.5045 5.66605 75.45C5.41079 75.3002 5.32874 74.9732 5.47916 74.719C6.20391 73.5066 7.0107 72.2987 7.87675 71.1272C8.05452 70.8911 8.38727 70.8411 8.62429 71.0137C8.86131 71.1908 8.91145 71.5222 8.73825 71.7584C7.89499 72.8981 7.10642 74.0742 6.39991 75.2593C6.29963 75.4273 6.12186 75.5181 5.93954 75.5181V75.5272ZM11.0036 68.6751C10.876 68.6751 10.7484 68.6297 10.6481 68.5389C10.4293 68.3437 10.4065 68.0076 10.6025 67.7851C11.5415 66.7362 12.5489 65.6964 13.6064 64.6883C13.8206 64.484 14.1579 64.4931 14.363 64.7065C14.5681 64.9199 14.559 65.2559 14.3448 65.4603C13.3101 66.4456 12.321 67.4673 11.4002 68.4935C11.2954 68.6116 11.1495 68.6706 10.9991 68.6706L11.0036 68.6751ZM17.18 62.7857C17.025 62.7857 16.8746 62.7176 16.7652 62.5905C16.5783 62.3634 16.6102 62.0274 16.8381 61.8412C17.9229 60.9512 19.0716 60.0703 20.2567 59.2212C20.4983 59.0486 20.831 59.1031 21.0042 59.3438C21.1775 59.5845 21.1228 59.9159 20.8812 60.0885C19.7143 60.924 18.5839 61.7913 17.5173 62.6677C17.417 62.7494 17.2985 62.7903 17.1754 62.7903L17.18 62.7857ZM24.122 57.8045C23.9443 57.8045 23.7711 57.7182 23.6708 57.5547C23.5112 57.305 23.5887 56.978 23.8349 56.8191C25.0245 56.0699 26.2689 55.3297 27.5361 54.6214C27.7959 54.4761 28.1195 54.5669 28.2654 54.8257C28.4113 55.0845 28.3201 55.4069 28.0603 55.5522C26.8068 56.2515 25.5806 56.9826 24.4092 57.7227C24.3226 57.7772 24.2223 57.8045 24.122 57.8045ZM31.5792 53.6224C31.3832 53.6224 31.1917 53.5134 31.1006 53.3272C30.9684 53.0639 31.0732 52.746 31.3376 52.6098C32.5956 51.9831 33.9038 51.3656 35.2303 50.7753C35.4992 50.6572 35.8183 50.7753 35.9368 51.0432C36.0553 51.3111 35.9368 51.629 35.6678 51.747C34.3597 52.3282 33.0651 52.9413 31.8208 53.5588C31.7433 53.5951 31.6612 53.6133 31.5837 53.6133L31.5792 53.6224ZM39.3919 50.1396C39.1776 50.1396 38.9771 50.0124 38.895 49.8036C38.7856 49.5311 38.9178 49.2223 39.1913 49.1088C40.504 48.5866 41.8578 48.0781 43.2116 47.5922C43.4896 47.4923 43.795 47.6376 43.8953 47.9146C43.9956 48.1916 43.8497 48.4958 43.5717 48.5957C42.227 49.077 40.8869 49.5811 39.5879 50.0987C39.524 50.126 39.4557 50.135 39.3873 50.135L39.3919 50.1396ZM47.4507 47.2607C47.2228 47.2607 47.0131 47.1154 46.9402 46.8884C46.849 46.6068 47.004 46.3071 47.2866 46.2163C48.6312 45.7895 50.0124 45.3672 51.398 44.9721C51.6807 44.8949 51.9769 45.0539 52.059 45.3399C52.141 45.6215 51.9769 45.9166 51.6898 45.9984C50.3132 46.3889 48.9412 46.8066 47.6102 47.2335C47.5555 47.2516 47.5008 47.2607 47.4461 47.2607H47.4507ZM55.6827 44.9086C55.4457 44.9086 55.2269 44.7496 55.1631 44.509C55.0902 44.2229 55.2634 43.9323 55.5505 43.8596C56.918 43.51 58.3264 43.174 59.7258 42.8607C60.013 42.7971 60.3001 42.9742 60.3639 43.2648C60.4278 43.5509 60.25 43.8369 59.9583 43.9005C58.5635 44.2138 57.1687 44.5498 55.8103 44.8949C55.7648 44.9086 55.7237 44.9131 55.6782 44.9131L55.6827 44.9086ZM64.0333 43.0241C63.7826 43.0241 63.5592 42.847 63.5091 42.5973C63.4498 42.3067 63.6413 42.0297 63.9284 41.9707C65.305 41.6982 66.7271 41.4349 68.1493 41.1851C68.441 41.1352 68.7191 41.3304 68.7692 41.6165C68.8193 41.9071 68.6233 42.1841 68.3362 42.234C66.9231 42.4792 65.5101 42.7426 64.1381 43.0151C64.1016 43.0241 64.0697 43.0241 64.0333 43.0241ZM72.4659 41.5575C72.206 41.5575 71.9781 41.3667 71.9371 41.1034C71.8915 40.8128 72.0966 40.5403 72.3884 40.4949C73.7832 40.286 75.2144 40.0862 76.6411 39.9046C76.9374 39.8683 77.2018 40.0726 77.2383 40.3678C77.2747 40.6584 77.0696 40.9263 76.7733 40.9626C75.3557 41.1442 73.9336 41.3395 72.5434 41.5484C72.516 41.5484 72.4886 41.5529 72.4613 41.5529L72.4659 41.5575Z" fill="#019AED"/>
<path d="M281.202 68.2438C278.823 68.2438 276.886 66.3048 276.886 63.9209C276.886 61.537 278.823 59.5981 281.202 59.5981C283.582 59.5981 285.519 61.537 285.519 63.9209C285.519 66.3048 283.582 68.2438 281.202 68.2438ZM281.202 60.6652C279.411 60.6652 277.957 62.1273 277.957 63.9209C277.957 65.7145 279.415 67.1767 281.202 67.1767C282.989 67.1767 284.448 65.7145 284.448 63.9209C284.448 62.1273 282.989 60.6652 281.202 60.6652Z" fill="#019AED"/>
<path d="M284.881 78.901C284.881 80.0045 283.987 80.899 282.884 80.899C281.781 80.899 280.888 80.0045 280.888 78.901C280.888 77.7976 281.781 76.9031 282.884 76.9031C283.987 76.9031 284.881 77.7976 284.881 78.901Z" fill="#71D4FF"/>
<path d="M142.288 63.4033C142.151 63.4033 142.014 63.3488 141.909 63.2443L140.524 61.8549C140.314 61.646 140.319 61.31 140.524 61.1011C140.733 60.8922 141.071 60.8922 141.28 61.1011L142.666 62.4906C142.876 62.6994 142.871 63.0355 142.666 63.2443C142.561 63.3488 142.424 63.3987 142.288 63.3987V63.4033Z" fill="black"/>
<path d="M147.138 68.2665C147.001 68.2665 146.864 68.212 146.759 68.1076L145.374 66.7181C145.164 66.5092 145.168 66.1732 145.374 65.9643C145.583 65.7554 145.921 65.7554 146.13 65.9643L147.516 67.3538C147.726 67.5627 147.721 67.8987 147.516 68.1076C147.411 68.212 147.274 68.2619 147.138 68.2619V68.2665Z" fill="black"/>
<path d="M140.897 68.2665C140.761 68.2665 140.624 68.2165 140.519 68.1121C140.309 67.9032 140.309 67.5672 140.519 67.3583L141.905 65.9688C142.115 65.7599 142.452 65.7599 142.661 65.9688C142.871 66.1777 142.871 66.5137 142.661 66.7226L141.276 68.1121C141.171 68.2165 141.034 68.271 140.897 68.271V68.2665Z" fill="black"/>
<path d="M145.752 63.4033C145.615 63.4033 145.478 63.3533 145.374 63.2489C145.164 63.04 145.164 62.704 145.374 62.4951L146.759 61.1056C146.969 60.8968 147.306 60.8968 147.516 61.1056C147.726 61.3145 147.726 61.6505 147.516 61.8594L146.13 63.2489C146.025 63.3533 145.889 63.4078 145.752 63.4078V63.4033Z" fill="black"/>
</svg>
