<svg width="287" height="167" viewBox="0 0 287 167" fill="none" xmlns="http://www.w3.org/2000/svg">
<path d="M249.493 127.225L202.13 173.786H228.952L262.49 140.533L266.692 144.364L266.736 123.258H245.51L249.493 127.225Z" fill="#019AED"/>
<path d="M146.695 58.0194L120.753 83.3295L137.578 100.289L163.316 75.0368L168.693 79.9406L168.747 52.9409H141.605L146.695 58.0194Z" fill="#71D4FF"/>
<path d="M262.335 77.144L238.977 100.08L248.249 109.426L271.496 86.5242L274.458 89.2285L274.488 74.3474H259.528L262.335 77.144Z" fill="#71D4FF"/>
<path d="M228.947 60.1945L192.139 95.4334L199.794 103.148L236.509 67.9337L238.953 70.1671L238.977 57.8835H226.63L228.947 60.1945Z" fill="#019AED"/>
<path d="M199.794 103.357C199.741 103.357 199.687 103.338 199.643 103.294L191.988 95.5791C191.95 95.5403 191.925 95.4869 191.925 95.4286C191.925 95.3703 191.95 95.3169 191.988 95.2781L228.641 60.1848L226.475 58.0291C226.416 57.9709 226.397 57.8786 226.431 57.8009C226.465 57.7233 226.538 57.6698 226.625 57.6698H238.972C239.025 57.6698 239.079 57.6941 239.123 57.733C239.161 57.7718 239.186 57.8252 239.186 57.8835L239.161 70.1671C239.161 70.2496 239.113 70.3273 239.035 70.3564C238.957 70.3904 238.87 70.3759 238.812 70.3176L236.509 68.2202L199.935 103.299C199.896 103.338 199.843 103.357 199.789 103.357H199.794ZM192.44 95.4383L199.799 102.857L236.364 67.788C236.441 67.7104 236.568 67.7104 236.65 67.788L238.749 69.701L238.773 58.102H227.14L229.097 60.0537C229.136 60.0926 229.161 60.146 229.161 60.2043C229.161 60.2625 229.136 60.3159 229.097 60.3548L192.445 95.448L192.44 95.4383Z" fill="black"/>
<path d="M83.4641 48.5809L63.0348 67.7929L69.4171 74.226L89.7687 55.0335L91.8039 56.893L91.8233 46.6583H81.5309L83.4641 48.5809Z" fill="#71D4FF"/>
<path d="M58.4641 95.3849L-8.64571 154.856V173.791L67.8434 104.993L70.8791 107.761L70.9083 92.5203H55.5887L58.4641 95.3849Z" fill="#019AED"/>
<path d="M202.13 173.995C202.077 173.995 202.023 173.976 201.98 173.932C201.897 173.849 201.902 173.718 201.98 173.636L249.191 127.22L245.359 123.404C245.301 123.346 245.282 123.254 245.316 123.176C245.35 123.098 245.422 123.045 245.51 123.045H266.731C266.784 123.045 266.838 123.069 266.881 123.108C266.92 123.147 266.944 123.2 266.944 123.258L266.901 144.369C266.901 144.451 266.852 144.529 266.774 144.558C266.702 144.592 266.609 144.578 266.551 144.519L262.495 140.82L229.097 173.937C229.015 174.019 228.884 174.019 228.801 173.937C228.719 173.854 228.719 173.723 228.801 173.641L262.34 140.383C262.418 140.305 262.544 140.3 262.626 140.378L266.478 143.893L266.517 123.467H246.01L249.633 127.08C249.672 127.118 249.697 127.172 249.697 127.23C249.697 127.283 249.672 127.337 249.633 127.381L202.271 173.942C202.232 173.981 202.179 174 202.125 174L202.13 173.995Z" fill="black"/>
<path d="M152.198 139.059L124.697 166.112L165.235 166.132L172.045 159.378L178.466 165.234L178.529 133H146.122L152.198 139.059Z" fill="#019AED"/>
<path d="M172.22 172.91C172.166 172.91 172.113 172.89 172.069 172.846C171.987 172.764 171.987 172.633 172.069 172.55L178.879 165.797C178.957 165.719 179.083 165.714 179.165 165.792L185.232 171.327L185.295 139.778H153.602L159.324 145.478C159.363 145.517 159.387 145.57 159.387 145.628C159.387 145.687 159.363 145.74 159.324 145.779L131.822 172.832C131.74 172.914 131.609 172.91 131.526 172.832C131.444 172.749 131.448 172.618 131.526 172.536L158.877 145.628L152.946 139.72C152.888 139.661 152.869 139.569 152.903 139.491C152.937 139.414 153.009 139.36 153.097 139.36H185.504C185.558 139.36 185.611 139.385 185.655 139.423C185.694 139.462 185.718 139.516 185.718 139.574L185.655 171.807C185.655 171.89 185.606 171.968 185.528 171.997C185.451 172.031 185.363 172.016 185.305 171.958L179.034 166.239L172.365 172.851C172.327 172.89 172.273 172.914 172.22 172.914V172.91Z" fill="black"/>
<path d="M-8.64571 174C-8.69914 174 -8.75257 173.981 -8.79629 173.937C-8.87886 173.854 -8.87886 173.723 -8.79629 173.641L67.6928 104.843C67.7705 104.765 67.8968 104.76 67.9794 104.838L70.6654 107.285L70.6945 92.7291H56.089L58.605 95.2344C58.6439 95.2732 58.6682 95.3266 58.6682 95.3849C58.6682 95.4383 58.6439 95.4966 58.605 95.5354L-8.5 155.007C-8.58257 155.089 -8.71371 155.084 -8.79629 155.007C-8.87886 154.924 -8.874 154.793 -8.79629 154.71L58.1581 95.3898L55.4333 92.6757C55.375 92.6174 55.3556 92.5252 55.3896 92.4475C55.4236 92.3698 55.4964 92.3164 55.5838 92.3164H70.9034C70.9568 92.3164 71.0103 92.3407 71.054 92.3795C71.0928 92.4184 71.1171 92.4718 71.1171 92.5301L71.088 107.77C71.088 107.853 71.0394 107.931 70.9617 107.96C70.884 107.994 70.7965 107.979 70.7383 107.921L67.8531 105.289L-8.5 173.937C-8.53885 173.976 -8.59228 173.995 -8.64571 173.995V174Z" fill="black"/>
<path d="M47.38 41.1234C47.38 41.1234 47.3509 41.1234 47.3412 41.1234L26.1735 36.9965C26.0618 36.9722 25.9841 36.8654 26.0084 36.7489C26.0327 36.6372 26.1395 36.5595 26.2561 36.5838L47.3558 40.6961L80.3409 23.936C80.3895 23.9118 80.4429 23.9069 80.4964 23.9215L113.185 33.7484L139.691 15.6822C139.73 15.658 139.778 15.6434 139.822 15.6482L172.229 17.634L205.744 2.84999C205.788 2.83057 205.831 2.82572 205.88 2.84028L236.786 10.3124C236.898 10.3415 236.966 10.4532 236.942 10.5649C236.913 10.6765 236.801 10.7445 236.689 10.7202L205.856 3.26268L172.361 18.037C172.331 18.0516 172.297 18.0564 172.263 18.0564L139.876 16.0755L113.346 34.1611C113.292 34.195 113.229 34.2048 113.166 34.1902L80.4624 24.3584L47.4869 41.1137C47.4578 41.1282 47.4238 41.138 47.3898 41.138L47.38 41.1234Z" fill="#019AED"/>
<path d="M46.258 44.3424C48.0849 44.3424 49.5658 42.8642 49.5658 41.0408C49.5658 39.2175 48.0849 37.7393 46.258 37.7393C44.4312 37.7393 42.9503 39.2175 42.9503 41.0408C42.9503 42.8642 44.4312 44.3424 46.258 44.3424Z" fill="#019AED"/>
<path d="M46.258 44.556C44.3152 44.556 42.7366 42.9829 42.7366 41.0457C42.7366 39.1085 44.3152 37.5354 46.258 37.5354C48.2009 37.5354 49.7795 39.1085 49.7795 41.0457C49.7795 42.9829 48.2009 44.556 46.258 44.556ZM46.258 37.9481C44.5483 37.9481 43.1591 39.3367 43.1591 41.0408C43.1591 42.745 44.5483 44.1336 46.258 44.1336C47.9678 44.1336 49.3569 42.745 49.3569 41.0408C49.3569 39.3367 47.9678 37.9481 46.258 37.9481Z" fill="black"/>
<path d="M80.7392 27.7231C82.566 27.7231 84.047 26.2449 84.047 24.4216C84.047 22.5982 82.566 21.12 80.7392 21.12C78.9124 21.12 77.4315 22.5982 77.4315 24.4216C77.4315 26.2449 78.9124 27.7231 80.7392 27.7231Z" fill="#019AED"/>
<path d="M80.7392 27.9319C78.7963 27.9319 77.2178 26.3588 77.2178 24.4216C77.2178 22.4843 78.7963 20.9113 80.7392 20.9113C82.6821 20.9113 84.2607 22.4843 84.2607 24.4216C84.2607 26.3588 82.6821 27.9319 80.7392 27.9319ZM80.7392 21.3288C79.0295 21.3288 77.6403 22.7174 77.6403 24.4216C77.6403 26.1257 79.0295 27.5143 80.7392 27.5143C82.4489 27.5143 83.8381 26.1257 83.8381 24.4216C83.8381 22.7174 82.4489 21.3288 80.7392 21.3288Z" fill="black"/>
<path d="M112.831 36.7926C114.657 36.7926 116.138 35.3144 116.138 33.491C116.138 31.6677 114.657 30.1895 112.831 30.1895C111.004 30.1895 109.523 31.6677 109.523 33.491C109.523 35.3144 111.004 36.7926 112.831 36.7926Z" fill="#019AED"/>
<path d="M112.831 37.0013C110.888 37.0013 109.309 35.4283 109.309 33.491C109.309 31.5538 110.888 29.9807 112.831 29.9807C114.774 29.9807 116.352 31.5538 116.352 33.491C116.352 35.4283 114.774 37.0013 112.831 37.0013ZM112.831 30.3983C111.121 30.3983 109.732 31.7869 109.732 33.491C109.732 35.1952 111.121 36.5838 112.831 36.5838C114.54 36.5838 115.93 35.1952 115.93 33.491C115.93 31.7869 114.54 30.3983 112.831 30.3983Z" fill="black"/>
<path d="M139.861 19.6635C141.688 19.6635 143.169 18.1853 143.169 16.362C143.169 14.5386 141.688 13.0604 139.861 13.0604C138.034 13.0604 136.553 14.5386 136.553 16.362C136.553 18.1853 138.034 19.6635 139.861 19.6635Z" fill="#019AED"/>
<path d="M139.861 19.8723C137.918 19.8723 136.34 18.2992 136.34 16.362C136.34 14.4247 137.918 12.8517 139.861 12.8517C141.804 12.8517 143.383 14.4247 143.383 16.362C143.383 18.2992 141.804 19.8723 139.861 19.8723ZM139.861 13.2692C138.151 13.2692 136.762 14.6578 136.762 16.362C136.762 18.0661 138.151 19.4547 139.861 19.4547C141.571 19.4547 142.96 18.0661 142.96 16.362C142.96 14.6578 141.571 13.2692 139.861 13.2692Z" fill="black"/>
<path d="M172.268 20.2413C174.095 20.2413 175.576 18.7631 175.576 16.9397C175.576 15.1163 174.095 13.6382 172.268 13.6382C170.441 13.6382 168.96 15.1163 168.96 16.9397C168.96 18.7631 170.441 20.2413 172.268 20.2413Z" fill="#019AED"/>
<path d="M172.268 20.45C170.325 20.45 168.747 18.8769 168.747 16.9397C168.747 15.0025 170.325 13.4294 172.268 13.4294C174.211 13.4294 175.79 15.0025 175.79 16.9397C175.79 18.8769 174.211 20.45 172.268 20.45ZM172.268 13.847C170.559 13.847 169.169 15.2356 169.169 16.9397C169.169 18.6439 170.559 20.0325 172.268 20.0325C173.978 20.0325 175.367 18.6439 175.367 16.9397C175.367 15.2356 173.978 13.847 172.268 13.847Z" fill="black"/>
<path d="M205.443 6.81182C207.27 6.81182 208.751 5.33368 208.751 3.5103C208.751 1.68692 207.27 0.208773 205.443 0.208773C203.616 0.208773 202.135 1.68692 202.135 3.5103C202.135 5.33368 203.616 6.81182 205.443 6.81182Z" fill="#019AED"/>
<path d="M205.443 7.02059C203.5 7.02059 201.921 5.44751 201.921 3.5103C201.921 1.57308 203.5 0 205.443 0C207.386 0 208.964 1.57308 208.964 3.5103C208.964 5.44751 207.386 7.02059 205.443 7.02059ZM205.443 0.417546C203.733 0.417546 202.344 1.80613 202.344 3.5103C202.344 5.21447 203.733 6.60305 205.443 6.60305C207.153 6.60305 208.542 5.21447 208.542 3.5103C208.542 1.80613 207.153 0.417546 205.443 0.417546Z" fill="black"/>
<path d="M260.45 52.9409C274.998 52.9409 286.791 41.1658 286.791 26.6404C286.791 12.115 274.998 0.339863 260.45 0.339863C245.903 0.339863 234.11 12.115 234.11 26.6404C234.11 41.1658 245.903 52.9409 260.45 52.9409Z" fill="#019AED"/>
<path d="M260.45 53.1545C245.811 53.1545 233.901 41.2642 233.901 26.6452C233.901 12.0263 245.811 0.13109 260.45 0.13109C275.09 0.13109 287 12.0214 287 26.6404C287 41.2593 275.09 53.1497 260.45 53.1497V53.1545ZM260.45 0.553491C246.039 0.553491 234.319 12.2593 234.319 26.6452C234.319 41.0311 246.039 52.737 260.45 52.737C274.862 52.737 286.582 41.0311 286.582 26.6452C286.582 12.2593 274.862 0.553491 260.45 0.553491Z" fill="black"/>
<path d="M260.45 47.1438C254.967 47.1438 249.808 45.0124 245.932 41.138C242.056 37.2684 239.919 32.117 239.919 26.6404C239.919 21.1637 242.056 16.0172 245.932 12.1428C249.808 8.27323 254.967 6.13695 260.45 6.13695C265.934 6.13695 271.092 8.26837 274.968 12.1428C278.845 16.0124 280.982 21.1637 280.982 26.6404C280.982 32.117 278.845 37.2635 274.968 41.138C271.092 45.0075 265.934 47.1438 260.45 47.1438Z" fill="#71D4FF"/>
<path d="M260.45 40.5845C256.72 40.5845 253.213 39.1328 250.576 36.5013C247.938 33.8697 246.486 30.3643 246.486 26.6404C246.486 22.9165 247.938 19.4159 250.576 16.7795C253.213 14.148 256.72 12.6963 260.45 12.6963C264.181 12.6963 267.688 14.148 270.325 16.7795C272.963 19.411 274.415 22.9165 274.415 26.6404C274.415 30.3643 272.963 33.8649 270.325 36.5013C267.688 39.1328 264.181 40.5845 260.45 40.5845Z" fill="#019AED"/>
<path d="M260.45 34.3067C258.401 34.3067 256.472 33.5105 255.025 32.0636C253.578 30.6168 252.776 28.6893 252.776 26.6452C252.776 24.6012 253.573 22.6737 255.025 21.2269C256.472 19.78 258.401 18.9838 260.45 18.9838C262.5 18.9838 264.428 19.78 265.876 21.2269C267.323 22.6737 268.125 24.6012 268.125 26.6452C268.125 28.6893 267.328 30.6168 265.876 32.0636C264.428 33.5105 262.5 34.3067 260.45 34.3067Z" fill="#71D4FF"/>
</svg>
