<svg width="292" height="183" viewBox="0 0 292 183" fill="none" xmlns="http://www.w3.org/2000/svg">
<path d="M0.633913 184.416C0.633913 184.416 0.58597 184.416 0.556006 184.416C0.20842 184.374 -0.037287 184.061 0.00466297 183.713C2.38982 163.684 9.19171 144.442 20.2186 126.532C31.0357 108.972 45.3766 93.543 62.8397 80.6848C63.1214 80.4806 63.5169 80.5406 63.7207 80.8169C63.9244 81.0992 63.8645 81.4955 63.5889 81.6997C28.6445 107.44 5.9256 144.676 1.25717 183.863C1.22121 184.181 0.945541 184.422 0.633913 184.422V184.416Z" fill="#019AED"/>
<path d="M8.37069 212C8.04707 212 7.7774 211.754 7.74743 211.429C5.81174 191.058 8.85012 170.951 16.7727 151.678C24.4255 133.061 36.1835 116.233 51.723 101.657C51.9747 101.417 52.3762 101.435 52.6159 101.687C52.8556 101.939 52.8377 102.341 52.586 102.582C21.1235 132.07 5.23642 171.702 8.99395 211.309C9.02391 211.658 8.77221 211.964 8.42462 212C8.40664 212 8.38267 212 8.36469 212H8.37069Z" fill="#019AED"/>
<path d="M61.1438 100.095C60.9999 100.095 60.8621 100.047 60.7482 99.9572L56.3435 96.3777C56.1637 96.2276 56.0798 95.9934 56.1218 95.7652C56.1697 95.5369 56.3375 95.3508 56.5592 95.2847L62.0787 93.6151C62.2884 93.555 62.5101 93.6031 62.6779 93.7472C62.8397 93.8914 62.9176 94.1076 62.8817 94.3238C62.4382 96.9783 61.767 99.6028 61.761 99.6268C61.7071 99.837 61.5513 99.9992 61.3475 100.071C61.2816 100.095 61.2157 100.101 61.1498 100.101L61.1438 100.095ZM58.0574 96.1435L60.7662 98.3476C60.952 97.5669 61.2157 96.3837 61.4554 95.1165L58.0574 96.1435Z" fill="#019AED"/>
<path d="M261.743 45.7795C261.701 45.7795 261.659 45.7795 261.617 45.7675L258.423 45.1188C258.081 45.0528 257.859 44.7165 257.931 44.3741C258.003 44.0318 258.333 43.8096 258.674 43.8817L261.868 44.5303C262.21 44.5963 262.432 44.9327 262.36 45.275C262.3 45.5753 262.036 45.7795 261.743 45.7795Z" fill="#019AED"/>
<path d="M269.18 47.2869C269.138 47.2869 269.096 47.2869 269.054 47.2749L265.86 46.6263C265.518 46.5602 265.296 46.2239 265.368 45.8816C265.44 45.5392 265.77 45.317 266.111 45.3891L269.306 46.0377C269.647 46.1038 269.869 46.4401 269.797 46.7824C269.737 47.0827 269.473 47.2869 269.18 47.2869Z" fill="#019AED"/>
<path d="M262.791 51.533C262.749 51.533 262.707 51.533 262.665 51.5209C262.324 51.4549 262.102 51.1186 262.174 50.7762L262.821 47.5752C262.893 47.2329 263.223 47.0106 263.564 47.0827C263.906 47.1488 264.128 47.4851 264.056 47.8274L263.409 51.0285C263.349 51.3288 263.085 51.533 262.791 51.533Z" fill="#019AED"/>
<path d="M264.296 44.0798C264.254 44.0798 264.212 44.0798 264.17 44.0678C263.828 44.0018 263.606 43.6655 263.678 43.3231L264.326 40.1221C264.397 39.7797 264.727 39.5575 265.069 39.6296C265.41 39.6957 265.632 40.032 265.56 40.3743L264.913 43.5754C264.853 43.8757 264.589 44.0798 264.296 44.0798Z" fill="#019AED"/>
<path d="M291.353 55.2565H291.341C290.994 55.2505 290.718 54.9622 290.724 54.6139C291.161 33.0113 285.259 14.9881 273.165 1.0428C272.937 0.778552 272.967 0.382174 273.225 0.153956C273.489 -0.0742613 273.884 -0.0442327 274.112 0.214014C286.415 14.3995 292.426 32.711 291.977 54.6379C291.971 54.9802 291.689 55.2565 291.347 55.2565H291.353Z" fill="#019AED"/>
<path d="M284.893 54.686C284.551 54.686 284.27 54.4097 284.264 54.0674C283.922 32.4648 277.366 14.6698 264.781 1.16892C264.541 0.916684 264.559 0.5143 264.811 0.274071C265.063 0.0338418 265.464 0.051859 265.704 0.3041C278.511 14.0332 285.181 32.1164 285.522 54.0434C285.522 54.3917 285.253 54.68 284.905 54.686H284.893Z" fill="#019AED"/>
<path d="M237.28 178.92H174.571C174.223 178.92 173.941 178.638 173.941 178.29V153.63C173.941 153.576 173.947 153.522 173.959 153.474V153.03C173.959 150.892 175.697 149.15 177.831 149.15C178.903 149.15 179.934 149.6 180.653 150.381C182.829 152.729 185.909 154.075 189.097 154.075C192.285 154.075 195.24 152.808 197.433 150.501C199.627 148.195 200.759 145.168 200.609 141.979C200.34 136.118 195.737 131.397 189.9 131.001C186.394 130.761 183.026 132.1 180.647 134.664C179.922 135.445 178.891 135.895 177.825 135.895C175.691 135.895 173.953 134.154 173.953 132.016V131.565C173.941 131.517 173.935 131.463 173.935 131.415V106.756C173.935 106.407 174.217 106.125 174.565 106.125H200.49C201.61 105.807 202.383 104.786 202.383 103.615C202.383 102.894 202.084 102.197 201.562 101.711C198.967 99.2905 197.475 95.8733 197.475 92.3239C197.475 88.7745 198.878 85.4954 201.43 83.057C203.983 80.6187 207.333 79.3635 210.863 79.5257C217.354 79.8259 222.579 84.9428 223.017 91.435C223.28 95.3267 221.8 99.0743 218.966 101.717C218.444 102.203 218.139 102.9 218.139 103.621C218.139 104.792 218.912 105.813 220.032 106.131H245.957C246.305 106.131 246.587 106.413 246.587 106.762V169.606C246.587 174.752 242.404 178.944 237.268 178.944L237.28 178.92ZM175.2 177.659H237.274C241.72 177.659 245.334 174.038 245.334 169.582V107.374H219.954C219.9 107.374 219.853 107.368 219.799 107.356C218.079 106.918 216.88 105.374 216.88 103.603C216.88 102.528 217.33 101.495 218.109 100.774C220.668 98.3896 222.004 95.0084 221.764 91.5011C221.369 85.6515 216.658 81.0391 210.809 80.7689C207.627 80.6247 204.607 81.7538 202.305 83.9519C200.004 86.156 198.74 89.1228 198.74 92.3058C198.74 95.4889 200.082 98.5878 202.425 100.768C203.204 101.495 203.654 102.528 203.654 103.597C203.654 105.368 202.455 106.918 200.735 107.35C200.687 107.362 200.633 107.368 200.58 107.368H175.2V131.247C175.212 131.295 175.218 131.349 175.218 131.397V131.998C175.218 133.439 176.386 134.616 177.831 134.616C178.55 134.616 179.245 134.316 179.73 133.793C182.367 130.947 186.107 129.469 189.99 129.728C196.468 130.166 201.574 135.403 201.874 141.907C202.036 145.451 200.783 148.808 198.35 151.36C195.911 153.919 192.627 155.324 189.103 155.324C185.579 155.324 182.145 153.835 179.736 151.228C179.251 150.706 178.556 150.405 177.837 150.405C176.398 150.405 175.224 151.576 175.224 153.024V153.624C175.224 153.678 175.218 153.732 175.206 153.78V177.653L175.2 177.659Z" fill="#019AED"/>
<path d="M237.28 35.1914H174.571V61.046C174.289 62.5535 172.97 63.7006 171.388 63.7006C170.495 63.7006 169.632 63.3282 169.027 62.6736C166.63 60.0911 163.124 58.5476 159.271 58.8119C153.152 59.2263 148.256 64.2531 147.974 70.3909C147.657 77.3816 153.212 83.1471 160.116 83.1471C163.634 83.1471 166.804 81.6517 169.021 79.2554C169.632 78.6008 170.489 78.2284 171.382 78.2284C172.97 78.2284 174.289 79.3695 174.565 80.8829V106.738H200.574C201.976 106.377 203.013 105.11 203.013 103.591C203.013 102.696 202.641 101.831 201.988 101.224C199.597 99.0022 198.104 95.8252 198.104 92.2998C198.104 85.3812 203.858 79.8079 210.833 80.1322C216.958 80.4145 221.974 85.3212 222.387 91.453C222.651 95.3147 221.111 98.8281 218.534 101.23C217.875 101.843 217.509 102.702 217.509 103.597C217.509 105.116 218.546 106.383 219.948 106.744H245.957V43.8997C245.957 39.0891 242.068 35.1914 237.268 35.1914H237.28Z" fill="#71D4FF"/>
<path d="M245.969 107.374H219.96C219.906 107.374 219.859 107.368 219.805 107.356C218.085 106.918 216.886 105.374 216.886 103.603C216.886 102.528 217.336 101.495 218.115 100.774C220.674 98.3896 222.01 95.0084 221.77 91.5011C221.375 85.6515 216.664 81.0391 210.815 80.7689C207.633 80.6247 204.613 81.7538 202.311 83.9519C200.01 86.156 198.746 89.1228 198.746 92.3058C198.746 95.4889 200.088 98.5878 202.431 100.768C203.21 101.495 203.66 102.528 203.66 103.597C203.66 105.368 202.461 106.918 200.741 107.35C200.693 107.362 200.639 107.368 200.586 107.368H174.577C174.229 107.368 173.947 107.086 173.947 106.738V80.943C173.696 79.7299 172.629 78.859 171.394 78.859C170.675 78.859 169.98 79.1593 169.495 79.6818C167.079 82.2823 163.67 83.7777 160.128 83.7777C156.586 83.7777 153.314 82.3724 150.881 79.8139C148.448 77.2555 147.195 73.8983 147.357 70.3609C147.657 63.8567 152.763 58.6197 159.241 58.1813C163.112 57.917 166.864 59.4005 169.501 62.2472C169.986 62.7697 170.681 63.076 171.4 63.076C172.641 63.076 173.702 62.2051 173.953 60.992V35.1974C173.953 34.849 174.235 34.5668 174.583 34.5668H237.292C242.428 34.5668 246.611 38.7588 246.611 43.9057V106.75C246.611 107.098 246.329 107.38 245.981 107.38L245.969 107.374ZM220.044 106.113H245.34V43.9057C245.34 39.4494 241.726 35.828 237.28 35.828H175.206V61.052C175.206 61.0881 175.206 61.1301 175.194 61.1661C174.852 63.0039 173.252 64.3372 171.388 64.3372C170.316 64.3372 169.291 63.8867 168.566 63.106C166.187 60.5415 162.813 59.2023 159.313 59.4425C153.476 59.8389 148.873 64.5594 148.603 70.421C148.46 73.616 149.586 76.6429 151.78 78.9431C153.979 81.2493 156.94 82.5165 160.116 82.5165C163.292 82.5165 166.384 81.1712 168.56 78.823C169.285 78.0423 170.316 77.5918 171.382 77.5918C173.246 77.5918 174.846 78.9251 175.188 80.7628C175.194 80.7989 175.2 80.8409 175.2 80.8769V106.101H200.496C201.616 105.783 202.389 104.762 202.389 103.591C202.389 102.87 202.09 102.173 201.568 101.687C198.973 99.2665 197.481 95.8492 197.481 92.2998C197.481 88.7505 198.884 85.4713 201.436 83.033C203.989 80.5947 207.339 79.3395 210.869 79.5016C217.359 79.8019 222.585 84.9188 223.023 91.411C223.286 95.3027 221.806 99.0503 218.972 101.693C218.45 102.179 218.145 102.876 218.145 103.597C218.145 104.768 218.918 105.789 220.038 106.107L220.044 106.113Z" fill="#019AED"/>
<path d="M138.865 134.112C135.557 134.112 132.441 132.863 130.038 130.562C127.485 128.118 126.082 124.827 126.082 121.295C126.082 117.764 127.569 114.323 130.169 111.909C130.691 111.422 130.996 110.725 130.996 110.005C130.996 108.563 129.828 107.386 128.384 107.386H127.784C127.736 107.386 127.688 107.386 127.646 107.368H103.178C102.83 107.368 102.548 107.086 102.548 106.738V43.8937C102.548 38.7468 106.731 34.5548 111.867 34.5548H174.577C174.924 34.5548 175.206 34.837 175.206 35.1854V61.04C175.206 61.0761 175.206 61.1181 175.194 61.1541C174.852 62.9919 173.252 64.3252 171.388 64.3252C170.316 64.3252 169.291 63.8747 168.566 63.094C166.187 60.5295 162.813 59.1903 159.313 59.4305C153.476 59.8269 148.873 64.5474 148.603 70.409C148.46 73.604 149.586 76.6309 151.78 78.9311C153.979 81.2373 156.94 82.5045 160.116 82.5045C163.292 82.5045 166.384 81.1592 168.56 78.811C169.285 78.0302 170.316 77.5798 171.382 77.5798C173.246 77.5798 174.846 78.9131 175.188 80.7508C175.194 80.7869 175.2 80.8289 175.2 80.8649V106.72C175.2 107.068 174.918 107.35 174.571 107.35H150.102C150.06 107.362 150.012 107.368 149.964 107.368H149.365C147.926 107.368 146.752 108.539 146.752 109.987C146.752 110.707 147.051 111.404 147.573 111.891C150.413 114.533 151.894 118.281 151.63 122.172C151.192 128.659 145.967 133.781 139.476 134.082C139.273 134.094 139.069 134.094 138.865 134.094V134.112ZM127.922 106.125H128.384C130.517 106.125 132.255 107.867 132.255 110.005C132.255 111.08 131.806 112.107 131.026 112.833C128.689 115.014 127.347 118.1 127.347 121.295C127.347 124.491 128.611 127.451 130.913 129.649C133.214 131.848 136.228 132.983 139.416 132.832C145.265 132.562 149.976 127.95 150.371 122.1C150.611 118.593 149.275 115.212 146.716 112.827C145.937 112.101 145.487 111.068 145.487 109.999C145.487 107.861 147.225 106.119 149.359 106.119H149.82C149.862 106.107 149.91 106.101 149.958 106.101H173.935V80.937C173.684 79.7238 172.617 78.853 171.382 78.853C170.663 78.853 169.968 79.1533 169.483 79.6758C167.067 82.2763 163.658 83.7717 160.116 83.7717C156.574 83.7717 153.302 82.3664 150.869 79.8079C148.436 77.2495 147.183 73.8923 147.345 70.3549C147.645 63.8507 152.751 58.6137 159.229 58.1753C163.1 57.911 166.852 59.3945 169.489 62.2412C169.974 62.7637 170.669 63.07 171.388 63.07C172.629 63.07 173.69 62.1991 173.941 60.986V35.822H111.867C107.421 35.822 103.807 39.4434 103.807 43.8997V106.107H127.784C127.832 106.107 127.88 106.107 127.922 106.125Z" fill="#019AED"/>
<path d="M193.658 149.078C193.376 142.94 188.48 137.913 182.361 137.499C178.508 137.235 175.002 138.778 172.605 141.361C171.994 142.015 171.137 142.388 170.244 142.388C168.452 142.388 167.002 140.934 167.002 139.139V138.538H166.984V113.878H142.377V113.896H141.778C139.986 113.896 138.535 115.35 138.535 117.146C138.535 118.04 138.907 118.905 139.56 119.512C142.137 121.914 143.677 125.427 143.414 129.289C143 135.421 137.984 140.328 131.859 140.61C124.884 140.928 119.131 135.361 119.131 128.442C119.131 124.917 120.623 121.74 123.014 119.518C123.667 118.905 124.039 118.046 124.039 117.152C124.039 115.356 122.589 113.902 120.797 113.902H120.197V113.884H95.5907V176.728C95.5907 181.539 99.4801 185.437 104.28 185.437H166.99V160.777H167.008V160.177C167.008 158.381 168.458 156.927 170.25 156.927C171.143 156.927 172.006 157.3 172.611 157.954C174.828 160.351 177.998 161.846 181.516 161.846C188.42 161.846 193.981 156.081 193.658 149.09V149.078Z" fill="#019AED"/>
<path d="M166.984 186.061H104.28C99.1445 186.061 94.9614 181.869 94.9614 176.722V113.878C94.9614 113.53 95.2431 113.248 95.5907 113.248H120.197C120.245 113.248 120.293 113.248 120.335 113.266H120.797C122.93 113.266 124.668 115.007 124.668 117.146C124.668 118.221 124.219 119.254 123.439 119.974C121.102 122.154 119.76 125.241 119.76 128.436C119.76 131.631 121.024 134.592 123.326 136.79C125.627 138.988 128.647 140.117 131.829 139.973C137.679 139.703 142.389 135.091 142.784 129.241C143.024 125.734 141.688 122.353 139.129 119.968C138.35 119.242 137.9 118.209 137.9 117.14C137.9 115.001 139.638 113.26 141.772 113.26H142.239C142.281 113.248 142.329 113.242 142.377 113.242H166.984C167.331 113.242 167.613 113.524 167.613 113.872V138.382C167.625 138.43 167.631 138.484 167.631 138.532V139.133C167.631 140.574 168.799 141.751 170.244 141.751C170.963 141.751 171.658 141.451 172.143 140.928C174.78 138.081 178.526 136.604 182.403 136.862C188.881 137.301 193.987 142.538 194.287 149.042C194.449 152.585 193.196 155.937 190.763 158.495C188.324 161.053 185.04 162.459 181.516 162.459C177.992 162.459 174.559 160.969 172.149 158.363C171.664 157.84 170.969 157.54 170.25 157.54C168.811 157.54 167.637 158.711 167.637 160.159V160.759C167.637 160.813 167.631 160.867 167.619 160.915V185.419C167.619 185.767 167.337 186.049 166.99 186.049L166.984 186.061ZM96.2139 114.509V176.716C96.2139 181.173 99.8276 184.794 104.274 184.794H166.348V160.765C166.348 160.711 166.354 160.657 166.366 160.609V160.165C166.366 158.027 168.104 156.285 170.238 156.285C171.31 156.285 172.335 156.735 173.06 157.516C175.236 159.864 178.316 161.204 181.504 161.204C184.692 161.204 187.647 159.936 189.84 157.63C192.034 155.324 193.166 152.297 193.017 149.108C192.747 143.246 188.144 138.526 182.307 138.13C178.801 137.889 175.433 139.229 173.054 141.793C172.329 142.574 171.298 143.024 170.232 143.024C168.098 143.024 166.36 141.283 166.36 139.145V138.694C166.348 138.646 166.342 138.592 166.342 138.544V114.515H142.503C142.461 114.527 142.413 114.533 142.365 114.533H141.766C140.327 114.533 139.153 115.704 139.153 117.152C139.153 117.872 139.452 118.569 139.98 119.055C142.82 121.698 144.301 125.445 144.037 129.337C143.599 135.829 138.374 140.946 131.883 141.247C128.348 141.409 124.998 140.153 122.451 137.715C119.898 135.271 118.495 131.98 118.495 128.448C118.495 124.917 119.982 121.476 122.583 119.061C123.104 118.575 123.41 117.878 123.41 117.158C123.41 115.716 122.241 114.539 120.797 114.539H120.197C120.149 114.539 120.101 114.539 120.06 114.521H96.2199L96.2139 114.509Z" fill="#019AED"/>
<path d="M148.274 186.872C148.274 186.872 148.322 186.89 148.346 186.896C148.322 186.89 148.298 186.878 148.274 186.872Z" fill="black"/>
<path d="M51.8908 143.673L49.5056 145.096L50.4465 147.985C49.9551 148.411 49.4996 148.88 49.0981 149.372L46.1916 148.513L44.8372 150.94L47.0965 152.97C46.8868 153.582 46.7309 154.207 46.6231 154.849L43.6746 155.558L43.7165 158.339L46.677 158.963C46.7969 159.594 46.9767 160.213 47.2104 160.825L45.011 162.921L46.4313 165.311L49.3139 164.369C49.7394 164.861 50.2068 165.317 50.6982 165.72L49.8412 168.633L52.2624 169.99L54.2879 167.726C54.8992 167.936 55.5225 168.092 56.1637 168.2L56.8709 171.155L59.6455 171.113L60.2688 168.146C60.8981 168.026 61.5153 167.846 62.1266 167.612L64.2181 169.816L66.6033 168.392L65.6624 165.504C66.1538 165.077 66.6092 164.609 67.0108 164.116L69.9173 164.975L71.2717 162.549L69.0124 160.519C69.2221 159.906 69.378 159.282 69.4858 158.639L72.4343 157.93L72.3923 155.15L69.4259 154.525C69.306 153.895 69.1262 153.276 68.8925 152.663L71.0919 150.567L69.6716 148.177L66.789 149.12C66.3635 148.628 65.8961 148.171 65.4047 147.769L66.2617 144.856L63.8405 143.499L61.815 145.763C61.2037 145.553 60.5804 145.396 59.9392 145.288L59.232 142.334L56.4574 142.376L55.8341 145.348C55.2048 145.469 54.5876 145.649 53.9763 145.883L51.8848 143.679L51.8908 143.673ZM64.1941 153.072C66.2137 156.471 65.111 160.867 61.7191 162.891C58.3271 164.915 53.9404 163.81 51.9208 160.411C49.9012 157.012 51.0039 152.615 54.3958 150.591C57.7878 148.568 62.1745 149.673 64.1941 153.072Z" fill="#019AED"/>
<path d="M57.6739 175.924C57.4881 175.924 57.3203 175.791 57.2784 175.611L56.6311 172.915C56.1517 172.825 55.6783 172.705 55.2168 172.554L53.371 174.62C53.2452 174.764 53.0354 174.801 52.8676 174.704L50.4405 173.347C50.2727 173.251 50.1948 173.059 50.2488 172.873L51.0338 170.218C50.6683 169.906 50.3207 169.564 49.9911 169.197L47.3662 170.056C47.1864 170.116 46.9886 170.044 46.8868 169.876L45.4665 167.486C45.3706 167.323 45.3945 167.113 45.5384 166.981L47.54 165.071C47.3782 164.609 47.2403 164.134 47.1385 163.666L44.4357 163.095C44.2499 163.053 44.1121 162.891 44.1121 162.699L44.0701 159.918C44.0701 159.726 44.196 159.558 44.3818 159.516L47.0725 158.867C47.1624 158.387 47.2823 157.918 47.4321 157.45L45.3706 155.6C45.2267 155.474 45.1908 155.264 45.2867 155.096L46.6411 152.669C46.7369 152.501 46.9287 152.423 47.1145 152.477L49.7633 153.264C50.075 152.898 50.4166 152.549 50.7821 152.219L49.9251 149.588C49.8652 149.408 49.9371 149.21 50.1049 149.108L52.4901 147.685C52.6519 147.589 52.8616 147.619 52.9935 147.757L54.8992 149.763C55.3607 149.6 55.8341 149.462 56.3015 149.36L56.8709 146.652C56.9128 146.465 57.0746 146.327 57.2664 146.327L60.0411 146.285C60.2329 146.285 60.4007 146.411 60.4426 146.598L61.0898 149.294C61.5693 149.384 62.0427 149.504 62.5041 149.655L64.3499 147.589C64.4758 147.444 64.6855 147.408 64.8533 147.504L67.2745 148.862C67.4423 148.958 67.5202 149.15 67.4662 149.336L66.6812 151.991C67.0467 152.303 67.3943 152.645 67.7239 153.012L70.3488 152.153C70.5286 152.093 70.7263 152.165 70.8282 152.333L72.2485 154.723C72.3444 154.886 72.3204 155.096 72.1766 155.228L70.175 157.138C70.3368 157.6 70.4746 158.075 70.5765 158.543L73.2793 159.114C73.4651 159.156 73.6029 159.318 73.6029 159.51L73.6449 162.291C73.6449 162.483 73.519 162.651 73.3332 162.693L70.6424 163.342C70.5526 163.822 70.4327 164.296 70.2829 164.759L72.3444 166.609C72.4882 166.735 72.5242 166.945 72.4283 167.113L71.0739 169.54C70.978 169.708 70.7863 169.786 70.6005 169.732L67.9516 168.945C67.64 169.311 67.2984 169.66 66.9329 169.99L67.7898 172.62C67.8498 172.801 67.7779 172.999 67.6101 173.101L65.2249 174.524C65.0571 174.62 64.8533 174.59 64.7215 174.452L62.8158 172.446C62.3543 172.608 61.8809 172.747 61.4134 172.849L60.8441 175.557C60.8022 175.743 60.6404 175.882 60.4486 175.882L57.6739 175.924ZM55.091 171.672C55.1329 171.672 55.1809 171.678 55.2228 171.696C55.8101 171.9 56.4154 172.05 57.0327 172.152C57.1945 172.176 57.3263 172.302 57.3623 172.458L57.9975 175.095L60.119 175.065L60.6763 172.416C60.7123 172.254 60.8381 172.128 60.9999 172.098C61.5992 171.978 62.2045 171.81 62.7918 171.587C62.9476 171.527 63.1214 171.569 63.2293 171.69L65.0931 173.653L66.9149 172.56L66.0759 169.984C66.0219 169.828 66.0759 169.654 66.1957 169.546C66.6692 169.131 67.1126 168.681 67.4962 168.206C67.5981 168.08 67.7719 168.026 67.9277 168.074L70.5166 168.843L71.5534 166.987L69.5398 165.173C69.4199 165.065 69.372 164.891 69.4259 164.735C69.6296 164.146 69.7795 163.54 69.8813 162.921C69.9053 162.759 70.0312 162.627 70.187 162.591L72.8178 161.954L72.7879 159.828L70.145 159.27C69.9832 159.234 69.8574 159.108 69.8274 158.945C69.7135 158.345 69.5398 157.738 69.318 157.15C69.2581 156.994 69.3 156.819 69.4199 156.711L71.3796 154.843L70.2889 153.018L67.7179 153.859C67.5621 153.907 67.3883 153.859 67.2804 153.738C66.8669 153.264 66.4175 152.826 65.944 152.435C65.8182 152.333 65.7643 152.159 65.8122 152.003L66.5793 149.408L64.7275 148.369L62.9236 150.387C62.8158 150.507 62.642 150.555 62.4862 150.501C61.8989 150.297 61.2936 150.147 60.6763 150.045C60.5145 150.021 60.3827 149.895 60.3467 149.739L59.7115 147.102L57.59 147.132L57.0327 149.781C56.9967 149.943 56.8709 150.069 56.7091 150.099C56.1098 150.219 55.5045 150.387 54.9172 150.609C54.7614 150.67 54.5876 150.627 54.4797 150.507L52.6159 148.543L50.7941 149.637L51.6331 152.213C51.687 152.369 51.6331 152.543 51.5132 152.651C51.0398 153.066 50.5963 153.516 50.2128 153.991C50.1109 154.117 49.9371 154.171 49.7813 154.123L47.1924 153.354L46.1556 155.21L48.1692 157.024C48.2891 157.132 48.337 157.306 48.2831 157.462C48.0793 158.051 47.9295 158.663 47.8276 159.276C47.8037 159.438 47.6778 159.57 47.522 159.606L44.8911 160.243L44.9211 162.369L47.564 162.927C47.7258 162.963 47.8516 163.089 47.8816 163.251C48.0014 163.852 48.1692 164.459 48.391 165.047C48.4509 165.203 48.409 165.378 48.2891 165.492L46.3294 167.359L47.4201 169.185L49.9911 168.344C50.1469 168.296 50.3207 168.344 50.4285 168.464C50.842 168.939 51.2915 169.383 51.7649 169.768C51.8908 169.87 51.9447 170.044 51.8968 170.2L51.1297 172.795L52.9815 173.834L54.7854 171.816C54.8633 171.726 54.9771 171.678 55.091 171.678V171.672ZM58.8725 168.675C58.2492 168.675 57.626 168.597 57.0087 168.44C55.055 167.948 53.407 166.717 52.3702 164.981C50.2368 161.396 51.4114 156.741 54.9891 154.597C58.5668 152.459 63.2113 153.636 65.3508 157.222C67.4842 160.807 66.3096 165.462 62.7319 167.606C61.5453 168.314 60.2209 168.681 58.8725 168.681V168.675ZM58.8485 154.351C57.6739 154.351 56.4873 154.657 55.4086 155.306C52.2204 157.216 51.1717 161.366 53.0774 164.567C54.0003 166.116 55.4685 167.209 57.2125 167.654C58.9564 168.098 60.7722 167.828 62.3124 166.903C65.5006 164.993 66.5493 160.843 64.6436 157.642C63.3851 155.528 61.1438 154.351 58.8485 154.351Z" fill="#71D4FF"/>
</svg>
