<svg width="133" height="32" viewBox="0 0 133 32" fill="none" xmlns="http://www.w3.org/2000/svg">
<g clip-path="url(#clip0_131_99)">
<path d="M15.9857 31.9982C24.8144 31.9982 31.9714 24.8352 31.9714 15.9991C31.9714 7.16304 24.8144 0 15.9857 0C7.15704 0 0 7.16304 0 15.9991C0 24.8352 7.15704 31.9982 15.9857 31.9982Z" fill="#019AED"/>
<path d="M11.5869 19.2354V14.6847L23.7269 7.69599L20.0241 5.30273L9.44544 11.3537C9.44544 11.3537 8.30514 12.4789 8.30514 12.62C8.30514 12.7611 7.99106 14.6597 7.99106 14.6597C7.99106 14.6597 7.64843 15.1062 7.60204 15.5294C7.55564 15.9509 7.06668 15.8581 7.99106 16.9368C8.91544 18.0156 11.5869 19.2354 11.5869 19.2354Z" fill="#019AED"/>
<path d="M15.7377 26.7652L12.9859 25.281L12.6005 19.1603L15.6752 17.7351L15.7377 26.7652Z" fill="#019AED"/>
<path d="M24.5906 7.66384C24.5942 7.34771 24.4818 7.17268 24.2123 7.01908C22.8614 6.25467 21.5141 5.48311 20.1775 4.69191C19.917 4.53653 19.7314 4.55617 19.4816 4.70441C18.741 5.14199 17.9933 5.56706 17.2474 5.99749L16.7602 6.27968C16.5157 6.42077 16.273 6.56365 16.0303 6.70832C15.9946 6.72975 15.9589 6.74761 15.9268 6.7619L14.4956 7.59061L11.5369 9.30518L9.10282 10.7161C8.64241 11.0626 8.15524 11.4109 7.80548 11.8556C5.63372 14.6186 7.21302 17.7441 9.13494 18.9121C9.79164 19.3104 10.4715 19.6676 11.1229 20.0713C11.4084 20.2481 11.6226 20.2481 11.9116 20.0748C11.9866 20.0302 12.0598 19.9855 12.1347 19.9409C12.1347 21.2 12.1347 22.8199 12.1258 24.1094C12.1222 24.6274 12.1187 25.0918 12.1151 25.4597L13.3018 26.1401L15.1523 27.1992L15.379 27.3296C15.379 27.3296 15.3932 27.3368 15.4004 27.3403C15.6163 27.4439 15.8019 27.4457 16.0392 27.3046C17.3741 26.5134 18.7178 25.7365 20.0705 24.9739C20.3417 24.8203 20.4452 24.6524 20.4416 24.3345C20.4238 22.8646 20.4327 21.3947 20.4327 19.9248C20.4327 18.4549 20.4434 17.0208 20.4256 15.5687C20.422 15.2526 20.5202 15.0829 20.7968 14.9293C21.9442 14.2899 23.0702 13.6184 24.2159 12.9754C24.4907 12.8218 24.5924 12.6432 24.5889 12.3307C24.5746 10.7751 24.5728 9.21945 24.5889 7.66562L24.5906 7.66384ZM10.8998 18.5407C10.4198 18.2674 10.0129 18.0834 9.65959 17.8245C8.60137 17.044 7.96787 16.0134 7.99285 14.6614C8.00534 13.9702 8.38901 13.7452 9.01181 14.0631C9.58642 14.3578 10.1432 14.69 10.6964 15.0258C10.791 15.0847 10.8891 15.233 10.8909 15.3401C10.9052 16.376 10.8998 17.4119 10.8998 18.5424V18.5407ZM11.8117 13.9256C11.6547 14.0149 11.3567 13.9828 11.1818 13.8952C10.3698 13.488 9.5775 13.0415 8.72272 12.5789C9.0939 12.1735 9.5311 11.852 9.99865 11.5609C10.2788 11.3859 10.5697 11.2234 10.8677 11.059H10.8713L12.3257 10.2196L12.3346 10.2143L15.9143 8.15142L17.5418 7.21376C18.2056 6.83155 18.8713 6.45292 19.5405 6.08143C19.6868 6.00106 19.9402 5.96712 20.074 6.04035C20.9699 6.52793 21.846 7.05123 22.7526 7.57632C22.6794 7.63705 22.6366 7.69063 22.5795 7.72456C18.9926 9.79634 15.4075 11.8717 11.8117 13.9274V13.9256ZM15.072 25.799C15.0595 25.7901 15.0435 25.7829 15.0292 25.774C14.4528 25.4472 13.8764 25.1203 13.3036 24.7899L13.3071 19.2568C13.8818 18.9264 14.4671 18.596 15.0702 18.2478V25.7972L15.072 25.799ZM23.3879 11.8395C23.3843 11.9753 23.2094 12.1521 23.072 12.2325C21.9567 12.8933 20.8396 13.5523 19.7028 14.1739C19.3352 14.3739 19.221 14.6079 19.2246 15.0169C19.2424 17.8673 19.2282 20.7196 19.2407 23.5719C19.2407 23.9148 19.1604 24.1291 18.8356 24.3005C18.0807 24.697 17.3544 25.1435 16.6121 25.5633C16.5193 25.6151 16.4104 25.6365 16.2498 25.6919V16.1831C15.2505 16.7582 14.2868 17.3101 13.3107 17.8709C12.9217 18.0942 12.5309 18.3192 12.1347 18.546C12.1311 18.5478 12.1294 18.5496 12.1258 18.5514C12.1258 17.5137 12.1454 16.5921 12.1169 15.6723C12.1044 15.283 12.2222 15.0704 12.5701 14.8722C15.2237 13.363 17.8612 11.827 20.5041 10.3018C21.4445 9.75883 22.385 9.22124 23.4039 8.63721C23.4039 9.76597 23.4164 10.8019 23.3897 11.836L23.3879 11.8395Z" fill="black"/>
<path d="M23.3879 11.8395C23.3843 11.9753 23.2094 12.1521 23.072 12.2325C21.9567 12.8933 20.8396 13.5523 19.7028 14.1738C19.3352 14.3739 19.221 14.6079 19.2246 15.0168C19.2424 17.8673 19.2282 20.7196 19.2407 23.5719C19.2407 23.9148 19.1604 24.1291 18.8356 24.3005C18.0807 24.697 17.3544 25.1435 16.6121 25.5633C16.5193 25.6151 16.4104 25.6365 16.2498 25.6919V16.1831C15.2505 16.7582 14.2868 17.3101 13.3107 17.8709C12.9217 18.0941 12.5309 18.3192 12.1347 18.546C12.1311 18.5478 12.1294 18.5496 12.1258 18.5514C12.1258 17.5137 12.1454 16.5921 12.1169 15.6723C12.1044 15.283 12.2222 15.0704 12.5701 14.8722C15.2237 13.363 17.8612 11.827 20.5041 10.3018C21.4445 9.75882 22.385 9.22123 23.4039 8.63721C23.4039 9.76597 23.4164 10.8019 23.3897 11.836L23.3879 11.8395Z" fill="white"/>
<path d="M39.1148 3.23804H49.9236V5.50985H46.2083V13.3737H42.832V5.50985H39.1166V3.23804H39.1148Z" fill="white"/>
<path d="M57.001 2.92554C60.5754 2.92554 63.5966 4.10431 63.5966 8.30501C63.5966 12.5057 60.5754 13.6845 57.001 13.6845C53.4266 13.6845 50.4054 12.5057 50.4054 8.30501C50.4054 4.10431 53.4266 2.92554 57.001 2.92554ZM57.001 11.4145C58.8159 11.4145 60.0222 10.4357 60.0222 8.30501C60.0222 6.1743 58.8159 5.19556 57.001 5.19556C55.1862 5.19556 53.9798 6.18858 53.9798 8.30501C53.9798 10.4214 55.2004 11.4145 57.001 11.4145Z" fill="white"/>
<path d="M65.1152 3.23804H69.0019L73.697 9.58374H73.7255V3.23804H76.9876V13.3737H73.258L68.4076 6.9708H68.3791V13.3737H65.117V3.23804H65.1152Z" fill="white"/>
<path d="M40.066 17.3477H41.1153V26.5188H47.5413V27.4851H40.066V17.3494V17.3477Z" fill="white"/>
<path d="M55.2986 24.4024H49.9647L48.5888 27.4833H47.4539L52.049 17.3477H53.2696L57.8647 27.4833H56.6459L55.2986 24.4024ZM52.6468 18.3978L50.3912 23.438H54.8739L52.6468 18.3978Z" fill="white"/>
<path d="M67.8241 23.5648C67.8241 25.4097 67.3137 27.7387 63.2986 27.7387C59.2834 27.7387 58.773 25.4097 58.773 23.5648V17.3477H59.8223V23.5648C59.8223 26.2188 61.539 26.7724 63.2968 26.7724C65.0545 26.7724 66.7712 26.2188 66.7712 23.5648V17.3477H67.8205V23.5648H67.8241Z" fill="white"/>
<path d="M69.7532 17.3477H71.0148L78.0922 26.0062H78.1208V17.3477H79.1701V27.4833H77.9512L70.831 18.8247H70.8025V27.4833H69.7532V17.3477Z" fill="white"/>
<path d="M91.0853 23.6218C90.8586 25.8936 88.9867 27.7385 86.0779 27.7385C82.7873 27.7385 80.6887 25.6668 80.6887 22.4144C80.6887 20.0998 82.1217 17.0903 86.0779 17.0903C88.2907 17.0903 90.6873 18.0976 90.9996 20.7677H89.9503C89.638 18.8371 87.9071 18.0566 86.0779 18.0566C83.5671 18.0566 81.8236 19.4622 81.8236 22.4144C81.8236 24.672 83.0014 26.7723 86.0779 26.7723C88.4888 26.7723 89.6809 25.5525 90.036 23.6218H91.0853Z" fill="white"/>
<path d="M92.6039 17.3477H93.6532V21.6341H100.972V17.3477H102.021V27.4833H100.972V22.6003H93.6532V27.4833H92.6039V17.3477Z" fill="white"/>
<path d="M104.064 17.3475H109.525C111.084 17.3475 112.574 18.128 112.574 20.2712C112.574 22.1876 111.313 23.2235 109.057 23.2235H105.113V27.4813H104.064V17.3457V17.3475ZM105.113 22.259H109.17C110.929 22.259 111.439 21.45 111.439 20.2712C111.439 18.7531 110.588 18.3119 109.382 18.3119H105.113V22.259Z" fill="white"/>
<path d="M120.178 24.4024H114.844L113.468 27.4833H112.334L116.929 17.3477H118.149L122.744 27.4833H121.526L120.178 24.4024ZM117.525 18.3978L115.269 23.438H119.752L117.525 18.3978Z" fill="white"/>
<path d="M123.596 17.3477H128.517C131.467 17.3477 133 19.2355 133 22.4164C133 25.2704 131.51 27.4851 128.674 27.4851H123.596V17.3494V17.3477ZM124.647 26.517H128.476C130.291 26.517 131.867 25.524 131.867 22.4146C131.867 19.732 130.818 18.3121 128.476 18.3121H124.647V26.517Z" fill="white"/>
</g>
<defs>
<clipPath id="clip0_131_99">
<rect width="133" height="32" fill="white"/>
</clipPath>
</defs>
</svg>
